<?xml version="1.0" encoding="UTF-8"?>
<svg id="Capa_1" data-name="Capa 1" xmlns="http://www.w3.org/2000/svg" viewBox="0 0 533.73 532.76">
  <defs>
    <style>
      .cls-1 {
        fill: #151414;
      }
    </style>
  </defs>
  <path class="cls-1" d="M34.31,301.61L.18,266.51c-.23-.24-.24-.62-.01-.86l34.14-36.75c.25-.27,.38-.64,.35-1l-1.57-22.25c-.02-.3,.08-.55,.3-.74,6.61-5.79,13.22-11.54,19.82-17.25,1.12-.97,1.96-2.15,2.53-3.52,1.87-4.52,3.73-9.03,5.57-13.52,.53-1.31,.72-2.66,.56-4.07-.89-8.13-1.75-16.25-2.56-24.34-.04-.36,.1-.71,.37-.94l16.11-13.86c.27-.23,.42-.56,.43-.91l.73-48.86c0-.42,.22-.64,.64-.65l50.24-1.87c.27-.01,.49-.12,.66-.32l14.79-16.99c.19-.22,.46-.35,.74-.36,9.58-.5,19.11-.99,28.59-1.48,2.15-.11,4.21-.55,6.19-1.32,5.13-2.01,10.54-3.57,13.53-6.3,5.48-5.01,10.99-9.99,16.54-14.94,.28-.25,.61-.37,.98-.34l22.25,1.55c.34,.03,.67-.09,.92-.32L269.87,.2c.29-.27,.57-.26,.85,.01l35.22,34.07c.25,.24,.55,.35,.9,.33l21.27-1.53c.36-.03,.72,.09,.98,.34,4.86,4.55,9.7,9.1,14.53,13.63,1.31,1.23,2.81,2.18,4.5,2.85,4.07,1.61,8.11,3.24,12.14,4.91,1.89,.79,3.85,1.24,5.86,1.35,8.07,.46,16.12,.88,24.16,1.27,.29,.01,.54,.13,.73,.35l14.73,16.94c.22,.25,.5,.39,.84,.4l50.21,1.87c.37,.01,.55,.21,.56,.58l.78,49.11c0,.27,.11,.5,.32,.67l16.12,13.87c.3,.26,.46,.59,.47,.98,.32,7.38,.57,14.74,.74,22.07,.05,1.74,.42,3.41,1.11,5.02,2.11,4.89,4.13,9.82,6.08,14.77,.69,1.77,1.67,3.36,2.92,4.75,4.8,5.36,9.61,10.7,14.42,16.01,.21,.23,.31,.51,.29,.83l-1.55,22.27c-.03,.38,.09,.71,.35,.99l34.13,36.72c.27,.29,.27,.58-.01,.87l-34.12,35.12c-.25,.25-.38,.6-.35,.95l1.56,21.29c.02,.3-.09,.59-.29,.81-5.11,5.47-10.23,10.9-15.35,16.29-1.33,1.41-2.38,3-3.14,4.78-1.73,4.09-3.46,8.17-5.17,12.24-.72,1.73-1.12,3.55-1.2,5.44-.32,7.91-.74,15.79-1.25,23.64-.02,.33-.16,.61-.41,.83l-16.83,14.57c-.27,.23-.41,.53-.42,.89l-1.88,50.05c-.01,.39-.21,.58-.59,.59l-49.01,.79c-.38,0-.69,.14-.93,.43l-13.62,15.77c-.4,.47-.98,.75-1.6,.77l-29.43,.89c-1.34,.05-2.62,.57-3.6,1.49l-26.64,25.08c-.36,.33-.83,.5-1.32,.47l-21.1-1.54c-.34-.03-.67,.09-.91,.33l-35.19,34.08c-.29,.27-.57,.28-.86,.01l-36.69-33.97c-.34-.32-.81-.48-1.28-.44l-22.03,1.55c-.34,.02-.68-.1-.93-.34-8.14-7.84-16.19-15.72-24.16-23.65-1.57-1.56-3.54-2.82-5.89-3.78-1.79-.73-4.04-1.05-6.75-.98-9.09,.23-18.17,.48-27.23,.73-.3,.01-.6-.12-.8-.35l-13.93-16.14c-.24-.27-.54-.41-.91-.42l-49.21-.78c-.22,0-.39-.18-.4-.4l-1.9-50.2c-.01-.36-.18-.71-.45-.95l-16.86-14.63c-.23-.2-.36-.5-.33-.81,.67-8.66,1.34-17.28,2-25.85,.13-1.77-.08-3.27-.63-4.48-2.15-4.75-4.04-9.47-5.65-14.14-.27-.78-.77-1.47-1.43-1.97l-20.94-15.91c-.26-.19-.4-.5-.38-.83l1.57-21.23c.03-.38-.09-.71-.35-.98Zm462.03-37.82c.22-125.23-101.21-226.93-226.54-227.15h0c-125.34-.22-227.12,101.12-227.34,226.35h0c-.22,125.23,101.21,226.93,226.54,227.15h0c125.34,.22,227.12-101.12,227.34-226.35h0Z"/>
  <path class="cls-1" d="M479.74,261.92c.81,116.08-92.71,210.83-208.89,211.64h0c-116.18,.81-211.01-92.63-211.82-208.71h0c-.81-116.08,92.71-210.83,208.89-211.64h0c116.18-.81,211.01,92.63,211.82,208.71h0ZM317.54,94.92l-22.17-4.68c-.33-.07-.47-.28-.42-.61l2.04-13.22c.05-.31,.23-.45,.54-.41,8.15,1.11,16.16,2.83,24.05,5.16,.31,.09,.42,.29,.33,.6l-.37,1.36c-.08,.3,.03,.49,.33,.58l7.22,2.11c.29,.09,.51,0,.64-.28,2.45-5.18-1.79-8.03-6.11-9.22-8.97-2.47-18.05-4.31-27.24-5.52-5.21-.68-7.81,.97-8.26,6.28-.31,3.7-2.18,11.83-.51,14.81,1.02,1.81,2.77,2.89,5.26,3.26,8.52,1.27,16.92,3.05,25.21,5.32,4.45,1.23,7.2-.39,8.27-4.85,.07-.27-.03-.45-.3-.53l-6.68-1.99c-.4-.12-.81,.11-.93,.51,0,.01,0,.02,0,.03l-.2,.86c-.09,.37-.32,.51-.69,.43Zm-108.53,2.07l-5.86-17.57c-.13-.39-.4-.53-.79-.41l-7.11,2.27c-.47,.15-.61,.45-.44,.9l8.45,22.06c.13,.32,.49,.49,.82,.38,11.79-3.97,23.87-6.73,36.22-8.27,.4-.05,.57-.28,.51-.67l-.6-4.03c-.05-.33-.24-.48-.57-.43-10.12,1.33-20.09,3.38-29.9,6.15-.31,.09-.63-.08-.73-.38Zm153.22-4.58c-3.08-1.49-10.48-4.14-12.36,.21-1.99,4.6-3.92,9.23-5.8,13.89-1.41,3.49,2.81,6.58,5.61,7.87,6.73,3.09,13.26,6.55,19.58,10.38,3.56,2.15,7.56,3.92,10.26,.08,2.69-3.83,5.36-7.69,7.99-11.56,2.28-3.36-1.24-7.02-3.99-8.82-6.84-4.47-13.94-8.48-21.29-12.05Zm-205.82,30.47c-.17-.21-.15-.39,.06-.56,8.21-6.58,16.92-12.39,26.15-17.44,.16-.09,.19-.21,.1-.37l-2.23-3.8c-.08-.15-.27-.2-.41-.12-9.55,5.1-18.54,11.04-26.97,17.82-.19,.16-.37,.14-.53-.05l-2.63-3.12c-.18-.21-.15-.52,.06-.7,0,0,.01,0,.02-.01,8.71-6.77,17.88-12.84,27.53-18.19,.16-.09,.22-.3,.13-.45,0,0,0,0,0,0l-2.22-3.85c-.07-.12-.22-.16-.34-.1-8.68,4.77-17.05,10.14-25.12,16.11-5.06,3.75-10.8,7.96-5.78,13.72,2.71,3.1,5.5,6.15,8.37,9.15,2.22,2.33,5.45,2.63,7.83,.8,8.7-6.72,17.75-12.8,27.15-18.24,.17-.1,.2-.23,.11-.39l-2.15-3.69c-.15-.25-.35-.31-.6-.17-8.98,4.84-17.45,10.45-25.42,16.84-.17,.14-.43,.12-.58-.06,0,0,0,0,0,0l-2.53-3.12Zm269.34,140.78c.15-86.27-69.73-156.33-156.08-156.48h0c-86.35-.15-156.47,69.66-156.62,155.94-.15,86.27,69.73,156.33,156.08,156.48h0c86.35,.15,156.47-69.66,156.62-155.94h0Zm-17.18-100.12c2.03,2.67,5.34,4.83,8.61,2.53,3.56-2.51,7.1-5.05,10.62-7.63,4.15-3.05,2.08-8.28-.46-11.52-7.27-9.23-15.32-17.8-24.14-25.69-.26-.23-.5-.21-.73,.04l-15.76,17.69c-.23,.25-.21,.5,.04,.73,8.04,7.32,15.31,15.27,21.82,23.85Zm-287.61,3.78l-14.85-11.41c-.43-.33-.8-.27-1.11,.18l-4.29,6.19c-.27,.38-.17,.9,.21,1.17,0,0,0,0,0,0,5.01,3.5,10.21,7.19,15.61,11.06,3.2,2.29,7.08-1.1,8.88-3.56,5.04-6.89,10.58-13.35,16.63-19.37,2.65-2.63,2.57-6.02-.02-8.88-4.14-4.57-8.21-8.99-12.22-13.24-.28-.29-.56-.3-.85-.02l-5.49,5.35c-.27,.26-.27,.52,0,.78l13.37,13.55c.17,.18,.17,.46,0,.64,0,0,0,0,0,0-5.49,5.39-10.48,11.2-14.97,17.43-.25,.35-.54,.39-.88,.13Zm320.79,16.43c5.71,11.23,10.2,22.92,13.48,35.09,.05,.19,.17,.25,.36,.19l4.41-1.4c.15-.05,.21-.15,.17-.3-1.19-4.57-14.02-47.92-23.15-42.33-4.05,2.49-8.15,4.9-12.28,7.24-3.47,1.97-2.05,7.24-.66,10.05,5.19,10.5,9.46,21.35,12.83,32.55,.05,.15,.2,.23,.34,.18,0,0,0,0,0,0l4.14-1.39c.17-.06,.23-.18,.18-.35-3.21-11.25-7.41-22.12-12.58-32.61-.15-.3-.08-.53,.22-.7l3.34-1.83c.21-.12,.48-.04,.6,.17,0,0,.01,.02,.02,.03,5.18,10.83,9.49,22,12.93,33.51,.06,.18,.25,.28,.43,.22,0,0,0,0,0,0l4.08-1.36c.17-.05,.23-.17,.18-.34-3.32-11.9-7.73-23.38-13.22-34.43-.17-.33-.09-.58,.24-.75l3.17-1.68c.33-.18,.59-.1,.76,.24Zm-334.66,20.5c1.15-2.77,2.23-5.56,3.24-8.38,1.27-3.53,.54-6.07-2.81-8.08-3.41-2.06-6.86-4.07-10.34-6.02-4.62-2.59-7.92,.61-9.83,4.73-5.59,12.07-9.78,24.61-12.57,37.64-.07,.3,.05,.49,.34,.58l22.46,6.62c.34,.1,.55-.02,.64-.37,2.32-9.16,5.28-18.07,8.87-26.72Zm-36.23,68.16l-4.96-.64c-.26-.03-.5,.03-.71,.18-.95,.69-1.2,1.53-.74,2.52,.24,.52,.72,.89,1.29,.98,12.56,1.94,25.11,1.96,37.65,.06,1.11-.17,1.74-.81,1.9-1.92l.06-.41c.1-.69-.38-1.33-1.07-1.43-.11-.02-.22-.02-.33,0l-4.68,.59c-.37,.04-.55-.12-.55-.49,0-3.65,.63-8.44-1.18-11.44-3.33-5.51-11.59-4.84-17.17-4.4-10.06,.79-8.91,8.5-9.03,15.99,0,.32-.17,.46-.48,.41Zm394.01-.45c-.03-3.56,.56-8.3-.94-11.25-2.93-5.75-12.27-5.3-18.07-4.6-9.65,1.17-8.09,8.68-8.33,15.9,0,.33-.17,.47-.49,.42l-5.03-.69c-.77-.1-1.48,.44-1.59,1.21,0,.01,0,.02,0,.03l-.04,.45c-.11,.97,.56,1.86,1.53,2.01,12.72,1.98,25.44,1.98,38.15-.01,.97-.15,1.63-1.05,1.5-2.02l-.05-.44c-.1-.77-.81-1.31-1.58-1.21l-4.61,.59c-.22,.03-.42-.13-.45-.35,0-.01,0-.03,0-.04ZM91.6,347.02c1.68,3.54,5.17,9.33,9.99,6.65,3.77-2.09,7.49-4.29,11.18-6.6,3.68-2.31,3.42-6.14,1.75-9.67-4.93-10.42-8.93-21.16-12.01-32.23-.05-.19-.24-.3-.42-.25,0,0-.01,0-.02,0l-22.46,6.68c-.33,.1-.46,.32-.38,.66,2.95,12.06,7.07,23.65,12.37,34.76Zm344.41,.68c5.13-10.73,9.16-21.85,12.09-33.38,.06-.23-.03-.39-.26-.46l-3.98-1.22c-.23-.07-.37,0-.43,.24-3.03,11.11-6.99,21.89-11.88,32.33-.06,.13-.21,.18-.33,.12,0,0,0,0,0,0l-3.81-1.95c-.18-.09-.26-.31-.17-.5,4.86-10.01,8.71-20.39,11.54-31.15,.11-.41-.13-.84-.54-.98l-3.59-1.19c-.42-.13-.69,.01-.81,.44-2.97,10.71-6.76,21.82-11.68,32.07-1.36,2.83-1.81,6.62,1.06,8.42,4.03,2.51,8.07,5,12.13,7.47,4.41,2.68,7.87-2.09,9.54-5.56,5.48-11.37,9.72-23.18,12.71-35.41,.05-.19-.02-.31-.21-.37l-4.22-1.21c-.15-.05-.25,0-.29,.16-3.09,11.9-7.31,23.39-12.68,34.46-.07,.13-.23,.19-.36,.12,0,0,0,0,0,0l-3.68-2.03c-.17-.09-.22-.23-.13-.42Zm-319.56,29.24l14.59-11.62c.21-.17,.25-.47,.09-.68l-4.11-5.64c-.19-.26-.41-.3-.67-.11-4.97,3.53-10.04,7.19-15.2,10.97-3.96,2.89-.84,8.61,1.45,11.51,3.89,4.92,7.95,9.69,12.19,14.31,2.58,2.81,5.19,5.1,7.84,6.89,2.91,1.97,5.48,1.25,7.82-1.34,4.01-4.46,7.88-8.85,11.6-13.17,.24-.28,.23-.55-.04-.8l-4.9-4.61c-.2-.19-.51-.18-.7,.02l-12.9,13.37c-.22,.23-.58,.24-.81,.02-5.95-5.67-11.4-11.78-16.35-18.33-.22-.3-.19-.56,.1-.79Zm310.64,6.8c2.55-3.45,2.23-6.76-1.25-9.36-3.03-2.26-6.09-4.51-9.17-6.74-3.59-2.6-6.64-2.53-9.36,.96-6.47,8.27-13.62,15.9-21.47,22.9-.25,.22-.26,.45-.04,.7l16.04,18.12c.23,.26,.47,.28,.73,.05,9.17-8.05,17.35-16.93,24.52-26.63Zm-259.82,24.06c.12-.16,.34-.21,.51-.1,8.41,5.41,17.17,10.19,26.27,14.34,.26,.12,.56,0,.68-.25l1.72-3.76c.11-.23,.04-.39-.19-.5-8.99-4.14-17.76-8.91-26.3-14.3-3.16-2-7.13-3.09-9.5,.23-2.56,3.58-5.14,7.15-7.74,10.72-3,4.11,.79,8.11,4.33,10.32,9.19,5.71,18.73,10.81,28.64,15.29,.45,.21,.79,.08,1-.37l1.57-3.4c.17-.38,0-.82-.37-.99,0,0-.01,0-.02,0-9.81-4.16-19.19-9.14-28.13-14.95-.38-.25-.44-.57-.19-.94l2.03-2.98c.24-.36,.54-.42,.91-.18,8.76,5.69,17.89,10.73,27.38,15.1,.26,.13,.58,.01,.71-.25,0,0,0,0,0,0l1.75-3.73c.16-.35,.06-.6-.29-.75-9.41-4.17-18.44-9.03-27.09-14.6-.13-.08-.17-.25-.09-.39,0,0,0,0,0-.01l2.4-3.53Zm180.03,8.51c-3.72,1.82-6.37,4.27-4.41,8.62,2.03,4.5,4.14,9.01,6.33,13.54,.16,.32,.41,.57,.73,.71,4.58,2.01,7.2,.16,12.39-2.38,8.25-4.03,15.17-8.09,20.74-12.17,2.5-1.83,3.13-5.26,1.19-8-2.91-4.11-5.96-8.14-9.13-12.1-.19-.25-.46-.43-.76-.51-2.41-.71-4.52-.51-6.32,.58-8.67,5.25-15.59,9.16-20.76,11.71Zm-135.82,26.91l5.36-17.6c.08-.26-.06-.54-.32-.63,0,0,0,0,0,0l-6.22-1.97c-.29-.09-.49,0-.6,.3l-7.85,22.11c-.14,.41,0,.68,.4,.82,13.25,4.59,26.85,7.73,40.79,9.41,.14,.02,.28-.07,.3-.22,0,0,0,0,0-.01l.52-4.48c.01-.15-.05-.23-.2-.25-10.8-1.27-21.39-3.51-31.78-6.74-.37-.11-.5-.36-.39-.74Zm90.02,7.91l-2.42-13.33c-.05-.27,.06-.43,.33-.49l21.4-4.6c.3-.07,.5,.04,.61,.33l.42,1.15c.14,.38,.41,.51,.8,.4l6.28-1.92c.39-.11,.54-.37,.46-.76-1.17-5.7-5.66-5.31-10.42-4.07-9.75,2.53-16.81,4.02-21.16,4.49-4.54,.48-7.11,2.4-6.43,7.25,.6,4.23,1.18,8.47,1.73,12.72,.65,4.97,6.72,4.94,10.45,4.29,7.93-1.39,15.78-3.1,23.57-5.15,3.78-.99,8.3-3.95,6.34-8.51-.35-.83-.96-1.11-1.82-.85l-5.55,1.7c-.91,.28-1.11,.82-.62,1.63,.38,.63,.1,1.05-.85,1.28-9.48,2.31-16.95,3.96-22.42,4.93-.39,.07-.63-.1-.7-.49Z"/>
  <path class="cls-1" d="M358.29,96.04l21.84,12.07c.18,.1,.25,.34,.14,.52,0,0,0,.01-.01,.02l-7.7,11.6c-.11,.16-.33,.22-.5,.12l-20.11-11.14c-.17-.1-.24-.31-.16-.49l5.98-12.54c.1-.19,.32-.26,.51-.16,0,0,0,0,0,0Z"/>
  <path class="cls-1" d="M180.68,225.28c-.03-14.13-.05-28.27-.06-42.4,0-9.54,.38-16.18,1.14-19.92,6.76-33.18,40.63-44.77,70.34-45.06,13.62-.13,25.04-.1,34.25,.07,29.29,.55,61.05,12.03,68.51,44.07,.88,3.81,1.31,9.4,1.28,16.76-.05,15.33-.05,30.65,.02,45.96,0,.38,.2,.54,.57,.48,8.23-1.29,16.38-2.72,24.43-4.31,3.31-.65,8.48-.52,11.68,1.01,6.28,3,8.88,10.94,3.98,16.43-2.09,2.35-4.91,3.93-8.47,4.76-15.12,3.52-27.26,5.49-43.23,6.58-30.02,2.04-62.87,4.71-93.76,3.49-36.05-1.43-60.88-2.88-74.51-4.36-6.61-.72-15.9-2.35-27.87-4.88-6.5-1.37-12.9-3.27-14.27-10.13-1.1-5.51,2.59-11.12,8-12.63,3.75-1.05,8.37-.55,12.83,.3,8.17,1.57,16.37,2.98,24.6,4.24,.36,.06,.54-.09,.54-.46Zm65.86-51.34c.45-1.05,.2-1.9-.73-2.54-.31-.21-.34-.46-.08-.74,.48-.51,.91-1.03,1.3-1.56,.39-.54,.49-1.03,.31-1.48-.08-.2-.32-.3-.52-.22-.08,.03-.14,.09-.19,.16l-1.06,1.68c-.06,.09-.14,.15-.24,.17-1.07,.26-2.04,.69-2.92,1.28-.33,.23-.68,.26-1.04,.09-10.03-4.6-18.88-3.04-26.53,4.67-.58,.59-.58,1.53,0,2.1,.02,.02,.04,.04,.06,.06l3.52,3.11c.66,.58,1.66,.54,2.28-.09,2.09-2.15,4.56-3.64,7.41-4.47,.35-.1,.63,0,.82,.31,2.75,4.41,6.59,9.48,12.08,4.52,.24-.22,.5-.25,.79-.08,4.29,2.47,8.37,5.23,12.26,8.28,3.13,2.45,6.82,2.5,9.85,6.55,.18,.24,.16,.46-.06,.67l-9.51,8.88c-.35,.33-.36,.67-.01,1.01l1.07,1.04c.39,.39,.8,.4,1.21,.03l9.93-8.8c.28-.25,.56-.25,.84,0l9.93,8.8c.35,.3,.87,.3,1.2-.02l1.02-.98c.39-.37,.38-.75-.01-1.12l-9.48-8.88c-.25-.23-.27-.48-.05-.75,2.72-3.39,6.3-4.06,9.25-6.15,4.19-2.97,8.48-5.86,12.86-8.67,.28-.17,.54-.15,.78,.07,5.58,5.06,9.31,.15,12.02-4.36,.21-.35,.51-.46,.9-.35,2.83,.81,5.29,2.28,7.37,4.41,.65,.67,1.72,.71,2.43,.09l3.34-2.96c.66-.59,.73-1.59,.14-2.25-.02-.02-.04-.05-.06-.07-7.56-7.61-16.35-9.17-26.38-4.68-.16,.07-.33,.09-.49,.06-2.2-.39-3.83-1.48-4.9-3.29-.1-.17-.32-.23-.49-.13-.12,.07-.18,.19-.18,.33,.05,1.29,.62,2.29,1.72,3,.22,.13,.28,.42,.15,.63-.06,.09-.15,.16-.25,.2-1.13,.37-1.4,1.1-.81,2.19,.18,.33,.13,.62-.14,.87l-19.85,18.53c-.25,.24-.64,.24-.89,0l-19.85-18.53c-.19-.18-.23-.39-.13-.62Z"/>
  <path class="cls-1" d="M422.93,149.48c.26,.3,.23,.75-.07,1.01l-6.38,5.63c-2.24,1.97-4.36,3.22-4.75,2.79l-15.52-17.6c-.36-.45,1.14-2.39,3.37-4.36l6.38-5.63c.3-.27,.75-.24,1.02,.06,0,0,0,0,0,0l15.95,18.1Z"/>
  <path class="cls-1" d="M234.3,180.2l3.06-2.25c.29-.21,.57-.21,.85,0l2.23,1.68c.3,.23,.32,.47,.05,.74-4.4,4.34-8.64,.28-10.57-4.05-.11-.25-.03-.39,.24-.42,1.81-.19,3.54,.09,5.17,.85,.25,.12,.36,.41,.24,.66-.03,.05-.06,.1-.1,.15-.7,.69-1.17,1.52-1.42,2.47-.08,.3,0,.36,.25,.17Z"/>
  <path class="cls-1" d="M299.77,179.88c-.13-.93-.57-1.71-1.32-2.32-.34-.28-.32-.52,.07-.73,1.58-.83,3.26-1.15,5.04-.94,.42,.05,.54,.27,.37,.65-1.83,4.15-6.09,8.01-10.45,3.86-.22-.21-.23-.57-.02-.79,.02-.03,.05-.05,.08-.07l2.19-1.54c.31-.23,.63-.22,.94,.01l2.77,2.07c.09,.07,.23,.05,.29-.05,.03-.04,.04-.1,.04-.15Z"/>
  <path class="cls-1" d="M104.54,196.93c-3.43,7.21-6.2,15.19-8.56,23.68-.1,.36-.33,.48-.68,.35l-12.77-4.5c-.39-.13-.52-.4-.41-.8,2.43-8.77,5.53-17.31,9.3-25.6,.17-.37,.44-.46,.81-.27l12.01,6.25c.39,.2,.49,.5,.3,.89Z"/>
  <path class="cls-1" d="M304.81,315.17l-5.37-6.09c-1.11-1.25-.82-1.83,.85-1.72,13.38,.86,27.47-2.29,40.84-4.97,.09-.03,.2,.02,.23,.11,.03,.09-.02,.2-.11,.23-6.23,3.22-12.21,6.41-19.17,6.71-.47,.02-.49,.11-.04,.28,8.49,3.23,17.77,6.88,26.81,6.64,13.32-.36,11.31-19.35,8.62-27.55-.11-.33-.3-.59-.57-.8-8.19-6.19-13.29-14.38-15.28-24.56-.07-.35,0-.66,.21-.93,2.01-2.67,6.58-6.46,7.17-9.63,.14-.74,.58-1.14,1.32-1.2l7.56-.65c.7-.06,.96,.25,.79,.93-2.62,10.39-4.49,18.35-5.61,23.88-.73,3.58,5.01,8.4,7.65,10.07,.27,.17,.46,.41,.55,.72,4.17,13.14,7.28,26.38-3.01,35.86-4.35,4.01-12.32,6.96-18.32,9.78-3.22,1.52-5.89,3.48-8.82,5.47-11.9,8.11-13.92,27.46-11.24,40.63,.44,2.15-.12,3.71-1.71,5.33-10.28,10.41-20.39,23.42-35.93,25.03-1.69,.17-4.55,.01-8.56-.49-4.71-.58-9.41-.57-14.1,.03-3.97,.51-6.79,.68-8.44,.5-14.56-1.55-26.54-16.2-36.48-26.26-.23-.24-.34-.53-.31-.87,1.56-16.93,1.45-36.86-15.06-46.72-6.85-4.1-16.56-6.72-22.23-11.11-6.3-4.89-9.09-11.58-8.38-20.08,.35-4.27,2.07-9.66,3.1-14.44,1.09-5.01,4.5-8.06,8.56-10.72,.27-.18,.41-.51,.36-.84-1.43-9.02-4.44-17.45-5.79-26.32-.03-.21,.12-.4,.32-.43,.03,0,.06,0,.09,0l8.61,.77c.35,.03,.57,.21,.68,.54,1.14,3.51,5.21,7.47,7.46,10.53,.2,.28,.27,.59,.2,.92-1.28,6.37-3.91,12.01-7.89,16.92-1.68,2.07-4.21,3.94-6.4,5.88-2.81,2.49-2.74,5.34-3.28,9.08-4.37,30.6,22.12,20.09,37.17,13.93,.11-.05,.15-.17,.1-.28-.03-.07-.1-.12-.18-.12-8.94,.16-17.57-1.36-25.9-4.56-.1-.02-.15-.12-.13-.22s.12-.15,.22-.13h0c16.18,2.72,32.48,3.81,48.89,3.28,.22,0,.39,.16,.4,.38,0,.1-.03,.19-.09,.26l-5.54,6.22c-.73,.82-.55,1.22,.55,1.21,2.74-.04,4.49,1.28,5.24,3.97,.07,.26,.33,.41,.59,.34,.03,0,.06-.02,.08-.03l2.8-1.32c.86-.4,1.88-.17,2.47,.57l2.74,3.42c.2,.24,.56,.28,.8,.08,0,0,0,0,0,0,4.25-3.63,8.3-.03,11.2,3.58,.23,.29,.5,.33,.81,.13,2.07-1.37,4.99-4.37,7.1-.94,.81,1.32,1.66,2.6,2.56,3.84,.21,.29,.42,.3,.65,.03,2.82-3.31,2.87-8.15,9.19-3.39,.63,.48,1.2,.42,1.71-.19,2.5-2.96,6.41-6.6,10.56-3.21,.3,.24,.57,.21,.82-.08,2.47-2.97,4.92-5.18,8.13-2.71,.18,.13,.44,.1,.57-.08,.02-.03,.04-.07,.06-.11,1.07-2.9,3.17-4.19,6.3-3.86,.48,.05,.56-.1,.24-.46Zm-28.74,75.73l-.55-1.75c-.11-.35-.32-.41-.61-.18l-7.32,5.74c-.3,.23-.62,.27-.95,.1-3.11-1.55-5.71-3.7-7.8-6.46-.15-.19-.43-.22-.62-.06-.11,.09-.17,.22-.16,.36,.13,1.81-.66,3.06-2.37,3.75-.23,.09-.48,.1-.72,.03-2.19-.67-3.65-2.11-4.38-4.32-.48-1.45-.99-1.58-1.53-.37-.55,1.24-1.54,1.68-2.95,1.31-3.26-.85-5.43-4.98-6.21-8-.05-.21-.27-.35-.48-.3-.09,.02-.16,.07-.22,.14-2.39,2.91-5.22,1.83-6.84-1.1-2.23-4.03-1.54-9.7-1.55-16.07,0-.32-.25-.59-.57-.61-5.91-.42-1.11-6.87,0-8.99,.19-.36,.09-.6-.29-.73-4.65-1.6-5.96-4.69-3.95-9.28,.12-.27,.03-.43-.26-.46-3.42-.37-3.69-2.59-2.83-5.4,.11-.33,0-.55-.32-.68-2.41-.98-3.09-2.68-2.05-5.09,.13-.32,.12-.63-.05-.93-4.06-7.05-.19-14.33,2.46-21.08,.09-.25-.03-.53-.27-.62-.12-.05-.24-.04-.36,0-5.62,2.47-11.36,4.85-17.22,7.13-5.36,2.1-3.22,7.35-.99,11.14,9.5,16.13,16.6,31.35,13.05,50.47-.11,.54,.09,1.09,.51,1.46,5.8,5.01,11.68,10.04,17.65,15.09,9.95,8.44,19.47,6.73,30.82,2.73,.33-.11,.67-.12,1-.03,3.67,1.05,7.63,2.54,10.96,2.98,6.17,.81,11.66-.34,16.47-3.46,5.43-3.51,12.31-9.25,20.65-17.2,.23-.22,.32-.49,.27-.81-2.22-13.32-.17-25.84,6.15-37.56,2.92-5.43,5.69-10.9,8.43-16.41,1.9-3.83,1.08-6.42-2.47-7.79-5.74-2.22-11.48-4.57-17.23-7.05-.47-.21-.64-.06-.51,.44,2.03,7.48,6.7,13.38,2.39,21.29-.17,.3-.18,.61-.05,.94,.99,2.43,.27,4.11-2.14,5.02-.32,.12-.4,.33-.24,.64,1.58,3.1-.08,4.75-2.94,5.44-.29,.07-.36,.23-.21,.5,2.33,4.03,1.45,6.97-2.64,8.83-.38,.17-.43,.42-.16,.74,2.33,2.76,4.98,6.77-.35,8.49-.33,.11-.48,.33-.45,.68,.36,3.71,.2,7.41-.48,11.08-.65,3.51-3.84,10.08-8.01,5.7-.31-.33-.53-.27-.66,.16-1.02,3.59-5.19,11.26-9.43,6-.23-.28-.44-.27-.63,.04-1.49,2.4-2.26,5.91-5.88,5.8-.88-.03-1.65-.6-1.92-1.44Zm-20.79-55.23c-.11,3.33,.19,6.6,.92,9.82,.08,.36,.3,.61,.65,.74,2.88,1.08,5.82,1.31,8.83,.7,.39-.07,.58-.31,.59-.7l.11-6.72c0-.15,.09-.23,.24-.24h.26s.01,0,.01,0l.44,7.1c.02,.31,.18,.49,.49,.56,3.17,.62,6.23,.3,9.19-.97,.27-.12,.46-.37,.49-.67l1.04-9.63c0-.06,.04-.09,.1-.09h.27c.06,0,.09,.02,.09,.08l.26,9.53c.01,.43,.23,.62,.66,.59,3.39-.28,6.57-1.22,9.54-2.83,.37-.2,.6-.51,.67-.94,.55-3.27,.84-6.57,.87-9.89,0-.03,.02-.05,.05-.05l.27-.02c.19-.01,.35,.13,.37,.32l1.11,11.8c.02,.26,.25,.46,.51,.44,.08,0,.17-.03,.24-.08,5.23-3.4,6.41-9.52,6.98-15.28,.02-.18,.18-.3,.36-.28,.13,.02,.24,.12,.27,.25l1.39,6.73c.05,.25,.2,.34,.45,.25,4.52-1.61,10.57-6.62,8.19-11.88-1.36-3.02-5.42-3.28-8.35-3.44-.35-.02-.62,.11-.83,.4l-2.73,3.87c-.21,.29-.49,.37-.82,.23-3.49-1.47-6.08-.53-7.78,2.8-.33,.65-.77,.74-1.32,.28-4.99-4.09-8.29,.64-11.33,4.31-.19,.23-.54,.25-.77,.06-.01,0-.02-.02-.03-.03-5.68-5.64-7.45-2.11-10.02,3.07-.21,.41-.45,.43-.72,.07-1.47-1.91-2.34-5.83-5.05-6.05-1.98-.16-3.84,1.93-5.55,3.05-.29,.19-.67,.11-.86-.18,0,0,0,0,0,0-.79-1.21-1.62-2.4-2.48-3.55-3.12-4.2-5.27-2.03-8.86-.45-.27,.12-.59,0-.71-.27-1.67-3.64-4.33-4.66-7.99-3.07-.36,.16-.62,.06-.77-.31-2.64-6.48-12.98-5.13-12.32,2.78,.13,1.49,.88,2.87,2.27,4.14,1.87,1.72,3.98,3.19,6.32,4.4,.17,.09,.38,.02,.47-.15,.01-.03,.02-.06,.03-.09l1.46-7.4c.04-.21,.25-.35,.46-.3,.17,.04,.3,.19,.32,.37,.23,6.03,1.29,12.41,7.15,15.69,.45,.25,.66,.12,.64-.39-.15-4.06,.23-8.07,1.15-12.03,.04-.16,.12-.23,.23-.22h0s.02,.08,.03,.23l.85,9.66c.02,.27,.17,.52,.39,.68,3.12,2.22,6.59,3.23,10.42,3.04,.41-.03,.58-.24,.51-.65-.53-3.09-.48-6.16,.17-9.23,.03-.1,.09-.15,.19-.15h.26s.06,.07,.05,.18Zm11.59,49.21l-.64-7.88c-.08-.97-.58-1.6-1.49-1.91l-4.09-1.37c-.67-.22-1.4,.14-1.62,.81-.04,.11-.06,.23-.06,.35l-.25,5.45c0,.07-.03,.1-.1,.1h-.52c-.1-.02-.15-.07-.16-.17l-.45-6.13c-.02-.35-.17-.62-.45-.82-1.99-1.44-4.22-2.17-6.69-2.2-.4,0-.61,.2-.64,.59l-.48,6.42c-.02,.22-.07,.33-.14,.33h0c-.16,0-.25-.11-.26-.32l-.26-6.04c-.05-1.23-.64-2.09-1.76-2.58l-4.09-1.81c-1.15-.51-1.75-.13-1.8,1.12l-.2,4.58c-.03,.68-.18,.71-.46,.08-.64-1.46-.45-4.9-.34-5.95,.07-.66-.19-1.14-.78-1.45l-5.9-3.13c-.75-.4-1.08-.18-.99,.66,.52,5.01,1.57,9.91,3.14,14.69,.3,.91,1.28,1.4,2.19,1.1,.48-.16,.86-.51,1.05-.98,.44-1.07,1.1-1.94,1.99-2.62,.23-.17,.55-.13,.73,.1,.05,.07,.09,.15,.1,.24,.57,3.79,2.17,7.04,4.82,9.75,.33,.34,.64,.32,.92-.06,.98-1.32,1.52-2.8,1.63-4.43,.02-.27,.25-.47,.52-.46,.17,.01,.32,.11,.4,.26l3.94,7.26c.3,.56,.99,.76,1.54,.47,.2-.11,.36-.27,.47-.47,.85-1.55,1.28-3.2,1.3-4.95,0-.24,.21-.44,.45-.43,.1,0,.2,.04,.28,.11l8.41,7.65c.28,.25,.58,.28,.9,.07,3.38-2.16,6.36-4.79,8.93-7.9,.13-.17,.38-.19,.55-.05,.07,.06,.12,.14,.14,.22l1.12,5.02c.17,.74,.9,1.2,1.64,1.04,.4-.09,.73-.35,.91-.72l3.64-7.27c.14-.3,.5-.42,.8-.28,.2,.1,.33,.3,.34,.53,.05,1.59,.57,2.99,1.54,4.2,.22,.27,.47,.3,.76,.1,3.28-2.29,4.05-6.17,5.21-9.79,.09-.28,.39-.43,.66-.35,.11,.03,.2,.1,.27,.2l2.12,2.98c.17,.25,.41,.39,.72,.4,1.08,.05,1.79-.54,2.12-1.75,1.19-4.39,1.96-8.6,2.29-12.63,.09-1.12-.38-1.48-1.42-1.07l-3.57,1.38c-.99,.38-1.67,1.3-1.74,2.35l-.43,6.12c0,.15-.13,.27-.27,.26s-.27-.13-.26-.27l-.29-5.75c-.01-.27-.15-.38-.42-.34-2.45,.39-4.63,1.36-6.54,2.93-.33,.27-.5,.61-.52,1.04l-.29,7.2s0,.01,0,.01h0l-.25-.02c-.09-.01-.13-.04-.13-.07,.17-2.47-.12-4.88-.87-7.23-.13-.39-.54-.6-.93-.47l-5.84,1.96c-.24,.08-.41,.29-.44,.54l-.82,6.97c0,.22-.19,.38-.4,.38s-.38-.19-.38-.4l-.13-4.83c-.04-1.56-.8-2.09-2.28-1.58l-2.99,1.02c-1.41,.49-2.13,1.48-2.16,2.97-.05,2.34-.17,4.65-.38,6.93-.05,.55-.09,.55-.14,0Z"/>
  <path class="cls-1" d="M280.45,272.79c9.11-6.66,18.75-12.47,28.9-17.43,1.67-.82,3.46-1.3,5.37-1.43,8.25-.58,16.54-1.09,24.89-1.53,.45-.03,.59,.17,.41,.59-1.61,3.74-3.72,7.17-6.35,10.3-.23,.28-.26,.68-.06,.98,4.6,7.08,7.46,14.73,8.57,22.95,.21,1.54-.34,2.27-1.62,2.95-14.91,7.96-31.96,5.28-47.44,.64-.81-.25-1.53-.09-2.16,.47l-.39,.33c-.26,.23-.28,.62-.05,.88,.08,.09,.18,.15,.29,.18,7.87,2.32,15.97,4.05,24.28,5.19,8.58,1.17,16.52,.22,23.82-2.87,.05-.01,.1,.01,.11,.06,.01,.03,0,.07-.02,.09-12.32,9.88-38.52,4.31-52.63,1.07-.35-.08-.61-.27-.79-.58-7.59-13.04-14.44-23.62-13.99-39.12,.02-.5,.28-.75,.77-.76l3.53-.07c.5,0,.72,.24,.66,.73-.73,5.79,.35,11.21,3.22,16.24,.17,.3,.4,.35,.68,.14Z"/>
  <path class="cls-1" d="M307.32,254.59l-22,12.77s-.08,0-.12-.05h0c-.05-.08-.04-.15,.03-.21,4.72-3.65,9.48-7.26,14.27-10.82,2.63-1.94,4.69-1.93,7.76-1.91,.29,0,.31,.07,.06,.22Z"/>
  <path class="cls-1" d="M246.79,255.48l16.91,.45c.6,.02,1.09,.48,1.15,1.08,.57,5.99-.62,11.65-3.57,16.98-4.07,7.35-8.48,14.47-13.23,21.37-.21,.3-.49,.5-.84,.59-11.67,2.89-23.37,4.39-35.1,4.49-5.34,.04-10.77-1.45-16.29-4.47-.01,0-.02,0,0-.02l.13-.27c.05-.13,.15-.16,.28-.11,9.42,3.61,19.04,4.19,28.87,1.73,6.05-1.51,12.08-2.92,18.1-4.21,.44-.09,.72-.52,.62-.96-.01-.05-.02-.09-.04-.14l-.11-.27c-.28-.68-1-1.07-1.72-.92-11.13,2.18-18.17,3.51-21.11,4-10.25,1.71-19.81-.33-28.69-6.11-.28-.19-.4-.44-.36-.77,1.02-8.44,3.89-16.19,8.61-23.25,.16-.25,.17-.5,.02-.75l-1.03-1.73c-.09-.17-.03-.37,.14-.46,.12-.07,.28-.05,.38,.04,5.99,5.49,11.21,10.11,15.67,13.84,7.23,6.05,14.07,6.07,24.28,4.81,8.27-1.03,20.13-8.75,16.48-18.49-1.35-3.57-6.22-5.21-9.59-6.11-.95-.25-.94-.37,.05-.34Z"/>
  <path class="cls-1" d="M267.25,302.83c.22-1.78,.13-2.81,.93-4.48,2.46-5.11,2.86-10.36,1.21-15.75-.13-.44,.12-.89,.56-1.02,.26-.08,.54-.02,.75,.16,1.76,1.48,2.08,2.56,2.26,5.03,.44,6.16,2.87,10.5,7.98,14.16,2.32,1.67,5.41,3.48,6.84,5.63,2.3,3.44,.74,7.33-3.34,8.39-1.99,.51-3.99,.85-5.98,1-.24,.02-.42,.24-.4,.48,0,.08,.04,.16,.09,.23,.79,1.06,1.78,1.89,2.96,2.5,.05,.03,.07,.09,.05,.16h0c-.03,.1-.06,.15-.09,.14-6.05-1.42-10.1-5.05-12.13-10.89-.11-.31-.4-.51-.73-.52l-2.45-.02c-.42,0-.7,.19-.84,.59-1.58,4.68-4.51,7.93-8.78,9.76-1.41,.6-1.7,.26-.86-1.03l.51-.78c.28-.43,.16-.66-.35-.69-4.27-.21-11.74-1.05-9.99-7.57,.93-3.47,5.32-5.77,8.45-7.84,5.37-3.53,6.64-9.81,7.47-16.45,.09-.78,.58-1.47,1.29-1.82l.91-.45c.71-.35,.99-.13,.82,.64-.92,4.2-1.52,11.81,1.41,15.78,.23,.31,.37,.66,.42,1.05l.5,3.61c.03,.15,.17,.24,.32,.21,.11-.02,.19-.11,.21-.21Z"/>
  <path class="cls-1" d="M96.58,345.33c-4.03-7.87-7.29-16.48-9.88-24.96-.12-.38,0-.64,.39-.77l12.55-4.38c.37-.13,.61,0,.72,.36,2.48,7.85,5.53,15.47,9.14,22.86,.18,.36,.09,.63-.26,.82l-11.91,6.31c-.33,.17-.58,.09-.75-.24Z"/>
  <path class="cls-1" d="M406.15,400.36c-.32,.35-.86,.38-1.21,.07l-6.34-5.67c-2.27-2.03-3.8-4.03-3.4-4.47,0,0,0,0,0,0l14.91-16.68c.39-.43,2.55,.86,4.82,2.89l6.34,5.66c.36,.31,.39,.86,.08,1.21,0,0,0,0,0,0l-15.19,16.98Z"/>
  <path class="cls-1" d="M377.36,422.65l-20.29,11.39c-.32,.18-.72,.07-.9-.24,0-.01-.01-.02-.02-.04l-6.04-12.21c-.16-.32-.04-.71,.27-.88l18.68-10.31c.3-.16,.67-.08,.86,.2l7.66,11.14c.21,.3,.13,.71-.17,.92-.02,.01-.03,.02-.05,.03Z"/>
</svg>