<?xml version="1.0" encoding="UTF-8"?>
<svg id="Capa_2" data-name="Capa 2" xmlns="http://www.w3.org/2000/svg" viewBox="0 0 538.93 537.9">
  <defs>
    <style>
      .cls-1 {
        fill: #fff;
      }

      .cls-2 {
        fill: #030203;
      }

      .cls-3 {
        fill: #151414;
      }

      .cls-4 {
        fill: none;
      }
    </style>
  </defs>
  <g>
    <path class="cls-4" d="M538.93,268.95C538.93,120.43,418.5,0,269.98,0S1.03,120.43,1.03,268.95s120.43,268.95,268.95,268.95,268.95-120.43,268.95-268.95" vector-effect="non-scaling-stroke"/>
    <path class="cls-4" d="M523.57,268.99c0-140.06-113.53-253.59-253.59-253.59h0C129.92,15.4,16.39,128.93,16.39,268.99h0c0,140.06,113.53,253.59,253.59,253.59h0c140.06,0,253.59-113.53,253.59-253.59h0" vector-effect="non-scaling-stroke"/>
    <path class="cls-4" d="M271.94,38.03l4.11,22.71c.48,2.75,3.11,4.59,5.91,4.07,1.84-.32,3.35-1.68,3.91-3.43l7.22-21.91c.12-.36,.48-.44,1.12-.24h0c.36,.12,.48,.36,.36,.8-1.72,7.78-2.35,15.68-1.96,23.7,.08,1.6,.92,2.35,2.51,2.27l1.48-.08c2.15-.12,3.87-1.84,3.99-3.95l2.23-31.8c.32-3.83-2.55-7.22-6.38-7.54-3.23-.28-6.22,1.72-7.22,4.83l-6.3,18.75c-.24,.8-1.08,1.24-1.84,.96-.56-.2-1-.68-1.08-1.28l-2.23-18.99c-.36-3.83-3.75-6.66-7.58-6.3-3.43,.32-6.15,3.11-6.34,6.54l-2.83,33.84c-.12,1.28,.44,2,1.72,2.15l3.83,.52c1.96,.28,2.99-.6,3.11-2.59l1.32-22.98c0-.28,.2-.48,.48-.52,.28,0,.48,.2,.48,.48" vector-effect="non-scaling-stroke"/>
    <path class="cls-4" d="M244.12,46.25c7.26-5.59,7.38-12.13,.32-19.63-.84-.88-2.04-1.32-3.23-1.2l-24.62,2.79c-1.64,.2-2.27,1.08-2,2.67l6.26,36.15c.32,1.76,1.36,2.43,3.07,2l3.71-.92c1.56-.36,2.19-1.36,1.88-2.95l-2.31-11.25c-.4-1.92,.84-3.79,2.75-4.19,1.16-.24,2.35,.12,3.23,.92l11.77,11.41c1.96,1.88,4.23,2.59,6.9,2.15l1.8-.28c3.15-.52,3.59-1.92,1.32-4.15l-11.01-10.97c-.92-.92-.88-1.76,.16-2.55" vector-effect="non-scaling-stroke"/>
    <path class="cls-4" d="M333.23,67.4c-.32,5.03,2.27,7.9,7.74,8.66,1.64,.24,2.31-.44,2.11-2.07l-4.87-38.11c-.4-3.23-3.31-5.55-6.58-5.15-1.64,.2-3.11,1.08-4.07,2.39l-21.51,29.81c-1.4,1.92-.96,3.19,1.28,3.83l3.15,.96c2.59,.76,4.15-.2,4.67-2.87,.92-4.95,6.3-5.15,16.16-.64,1.4,.64,2.04,1.72,1.92,3.19" vector-effect="non-scaling-stroke"/>
    <path class="cls-4" d="M188.54,70.43l11.77-4.31c1.28-.48,2.71,0,3.47,1.12l2.67,3.75c.96,1.36,2.75,1.84,4.23,1.12l3.47-1.64c1.12-.56,1.56-1.88,1.04-2.99-.08-.2-.2-.36-.36-.52l-25.1-27.45c-2.35-2.55-6.3-2.71-8.86-.4-1.28,1.16-2,2.83-2,4.59l-.12,38.19c0,1.44,.72,2.04,2.11,1.76,5.67-1.08,7.74-4.55,6.19-10.34-.32-1.2,.32-2.43,1.48-2.87" vector-effect="non-scaling-stroke"/>
    <path class="cls-4" d="M386.02,70.39l-10.26,19.31c-.68,1.24-.24,2.79,.96,3.55l3.39,2.04c.68,.44,1.6,.24,2.04-.48,0-.04,.04-.08,.08-.12l15.84-30.73c1.68-3.35,.32-7.46-3.03-9.18-2.75-1.4-6.07-.76-8.14,1.56l-13.65,15.52c-.44,.48-1.16,.52-1.64,.12-.32-.28-.48-.72-.36-1.16l4.51-18.87c.96-3.83-1.36-7.7-5.19-8.66-3.27-.8-6.62,.76-8.14,3.75l-14.13,27.81c-.88,1.72-.36,3.83,1.2,4.99l.92,.68c2.35,1.68,4.11,1.24,5.35-1.36l9.3-19.67c.16-.4,.6-.6,.96-.44,.4,.16,.6,.6,.48,.96l-5.23,22.07c-.68,2.91,1.12,5.83,4.03,6.54,2.23,.52,4.55-.4,5.79-2.31,4.03-6.11,8.58-11.77,13.57-16.92,2.83-2.91,3.27-2.55,1.36,1" vector-effect="non-scaling-stroke"/>
    <path class="cls-4" d="M152.55,87.75c-.16,4.87-2.43,8.18-6.82,9.94-13.85,5.51-28.33-19.19-10.14-24.58,1.24-.36,2.47-.36,3.67,.08,3.47,1.24,6.15,.16,7.94-3.15,.72-1.36,.44-2.47-.8-3.39-3.99-2.91-8.42-3.39-13.25-1.36-38.59,16.32,8.82,67.72,28.53,24.7,.56-1.24,.48-2.39-.24-3.51l-6.98-11.01c-.68-1.12-2.15-1.44-3.23-.76-.08,.04-.16,.12-.24,.16l-10.3,8.02c-1.56,1.24-1.76,2.63-.6,4.23l.8,1.08c.96,1.32,2.79,1.6,4.11,.68,.04,0,.08-.08,.12-.12l3.47-2.91c2.75-2.23,4.07-1.6,3.95,1.92" vector-effect="non-scaling-stroke"/>
    <path class="cls-4" d="M469.82,268.99c0-110.37-89.46-199.84-199.84-199.84S70.14,158.62,70.14,268.99s89.46,199.84,199.84,199.84,199.84-89.46,199.84-199.84" vector-effect="non-scaling-stroke"/>
    <path class="cls-4" d="M403.98,93.93c1-1.08,2.08-1.2,3.23-.28l12.61,9.7c1.6,1.24,3.87,.96,5.11-.64s.96-3.87-.64-5.11l-11.97-9.38c-1.64-1.28-1.92-2.83-.92-4.67l.52-.92c1.4-2.59,3.27-2.95,5.55-1.08l12.37,10.22c1.56,1.24,2.91,1.08,4.07-.52l1.04-1.4c.88-1.24,.68-2.95-.52-3.91l-16.84-13.49c-3.27-2.63-6.19-2.27-8.78,1.04l-17.16,22.03c-2.71,3.47-2.31,6.54,1.2,9.22l17.8,13.65c1.12,.84,2.67,.64,3.51-.48,.12-.16,.24-.32,.32-.52l.48-1.04c.88-2.04,.44-3.67-1.32-4.99l-13.33-10.02c-1.2-.92-1.28-1.96-.28-3.07l3.95-4.35" vector-effect="non-scaling-stroke"/>
    <path class="cls-4" d="M106.98,113.84c-.92,0-1.64-.76-1.64-1.64v-.32c1.24-6.26-.64-13.29-8.22-13.25-11.57,.08-20.15,17.96-3.83,21.35,1.48,.32,2.11,1.24,1.84,2.75-.92,5.07,.36,9.54,3.91,13.45,1.08,1.16,2.39,1.84,4.03,1.96,9.86,.68,16.12-3.91,18.75-13.69,.28-1.12,1-1.88,2.07-2.23l4.27-1.56c2.11-.8,3.19-3.15,2.43-5.27-.64-1.8-2.47-2.87-4.35-2.63l-2.87,.36c-1.32,.2-2.27-.36-2.79-1.6l-2.04-4.67c-.6-1.32-2.15-1.92-3.47-1.36-.72,.32-1.28,.96-1.48,1.72l-1.28,4.75c-.36,1.28-1.2,1.92-2.51,1.92h-2.87" vector-effect="non-scaling-stroke"/>
    <path class="cls-4" d="M439.93,117.72l-7.7,23.02c-.96,2.91,.6,6.07,3.51,7.02,1.88,.64,3.95,.2,5.43-1.12l25.02-21.99c1.44-1.28,1.52-2.63,.2-4.07l-1.6-1.68c-1.04-1.12-2.75-1.24-3.91-.24l-14.92,12.81c-1.4,1.16-1.92,.88-1.52-.92,1.4-6.42,3.35-12.65,5.95-18.67,2.27-5.23,1.64-9.18-1.88-11.89-1.16-.92-2.31-.92-3.47,.08l-27.01,23.46c-1.36,1.16-1.44,2.43-.28,3.79l1.72,1.96c1.32,1.52,2.75,1.6,4.27,.24l14.52-12.89c.44-.36,1.08-.32,1.48,.12,.24,.28,.32,.64,.2,.96" vector-effect="non-scaling-stroke"/>
    <path class="cls-4" d="M84.83,149.68c.52-1.32,2-2,3.31-1.48,.8,.32,1.36,.96,1.56,1.8,.92,3.51,.48,6.78-1.4,9.86-8.98,14.8-35.87-5.71-20.23-16.84,1-.68,2.07-1.08,3.23-1.28,3.87-.6,6.07-2.91,6.66-6.94,.12-1.08-.6-2.04-1.64-2.19h-.12c-18.63-1.24-27.05,22.63-14.21,34.12,18.08,16.16,37.83,1.76,36.99-19.67-.04-1.36-.68-2.39-1.84-3.07l-10.14-6.03c-1.28-.76-2.91-.4-3.71,.88l-7.18,11.61c-.52,.84-.28,1.88,.52,2.43l3.79,2.43c.72,.48,1.72,.32,2.23-.4,.08-.12,.12-.24,.16-.36l2-4.87" vector-effect="non-scaling-stroke"/>
    <path class="cls-4" d="M474.01,145.77c.56,.72,.4,1.76-.32,2.27-.04,0-.12,.08-.16,.12l-25.78,15.2c-.72,.44-1,1.36-.64,2.11l2.51,5.31c.4,.8,1.36,1.16,2.19,.76,.08,0,.12-.08,.16-.08l26.02-16.04c.8-.48,1.8-.2,2.23,.56v.08l3.99,7.54c.44,.8,1.44,1.12,2.19,.68h.08l3.83-2.15c.8-.44,1.08-1.44,.64-2.23v-.04l-15-25.14c-.44-.72-1.36-1-2.11-.64l-4.51,2.11c-.8,.4-1.16,1.4-.76,2.19,.04,.08,.08,.16,.16,.24l5.27,7.18" vector-effect="non-scaling-stroke"/>
    <path class="cls-4" d="M52.19,248.92c-.68,.04-1.32-.4-1.52-1.08l-3.51-13.29c-.2-.8-1-1.28-1.8-1.08-.56,.12-.96,.56-1.08,1.08l-3.51,13.29c-.2,.68-.84,1.12-1.52,1.08l-13.69-.76c-.8-.08-1.52,.56-1.6,1.36-.04,.56,.2,1.08,.68,1.36l11.57,7.46c.56,.4,.8,1.12,.56,1.76l-4.95,12.81c-.28,.76,.08,1.6,.84,1.92,.48,.2,1.08,.12,1.48-.24l10.65-8.66c.52-.44,1.32-.44,1.84,0l10.65,8.66c.64,.52,1.56,.44,2.07-.2,.36-.4,.44-.96,.24-1.48l-4.95-12.81c-.24-.64,0-1.36,.56-1.76l11.57-7.46c.68-.44,.88-1.36,.44-2.04-.28-.44-.8-.72-1.36-.68l-13.69,.76" vector-effect="non-scaling-stroke"/>
    <path class="cls-4" d="M500.82,248.72c-.6,0-1.12-.36-1.28-.92l-3.87-13.77c-.16-.68-.88-1.08-1.56-.92-.44,.12-.8,.48-.92,.92l-3.83,13.77c-.16,.6-.68,.96-1.28,.96l-14.25-.6c-.72-.04-1.32,.48-1.36,1.2,0,.48,.2,.92,.6,1.16l11.89,7.9c.48,.32,.68,.96,.48,1.52l-4.95,13.37c-.28,.64,0,1.4,.68,1.68,.44,.2,.96,.12,1.32-.2l11.21-8.9c.44-.36,1.12-.36,1.56,0l11.21,8.86c.56,.44,1.36,.4,1.8-.16,.32-.36,.4-.88,.2-1.32l-4.99-13.37c-.2-.56,0-1.2,.48-1.52l11.89-7.94c.56-.4,.72-1.2,.28-1.8-.24-.32-.64-.52-1.04-.52l-14.29,.6" vector-effect="non-scaling-stroke"/>
    <path class="cls-4" d="M459.4,365.44c.24-.88,1.16-1.36,2.04-1.12,.08,0,.12,.04,.2,.08l27.17,12.41c.64,.32,1.44,.16,1.92-.4l3.71-4.23c.6-.68,.52-1.72-.16-2.31-.12-.12-.24-.2-.4-.24l-28.53-13.09c-.84-.36-1.2-1.32-.84-2.15,0-.04,.04-.12,.08-.16l3.99-6.9c.44-.76,.2-1.72-.52-2.19l-4.11-2.67c-.76-.48-1.76-.28-2.27,.48-.04,.08-.08,.16-.12,.24l-12.01,27.73c-.36,.84,0,1.8,.88,2.15,.04,0,.08,0,.12,.04l4.31,1.4c.88,.28,1.8-.2,2.08-1.04h0l2.47-7.98" vector-effect="non-scaling-stroke"/>
    <path class="cls-4" d="M63.4,382.2c-8.1-2.07-11.37-10.93-6.38-17.84,6.74-9.34,23.38-10.1,23.78,5.07,0,1.24-.32,2.31-1,3.31-2.04,2.87-1.2,5.39,2.51,7.54,1.24,.72,2.35,.52,3.35-.56,4.71-5.27,5.19-11.49,1.4-18.63-17.76-33.6-64.05,9.62-26.62,30.45,1.28,.68,2.59,.72,3.91,.12l10.81-5.11c1.2-.56,1.72-2.04,1.16-3.23l-5.79-11.97c-.52-1.08-1.36-1.52-2.51-1.36l-2.87,.36c-1.72,.2-2.27,1.12-1.68,2.75l2.31,6.42c.4,1.04-.16,2.23-1.2,2.59-.36,.12-.8,.16-1.2,.08" vector-effect="non-scaling-stroke"/>
    <path class="cls-4" d="M445.44,407.5l24.86,2.71c2.83,.32,5.35-1.76,5.67-4.59,.2-1.76-.56-3.51-1.96-4.59l-27.45-21.19c-.96-.76-2.39-.6-3.15,.4l-2.11,2.63c-1,1.28-.88,2.39,.44,3.39l16.36,12.25c.52,.4,.6,1.12,.24,1.64-.24,.32-.68,.52-1.08,.44l-24.9-3.15c-2.87-.36-5.51,1.68-5.91,4.55-.24,1.84,.52,3.67,2,4.83l26.78,21.03c1.24,.96,2.31,.84,3.27-.36l2.71-3.27c.84-1,.76-1.88-.28-2.63l-16.2-12.21c-2.04-1.56-1.8-2.15,.72-1.88" vector-effect="non-scaling-stroke"/>
    <path class="cls-4" d="M89.78,401.83c-20.99-7.62-23.06,18.95-5.19,26.42,1.24,.52,1.8,1.44,1.68,2.75l-.24,2.59c-.16,1.88,.68,2.87,2.55,2.99l4.07,.28c1.24,.08,2.31-.88,2.39-2.15v-.28l-.28-3.59c-.08-.88,.44-1.68,1.28-1.96l6.15-1.96c1.16-.36,1.8-1.6,1.44-2.75-.16-.56-.56-1-1.04-1.28l-5.11-2.87c-1.48-.84-1.88-2-1.28-3.55l.8-2.08c.56-1.36,2.04-2.08,3.43-1.64,5.95,1.84,9.94,.64,11.97-3.55,6.22-12.81-16.72-26.06-19.79-8.98-.2,1.16-1.32,1.92-2.47,1.72-.12,0-.24-.04-.36-.12" vector-effect="non-scaling-stroke"/>
    <path class="cls-4" d="M416.79,446.28c-.52-.68-.4-1.64,.24-2.19l13.13-11.57c.68-.6,.76-1.64,.16-2.31l-.16-.16-3.31-2.87c-.64-.56-1.6-.52-2.19,0l-12.85,11.85c-.64,.64-1.68,.6-2.31-.08,0,0-.04-.08-.08-.08l-3.35-4.23c-.56-.68-.44-1.72,.24-2.27l14.45-11.97c.68-.56,.76-1.56,.24-2.23l-2.71-3.55c-.56-.72-1.6-.84-2.31-.28l-.04,.04-20.75,17.8c-.68,.6-.8,1.6-.2,2.31h0l24.98,28.45c.6,.68,1.64,.76,2.31,.16h0l21.91-18.95c.68-.6,.76-1.64,.16-2.31l-.08-.08-3.23-3.15c-.64-.64-1.64-.64-2.27,0l-15.12,13.69c-.68,.6-1.72,.56-2.31-.12,0,0-.04-.08-.08-.08l-4.43-5.79" vector-effect="non-scaling-stroke"/>
    <path class="cls-4" d="M129.96,460.77c-13.21-3.27-15-15.6-5.43-24.18,8.54-7.66,18.52-2.08,18.6,9.06,0,2.35,1.92,4.23,4.27,4.19,1.68,0,3.15-1,3.83-2.51,1.96-4.51,.72-9.1-3.71-13.77-24.94-26.06-54.75,16.8-25.42,32.72,10.73,5.87,18.04,2.87,21.87-8.98,.4-1.2,.12-2.19-.84-3.03l-8.9-7.7c-1.12-.96-2.75-.88-3.79,.16l-2.31,2.43c-.72,.76-.68,1.92,.08,2.67,.2,.2,.48,.36,.72,.44,3.47,1.08,4.79,3.31,4.03,6.66-.32,1.32-1.64,2.15-2.99,1.84h0" vector-effect="non-scaling-stroke"/>
    <path class="cls-4" d="M365.63,468.83l16.44,16.24c2.04,1.96,5.31,1.96,7.26-.08,1.32-1.32,1.8-3.27,1.24-5.07l-6.66-21.35c-1.28-4.19-.8-4.39,1.4-.6l11.93,20.47c.6,1,1.36,1.2,2.31,.6l4.19-2.51c.84-.52,1.12-1.6,.6-2.47l-19.75-32.92c-.36-.6-.8-.72-1.36-.36l-9.54,5.95c-.56,.36-.72,.88-.52,1.48l6.98,21.79c.92,2.83,.28,3.19-1.84,1.08l-15-14.8c-1.4-1.4-2.99-1.64-4.75-.64l-5.79,3.27c-1.64,.96-2.23,3.03-1.28,4.63,0,0,0,.08,.04,.12l18.67,30.33c.68,1.08,2.08,1.44,3.15,.84l3.03-1.72c1.32-.76,1.6-1.76,.8-3.07l-12.53-20.43c-1.8-2.87-1.48-3.11,.96-.76" vector-effect="non-scaling-stroke"/>
    <path class="cls-4" d="M184.91,492.45c-1.32,6.19,1.12,9.82,7.3,10.97,1.4,.28,2.07-.32,2.07-1.72v-38.71c.04-3.39-2.71-6.15-6.11-6.15-1.68,0-3.31,.68-4.47,1.92l-26.3,27.69c-.76,.8-.72,2.11,.12,2.91,.16,.16,.36,.28,.56,.36l3.87,1.72c1.56,.68,2.91,.36,3.99-1l2.99-3.71c.92-1.16,2.07-1.48,3.47-1l10.85,3.79c1.2,.4,1.92,1.68,1.64,2.91" vector-effect="non-scaling-stroke"/>
    <path class="cls-4" d="M326.68,500.55c7.3-6.42,14.13-5.95,20.43,1.44,.68,.76,1.44,.96,2.35,.52l1.96-.92c2.35-1.12,2.75-2.71,1.16-4.79l-21.95-28.61c-2.08-2.71-5.99-3.19-8.66-1.12-1.36,1.04-2.23,2.59-2.39,4.31l-3.59,38.27c-.16,1.56,.52,2.19,2.08,2,5.47-.8,7.98-3.59,7.54-8.34-.12-1.12,.24-2.04,1.08-2.75" vector-effect="non-scaling-stroke"/>
    <path class="cls-4" d="M239.73,494.29c11.81-3.19,10.85-18.44-.96-21.87-6.5-1.88-13.17-3.23-20.07-3.99-1.16-.12-1.88,.4-2.07,1.56l-6.94,35.91c-.24,1.12,.52,2.23,1.64,2.47h.12l4.31,.64c1.68,.24,2.63-.48,2.83-2.15l1.48-11.17c.24-1.96,2.04-3.31,3.99-3.07,1.16,.16,2.19,.88,2.71,1.96l8.42,16.92c.36,.72,1,1.28,1.8,1.56l6.07,2.15c1.88,.68,2.47,.08,1.72-1.8l-6.38-16.44c-.56-1.4-.12-2.27,1.36-2.67" vector-effect="non-scaling-stroke"/>
    <path class="cls-4" d="M292.01,488.94l.56,23.94c0,1.32,.72,2,2.08,1.96l3.79-.12c1.72-.04,2.51-.96,2.43-2.67l-1.64-36.15c-.08-1.72-.96-2.51-2.67-2.43l-7.66,.28c-1.88,.08-2.95,1.04-3.27,2.91l-3.39,20.15c-.08,.72-.72,1.2-1.4,1.16-.56-.04-1-.44-1.12-1l-6.11-20.47c-.52-1.76-1.68-2.55-3.47-2.43l-8.26,.6c-1.08,.08-1.92,1-1.88,2.08l1,36.35c.04,1.88,1.04,2.79,2.91,2.75h3.51c1.8-.08,2.59-.96,2.47-2.75l-1.56-22.19v-.64l1.08-.12c.28,0,.44,.08,.52,.36l6.19,21.91c.76,2.87,3.67,4.55,6.54,3.79,2.19-.6,3.75-2.47,3.95-4.71,.76-7.7,2.19-15.28,4.27-22.67,.68-2.39,1.04-2.35,1.08,.12" vector-effect="non-scaling-stroke"/>
    <path class="cls-4" d="M239.77,35.19c-.2-1.44-1.52-2.47-2.95-2.27h0l-10.3,1.32c-1.44,.2-2.47,1.52-2.27,2.95h0l.56,4.27c.2,1.44,1.52,2.47,2.95,2.27h0l10.3-1.32c1.44-.2,2.47-1.52,2.27-2.95h0l-.56-4.27" vector-effect="non-scaling-stroke"/>
    <path class="cls-4" d="M329.56,44.29l-5.83,7.58c-1.04,1.36-.72,2.23,.96,2.67l5.59,1.36c.88,.24,1.76-.32,2-1.2,.04-.16,.04-.36,.04-.52l-.88-9.38c-.16-1.76-.8-1.92-1.88-.52" vector-effect="non-scaling-stroke"/>
    <path class="cls-4" d="M194.4,57.54l-5.75-7.3c-1.32-1.64-1.92-1.44-1.84,.68l.24,9.38c.04,1.56,.84,2.23,2.39,2l3.27-.48c2.99-.44,3.55-1.88,1.68-4.27" vector-effect="non-scaling-stroke"/>
    <path class="cls-4" d="M148.4,266.28c-.64,2.11-1.92,2.67-3.87,1.6-19.23-10.53-27.77-7.54-34.32,13.29-3.07,9.78-6.94,19.39-11.53,28.85-.64,1.32-.44,2.91,.52,4.07l8.18,9.62c.88,1.04,1.44,2.23,1.68,3.59,6.03,34.12,25.42,58.62,58.14,73.42,25.14,11.37,45.65,19.87,61.49,25.46,10.93,3.87,23.02,12.73,36.23,26.58,.96,1,2.47,1.04,3.47,.16,12.09-10.65,25.22-19.83,39.31-27.49,15.16-8.22,35.31-13.25,52.83-20.95,30.21-13.29,62.73-42.38,62.73-78.13,0-1.44,.68-2.35,2.04-2.79,9.3-3.07,14.72-10.22,7.82-19.95-4.55-6.42-7.74-14.76-9.54-25.02-3.79-21.59-19.71-23.38-33.04-7.9-.72,.8-1.92,.88-2.71,.16-.28-.24-.48-.56-.56-.88-11.37-40.62-6.58-78.85,14.37-114.72,.84-1.48,.68-2.83-.48-4.07l-32.48-34.44c-.92-1-2.19-1.56-3.51-1.56H176.09c-1.24,0-2.27,.44-3.15,1.36l-32.44,33.76c-.88,.92-1.08,2.27-.56,3.39,17.36,36.35,20.15,73.9,8.46,112.61" vector-effect="non-scaling-stroke"/>
    <path class="cls-4" d="M98.68,110.49c.84-1.64,.04-3.71-1.8-4.67-1.84-.96-4.03-.44-4.87,1.2s-.04,3.71,1.8,4.67c1.84,.96,4.03,.44,4.87-1.2" vector-effect="non-scaling-stroke"/>
    <path class="cls-4" d="M113,121.79l-9.14-.92c-.64-.08-1.24,.4-1.32,1.08h0l-.08,.84c-.4,3.87,1.68,7.26,4.59,7.54l.96,.12c2.91,.28,5.59-2.63,5.99-6.5h0l.08-.84c.08-.64-.4-1.24-1.08-1.32h0" vector-effect="non-scaling-stroke"/>
    <path class="cls-4" d="M138.14,269.39c-7.22-5.39-13.77-5.23-19.63,.4-2.04,1.96-2.83,4.07-2.35,6.38,.44,2.04,1.16,2.11,2.19,.32,4.35-7.78,10.93-10.18,19.79-7.1" vector-effect="non-scaling-stroke"/>
    <path class="cls-4" d="M138.14,269.39c6.62,8.02,9.86,14.68,9.74,20.03-1.04,38.71,27.73,64.36,59.1,75.66,23.42,8.42,42.9,18.63,58.46,30.73,1.08,.84,2.11,.8,3.11-.12,41.3-36.27,115.56-27.97,119.07-98.36,.36-6.82,1.28-11.85,2.79-15.16,4.23-9.18,12.41-17.64,23.18-12.21,1,.52,1.72,1.28,2.11,2.35,2.87,7.9,.96,14.88-5.75,20.99-1.28,1.2-3.27,1.08-4.47-.2-.52-.6-.84-1.36-.84-2.15,0-2.59-1.92-3.71-5.79-3.35" vector-effect="non-scaling-stroke"/>
    <path class="cls-4" d="M398.87,287.58c.44-3.39,1.76-5.39,3.99-5.99,1.48-.36,2.39,.16,2.79,1.6l1.24,4.59c.24,.96,1.2,1.56,2.15,1.32,.56-.12,1-.52,1.24-1.04l3.83-8.34c1.32-2.91,.04-6.34-2.83-7.66-1.08-.48-2.27-.64-3.47-.44-12.41,2.27-15.92,13.21-16.68,25.42-3.39,54.19-49.16,67.88-94.01,84.52-9.06,3.35-18.75,9.7-29.09,19.03-.96,.88-2.39,.88-3.35,0-14.56-12.65-25.26-20.11-32.12-22.35-45.49-14.64-89.18-36.59-88.87-91.06,.04-6.9-3.75-12.33-11.45-16.32-1.2-.64-2.39-.64-3.55,0-4.63,2.43-7.86,6.07-9.74,10.97-.44,1.16,.16,2.43,1.32,2.87,.88,.32,1.88,.08,2.47-.64l6.38-7.46c.8-.96,2.19-1.08,3.15-.28l.08,.08c4.87,4.63,4.95,10.81,1.12,16.52-6.5,9.66-13.05,19.43-19.63,29.29-.68,1.04-1,2.19-.88,3.47,5.11,53.87,52.03,71.63,95.29,88.15,21.07,8.06,40.46,19.27,58.14,33.68,1.08,.92,2.15,.88,3.23,0,20.19-17.76,40.1-29.61,59.78-35.51,40.26-12.09,90.82-39.38,90.34-86.39,0-1.44-.48-2.87-1.36-4.03l-22.11-29.93c-.36-.52-.48-1.16-.32-1.72,.4-1.56,1.36-2.31,2.91-2.35" vector-effect="non-scaling-stroke"/>
    <path class="cls-4" d="M398.87,287.58l21.75,31.4c1.04,1.52,3.11,1.88,4.63,.84,0,0,.08-.04,.08-.08l6.3-4.79c1.68-1.28,2.11-3.59,1.04-5.39-5.67-9.38-10.18-19.91-13.57-31.64-.08-.32-.28-2.07-.6-5.23-.28-2.59-1.72-4.75-4.35-6.42-11.13-6.98-19.03,5.11-26.26,10.97-1.16,.96-2,.72-2.43-.72-13.53-42.62-9.58-83.04,11.93-121.31,.84-1.4,.68-2.71-.48-3.91l-30.13-31.28c-.92-.96-2.19-1.52-3.51-1.52H178.08c-1.72,0-3.15,.64-4.31,1.88l-29.21,30.89c-.84,.92-1,1.92-.48,3.07,10.06,21.59,15.08,44.33,15.04,68.24,0,11.37-3.11,28.81-9.3,52.23-.32,1.16-.96,1.4-1.96,.76l-9.74-6.19" vector-effect="non-scaling-stroke"/>
    <path class="cls-4" d="M116.75,281.36l-.24-2.31c-.08-.56-.6-.96-1.16-.88-.36,.04-.68,.32-.84,.64l-11.45,31.8c-.52,1.4-.24,2.67,.76,3.75l4.47,4.87c1.28,1.4,2.43,1.28,3.47-.28l14.56-21.59c1.12-1.64,.76-2.83-1.12-3.59-3.91-1.56-6.46-4.47-7.7-8.74-.44-1.52-.68-2.75-.76-3.67" vector-effect="non-scaling-stroke"/>
    <path class="cls-4" d="M125.49,289.06c.08,1.52,1.4,2.67,2.91,2.59,.8-.04,1.52-.44,2-1.04,1.6-2.04,2.27-4.31,2-6.82-.2-1.92-1.12-2.39-2.79-1.4-2.91,1.72-4.27,3.91-4.11,6.66" vector-effect="non-scaling-stroke"/>
    <path class="cls-4" d="M309.09,198.76c-5.11-13.29-12.41-25.74-21.91-37.35-10.02-12.25-8.26-16.52,3.35-25.38,.52-.4,.6-1.16,.2-1.68-.12-.12-.24-.24-.36-.32-13.85-7.86-24.34-4.79-31.4,9.22-.68,1.28-1.64,2.23-2.91,2.91-7.74,3.95-12.17,10.3-13.29,19.03-.16,1.32-.68,2.47-1.6,3.43-7.66,8.46-9.94,18.36-6.86,29.65,.24,1-.32,2-1.32,2.23-.56,.16-1.2,0-1.64-.36l-25.42-21.91c-1.04-.92-1.36-2-.92-3.31,5.71-17.88-18.4-32.6-30.01-37.47-2.47-1.04-3.07-.4-1.76,1.96l3.15,5.59c1,1.76,2.71,2.99,4.71,3.39,7.74,1.52,25.54,12.57,20.27,23.22-.68,1.44-1.68,1.68-2.99,.76-5.03-3.51-9.34-7.7-12.93-12.57-2.27-3.07-5.19-4.27-8.62-5.07-1.84-.44-2.43,.24-1.76,2,4.15,10.73,13.57,9.42,19.55,18.16,1.28,1.92,.8,4.47-1.12,5.75-1.12,.76-2.51,.92-3.75,.48-9.3-3.47-15.84-9.86-19.63-19.11-.6-1.48-1.64-2.43-3.11-2.95l-7.14-2.55c-1.8-.68-2.23-.16-1.24,1.52,2.91,4.91,9.94,12.17,21.03,21.75,7.3,6.34,14.13,7.1,20.43,2.27,1.08-.84,2.15-.84,3.23,.08l25.06,21.79c1,.88,1.4,1.96,1.2,3.27-2.91,18.71,3.83,31.88,20.31,39.54,1.8,.84,1.92,1.88,.4,3.15l-82,69.63c-1.28,1.08-1.56,2.39-.84,3.87l.6,1.32c.56,1.16,1.32,1.32,2.27,.48l84.52-72.23c3.47-2.99,4.71-2.23,3.79,2.23l-1.48,7.22c-.28,1.32-1.04,2.15-2.31,2.51-27.89,8.18-43.1,38.63-33.72,64.84,20.35,56.9,102.75,40.66,99.12-19.91-1.32-22.15-13.85-37.43-37.51-45.85-1.24-.44-1.96-1.36-2.11-2.67l-.6-4.99c-.24-2.04,1.24-3.87,3.27-4.11,1.04-.12,2.08,.2,2.87,.88l79.85,68.51c.64,.56,1.56,.48,2.11-.12l1.12-1.2c1.24-1.32,1.2-2.59-.2-3.75l-77.25-65.32c-.68-.56-.76-1.52-.2-2.19,.12-.12,.24-.24,.36-.32,15.16-9.94,21.71-24.1,19.59-42.42-.16-1.28,.36-2.55,1.36-3.39l23.86-19.99c1.08-.88,2.11-.88,3.15,0,14.05,11.93,35.71-14.48,41.38-24.14,.36-.64,.16-1.44-.44-1.8-.36-.24-.84-.24-1.24-.08l-6.34,2.91c-2.15,1-3.67,2.59-4.59,4.79-4.07,10.1-11.45,15.88-22.11,17.36-1.72,.24-3.31-.96-3.55-2.67-.12-.84,.12-1.72,.64-2.39,4.27-5.43,9.5-9.38,15.72-11.85,1.2-.48,2.11-1.32,2.75-2.47l2.87-5.19c.44-.8,.2-1.24-.68-1.36-5.35-.68-9.02,1.28-11.01,5.87-.56,1.28-1.36,2.35-2.43,3.23l-8.82,7.26c-1.44,1.2-3.51,1-4.71-.4-.76-.92-1-2.19-.6-3.31,4.03-11.25,11.93-18,23.74-20.27,.88-.16,1.56-.64,2-1.4l5.27-9.02c.2-.32,.08-.68-.24-.88-.2-.08-.4-.12-.6-.04-12.65,5.15-41.06,21.51-31.68,39.34,.36,.68,.24,1.24-.32,1.68l-24.78,20.95c-.48,.44-.84,.32-1.08-.28" vector-effect="non-scaling-stroke"/>
    <path class="cls-4" d="M207.53,229.29c-.36-.12-.64-.4-.76-.76l-8.02-23.94c-.2-.64-.88-.96-1.52-.76-.36,.12-.64,.4-.76,.76l-7.94,23.98c-.12,.36-.4,.64-.76,.76l-23.94,8.02c-.64,.2-.96,.88-.76,1.52,.12,.36,.4,.64,.76,.76l23.98,7.94c.36,.12,.64,.4,.76,.76l8.02,23.94c.2,.64,.88,.96,1.52,.76,.36-.12,.64-.4,.76-.76l7.94-23.98c.12-.36,.4-.64,.76-.76l23.94-8.02c.64-.2,.96-.88,.76-1.52-.12-.36-.4-.64-.76-.76l-23.98-7.94" vector-effect="non-scaling-stroke"/>
    <path class="cls-4" d="M351.78,229.37c-.36-.12-.64-.44-.76-.8l-7.94-23.74c-.2-.64-.92-1-1.56-.8-.36,.12-.68,.4-.8,.8l-7.82,23.78c-.12,.36-.44,.64-.8,.76l-23.74,7.94c-.64,.2-1,.92-.8,1.56,.12,.36,.4,.68,.8,.8l23.78,7.82c.36,.12,.64,.44,.76,.8l7.94,23.74c.2,.64,.92,1,1.56,.8,.36-.12,.68-.4,.8-.8l7.82-23.78c.12-.36,.44-.64,.8-.76l23.74-7.94c.64-.2,1-.92,.8-1.56-.12-.36-.4-.68-.8-.8l-23.78-7.82" vector-effect="non-scaling-stroke"/>
    <path class="cls-4" d="M280.64,135.15c-20.75-2.47-22.23,20.55-13.57,33.52,17.48,26.3,32.2,48.32,16.04,77.49-.76,1.4-.4,1.76,1.04,1.16,42.34-18.48,17.6-62.01-2.23-84.95-7.06-8.22-7.26-16.72-.52-25.46,.76-1,.52-1.6-.76-1.76" vector-effect="non-scaling-stroke"/>
    <path class="cls-4" d="M258.45,154.99c.08-.76,.08-1.56-.04-2.39-.28-1.88-1.2-2.23-2.71-1.08-18.63,14.17-1.28,36.51,7.26,50.64,8.66,14.25,11.77,29.37,9.34,45.29-.16,.8,.4,1.52,1.2,1.64,.52,.08,1.04-.12,1.36-.48,23.5-26.54,5.15-52.71-12.37-78.81-1.56-2.27-2.91-6.42-4.07-12.37-.08-.52-.08-1.32,.04-2.43" vector-effect="non-scaling-stroke"/>
    <path class="cls-4" d="M240.85,176.29c-5.15,9.1-3.95,24.46,2.35,31.84,8.54,10.02,16.36,20.75,23.5,32.2,1.08,1.72,1.68,1.56,1.84-.48,1.76-21.23-13.41-43.38-25.38-63.61-.8-1.32-1.56-1.32-2.31,.04" vector-effect="non-scaling-stroke"/>
    <path class="cls-4" d="M261.84,247.72c1.04,.6,2.39,.24,2.99-.8,.44-.76,.4-1.68-.12-2.39l-27.13-37.71c-1.48-2.07-2.59-1.88-3.27,.6-2.67,9.54-1.16,18.08,4.47,25.58,5.27,6.94,15.04,10.1,23.06,14.72" vector-effect="non-scaling-stroke"/>
    <path class="cls-4" d="M266.07,258.69c-.92-.28-1.84-.32-2.71-.12-.56,.16-.92,.76-.76,1.32,.12,.48,.56,.8,1.04,.8l11.57-.52c.48,0,.8-.44,.8-.88,0-.36-.24-.64-.6-.76-2.11-.68-4.23-.64-6.34,.08-1,.32-2,.36-2.99,.08" vector-effect="non-scaling-stroke"/>
    <path class="cls-4" d="M317.07,313.76c0-26.18-21.23-47.41-47.41-47.41h0c-26.18,0-47.41,21.23-47.41,47.41s21.23,47.41,47.41,47.41,47.41-21.23,47.41-47.41h0" vector-effect="non-scaling-stroke"/>
    <path class="cls-4" d="M196.96,235.51c-.16,.52-.2,1-.16,1.44,.12,1.08,.72,1.6,1.8,1.64l21.95,.44c.76,.08,1.4-.44,1.48-1.2,.08-.68-.4-1.32-1.04-1.48l-13.37-4.31c-1.4-.44-2.67-.2-3.79,.8-1.88,1.68-4.19,2.55-6.86,2.67" vector-effect="non-scaling-stroke"/>
    <path class="cls-4" d="M196.96,235.51l1.04-20.55c.12-2.27-.36-2.39-1.44-.44-3.11,5.71-5.03,11.05-5.75,16.08-.44,2.79,1.64,4.43,6.15,4.91" vector-effect="non-scaling-stroke"/>
    <path class="cls-4" d="M186.5,244.89c2.59,1.16,4.87,.6,6.74-1.68,.24-.28,.64-.72,1.16-1.24,.36-.32,.68-.72,1-1.2,1.16-1.68,.72-2.51-1.32-2.47h-19.11c-.68,0-1.24,.48-1.24,1.16,0,.56,.36,1.08,.88,1.2,4.39,1.44,7.58,2.31,11.89,4.23" vector-effect="non-scaling-stroke"/>
    <path class="cls-4" d="M197.48,241.5l-.16,19.63c-.08,.64,.4,1.2,1.04,1.28,.56,.08,1.12-.32,1.24-.88l4.75-13.69c.48-1.28,.12-2.75-.84-3.71l-3.67-3.63c-.56-.52-1.44-.52-1.96,.04-.24,.24-.36,.6-.4,.96" vector-effect="non-scaling-stroke"/>
    <path class="cls-4" d="M342.45,233.48v-18.63c0-.6-.52-1.04-1.12-1.04-.44,0-.8,.28-.96,.68l-4.99,13.53c-1.44,3.91,.56,8.18,4.43,9.62,.72,.24,1.44,.4,2.19,.44l22.47,1.16c2.47,.12,2.75-.6,.8-2.11-6.82-5.31-13.89-6.15-21.23-2.59-1.08,.52-1.6,.16-1.6-1.04" vector-effect="non-scaling-stroke"/>
    <path class="cls-4" d="M327.08,243.17c4.75,3.47,8.98,2.79,12.65-2.04,.6-.8,.44-1.92-.36-2.51-.32-.24-.68-.36-1.04-.36l-19.39-.12c-.72,0-1.28,.6-1.24,1.32,0,.56,.4,1.08,.96,1.2l5.47,1.2c1.08,.24,2.08,.68,2.95,1.32" vector-effect="non-scaling-stroke"/>
    <path class="cls-4" d="M345.88,257.02c3.83-6.26,3.43-11.85-1.24-16.68-.68-.72-1.8-.72-2.47-.08-.36,.32-.56,.8-.56,1.28l-.2,20.03c0,2,.64,2.27,2.04,.8,.44-.48,.8-1.04,1.04-1.72,.64-1.84,1.2-3.27,1.4-3.63" vector-effect="non-scaling-stroke"/>
    <path class="cls-4" d="M252.82,289.58l-.36,10.81c-.04,1.6,.72,2.39,2.27,2.43l6.98,.16c1.48,.04,2.23-.68,2.23-2.15v-27.37c0-1.72-.8-2.39-2.51-2.04-46.81,9.82-46.65,70.59-1.6,84.91,2.79,.88,4.19-.16,4.23-3.07l.32-39.03c0-2.51-1.28-3.79-3.79-3.75l-14.05,.16c-1.24,0-1.88,.6-1.92,1.84l-.4,7.74c-.08,1.68,.72,2.47,2.39,2.35l4.95-.32c1.4-.12,2.08,.52,2.08,1.92v7.62c.08,9.82-2.75,10.69-8.38,2.67-11.77-16.88-10.02-32.16,5.35-45.89,1.56-1.4,2.27-1.04,2.19,1" vector-effect="non-scaling-stroke"/>
    <path class="cls-4" d="M285.94,287.31c5.79,3.75,10.06,8.82,12.89,15.16,.2,.48,.6,.72,1.12,.72l9.82,.24c.56,0,1.04-.4,1.04-.96,0-.12,0-.24-.04-.36-5.47-17.76-17.4-28.13-35.75-31.04-1.64-.28-2.47,.44-2.47,2.11l-.08,82.04c0,1.32,.64,1.88,1.96,1.64,23.62-4.67,36.39-19.11,38.31-43.3,.2-2.11-.8-3.15-2.91-3.15l-16.16-.08c-2,0-3.03,1-3.07,2.99l-.2,6.82c-.04,1.12,.84,2.07,2,2.11h5.19c1.84,0,2.39,.84,1.64,2.55-2.87,6.5-7.18,11.77-12.93,15.76-1.48,1-2.23,.64-2.19-1.16l.12-51.16c0-1.4,.6-1.72,1.76-.96" vector-effect="non-scaling-stroke"/>
    <path class="cls-4" d="M368.98,368.63l-2.63,7.18c-.84,2.31-.28,2.75,1.72,1.28l6.66-4.91c1.04-.76,2.43-.64,3.35,.24l5.15,4.95c.44,.4,1.16,.4,1.6-.08,.28-.28,.36-.68,.24-1.04l-2.51-7.7c-.36-1.08-.08-1.92,.84-2.59l6.19-4.35c.56-.44,.72-1.24,.28-1.84-.32-.48-.96-.64-1.48-.44-6.86,2.55-10.53,.24-10.97-6.98,0-.88-.76-1.52-1.64-1.48-.72,0-1.32,.52-1.44,1.2l-1.48,6.15c-.36,1.56-1.36,2.23-2.95,2.07l-6.66-.64c-.64-.08-1.24,.4-1.32,1.04-.08,.44,.16,.88,.52,1.12l5.51,3.63c1.04,.68,1.48,2,1.04,3.19" vector-effect="non-scaling-stroke"/>
    <path class="cls-4" d="M164.56,362.84c-.68,.04-1.32-.4-1.48-1.08l-1.88-7.94c-.2-.76-.96-1.2-1.68-1.04-.52,.12-.92,.52-1.04,1.04l-1.92,7.9c-.16,.68-.8,1.12-1.48,1.08l-8.14-.68c-.76-.08-1.44,.48-1.52,1.28-.04,.52,.2,1.04,.68,1.32l6.94,4.27c.6,.36,.84,1.12,.56,1.76l-3.15,7.5c-.32,.68,0,1.52,.68,1.88,.52,.24,1.12,.16,1.52-.24l6.22-5.31c.52-.44,1.28-.44,1.8,0l6.19,5.35c.6,.48,1.48,.44,1.96-.16,.32-.4,.44-.96,.24-1.44l-3.07-7.54c-.24-.64,0-1.36,.56-1.72l6.98-4.27c.64-.44,.8-1.32,.36-1.96-.28-.4-.72-.64-1.2-.6l-8.14,.6" vector-effect="non-scaling-stroke"/>
    <path class="cls-4" d="M214.84,387.3c-.68,0-1.28-.4-1.44-1.08l-1.88-7.74c-.2-.76-.96-1.2-1.68-1.04-.52,.12-.92,.52-1.04,1.04l-1.92,7.74c-.16,.68-.8,1.12-1.48,1.04l-7.94-.56c-.76,0-1.44,.56-1.44,1.36,0,.48,.2,.96,.6,1.2l6.74,4.23c.6,.36,.8,1.08,.56,1.72l-3.03,7.38c-.28,.72,.04,1.52,.76,1.84,.48,.2,1.04,.12,1.44-.24l6.11-5.15c.52-.44,1.28-.44,1.8,0l6.11,5.15c.6,.48,1.48,.44,1.96-.16,.32-.4,.44-.96,.24-1.44l-2.99-7.38c-.24-.64,0-1.36,.56-1.72l6.78-4.19c.64-.44,.8-1.32,.36-1.96-.28-.4-.72-.64-1.2-.6l-7.98,.56" vector-effect="non-scaling-stroke"/>
    <path class="cls-4" d="M330.75,387.34c-.68,0-1.28-.4-1.44-1.08l-1.84-7.78c-.2-.76-.96-1.2-1.68-1.04-.52,.12-.92,.52-1.04,1.04l-1.92,7.74c-.16,.68-.8,1.12-1.48,1.08l-7.98-.68c-.76-.08-1.44,.48-1.52,1.28-.04,.52,.2,1.04,.68,1.32l6.78,4.23c.6,.36,.8,1.08,.56,1.72l-3.07,7.38c-.28,.72,.12,1.52,.84,1.8,.44,.16,.96,.08,1.32-.2l6.11-5.15c.52-.44,1.32-.44,1.84,0l6.07,5.23c.6,.48,1.48,.44,1.96-.16,.32-.4,.44-.96,.24-1.44l-2.99-7.38c-.24-.64,0-1.36,.56-1.72l6.82-4.15c.68-.4,.88-1.24,.48-1.92-.28-.48-.8-.72-1.32-.68l-7.98,.56" vector-effect="non-scaling-stroke"/>
    <path class="cls-4" d="M272.46,416.67c-.56,0-1.04-.36-1.2-.88l-2.23-8.1c-.16-.64-.84-1.04-1.48-.84-.4,.12-.76,.44-.84,.84l-2.31,8.1c-.16,.52-.64,.92-1.2,.88l-8.42-.36c-.68,0-1.24,.48-1.24,1.12,0,.44,.2,.84,.52,1.08l7.02,4.67c.44,.32,.64,.88,.44,1.4l-2.91,7.9c-.2,.64,.12,1.32,.76,1.52,.36,.12,.76,.08,1.08-.16l6.62-5.19c.44-.36,1.04-.36,1.48,0l6.62,5.23c.52,.4,1.28,.28,1.68-.28,.24-.32,.28-.72,.16-1.08l-2.91-7.9c-.2-.52,0-1.08,.48-1.4l7.02-4.67c.56-.36,.72-1.12,.36-1.68-.24-.36-.64-.56-1.08-.52l-8.42,.32" vector-effect="non-scaling-stroke"/>
    <path class="cls-4" d="M100.39,400.51c-1.8,3.63-.44,6.07,4.03,7.34,1.48,.48,3.07-.32,3.59-1.84,.36-1.16,0-2.39-1-3.11l-3.75-3.03c-.8-.64-2-.52-2.67,.32-.08,.12-.16,.2-.2,.32" vector-effect="non-scaling-stroke"/>
    <path class="cls-4" d="M87.82,420.3l2.04-9.86c.44-2.08-.4-2.91-2.47-2.47l-5.27,1.12c-2.23,.44-3.71,2.63-3.23,4.91,.2,.92,.68,1.72,1.36,2.31l5.47,4.71c.56,.48,1.4,.4,1.84-.16,.16-.16,.24-.36,.28-.56" vector-effect="non-scaling-stroke"/>
    <path class="cls-4" d="M177.05,478.52c-.88,1.08-.64,1.76,.72,2.08l5.07,1.12c1.48,.32,2.23-.28,2.35-1.76l.68-9.1c.2-2.43-.48-2.71-2-.8l-6.82,8.46" vector-effect="non-scaling-stroke"/>
    <path class="cls-4" d="M331.79,490.06l1.68-.28c1.88-.36,2.27-1.28,1.12-2.83l-5.51-7.66c-.44-.6-1.32-.72-1.92-.24-.32,.24-.52,.6-.52,1l-.2,9.14c0,1.44,.68,2.08,2.11,1.96,.68-.08,1.36-.28,2-.64,.36-.24,.8-.4,1.24-.44" vector-effect="non-scaling-stroke"/>
    <path class="cls-4" d="M238.74,482.71c.32-1.36-.52-2.75-1.88-3.07l-10.18-2.47c-1.36-.32-2.75,.52-3.07,1.88l-1.04,4.35c-.32,1.36,.52,2.75,1.88,3.07l10.18,2.47c1.36,.32,2.75-.52,3.07-1.88l1.04-4.35" vector-effect="non-scaling-stroke"/>
  </g>
  <path class="cls-3" d="M523.57,268.99c0,140.06-113.53,253.59-253.59,253.59h0c-140.06,0-253.59-113.53-253.59-253.59h0C16.39,128.93,129.92,15.4,269.98,15.4h0c140.06,0,253.59,113.53,253.59,253.59h0ZM271.94,38.03l4.11,22.71c.48,2.75,3.11,4.59,5.91,4.07,1.84-.32,3.35-1.68,3.91-3.43l7.22-21.91c.12-.36,.48-.44,1.12-.24h0c.36,.12,.48,.36,.36,.8-1.72,7.78-2.35,15.68-1.96,23.7,.08,1.6,.92,2.35,2.51,2.27l1.48-.08c2.15-.12,3.87-1.84,3.99-3.95l2.23-31.8c.32-3.83-2.55-7.22-6.38-7.54-3.23-.28-6.22,1.72-7.22,4.83l-6.3,18.75c-.24,.8-1.08,1.24-1.84,.96-.56-.2-1-.68-1.08-1.28l-2.23-18.99c-.36-3.83-3.75-6.66-7.58-6.3-3.43,.32-6.15,3.11-6.34,6.54l-2.83,33.84c-.12,1.28,.44,2,1.72,2.15l3.83,.52c1.96,.28,2.99-.6,3.11-2.59l1.32-22.98c0-.28,.2-.48,.48-.52,.28,0,.48,.2,.48,.48h0Zm-27.81,8.22c7.26-5.59,7.38-12.13,.32-19.63-.84-.88-2.04-1.32-3.23-1.2l-24.62,2.79c-1.64,.2-2.27,1.08-2,2.67l6.26,36.15c.32,1.76,1.36,2.43,3.07,2l3.71-.92c1.56-.36,2.19-1.36,1.88-2.95l-2.31-11.25c-.4-1.92,.84-3.79,2.75-4.19,1.16-.24,2.35,.12,3.23,.92l11.77,11.41c1.96,1.88,4.23,2.59,6.9,2.15l1.8-.28c3.15-.52,3.59-1.92,1.32-4.15l-11.01-10.97c-.92-.92-.88-1.76,.16-2.55Zm89.1,21.15c-.32,5.03,2.27,7.9,7.74,8.66,1.64,.24,2.31-.44,2.11-2.07l-4.87-38.11c-.4-3.23-3.31-5.55-6.58-5.15-1.64,.2-3.11,1.08-4.07,2.39l-21.51,29.81c-1.4,1.92-.96,3.19,1.28,3.83l3.15,.96c2.59,.76,4.15-.2,4.67-2.87,.92-4.95,6.3-5.15,16.16-.64,1.4,.64,2.04,1.72,1.92,3.19Zm-144.69,3.03l11.77-4.31c1.28-.48,2.71,0,3.47,1.12l2.67,3.75c.96,1.36,2.75,1.84,4.23,1.12l3.47-1.64c1.12-.56,1.56-1.88,1.04-2.99-.08-.2-.2-.36-.36-.52l-25.1-27.45c-2.35-2.55-6.3-2.71-8.86-.4-1.28,1.16-2,2.83-2,4.59l-.12,38.19c0,1.44,.72,2.04,2.11,1.76,5.67-1.08,7.74-4.55,6.19-10.34-.32-1.2,.32-2.43,1.48-2.87Zm197.48-.04l-10.26,19.31c-.68,1.24-.24,2.79,.96,3.55l3.39,2.04c.68,.44,1.6,.24,2.04-.48,0-.04,.04-.08,.08-.12l15.84-30.73c1.68-3.35,.32-7.46-3.03-9.18-2.75-1.4-6.07-.76-8.14,1.56l-13.65,15.52c-.44,.48-1.16,.52-1.64,.12-.32-.28-.48-.72-.36-1.16l4.51-18.87c.96-3.83-1.36-7.7-5.19-8.66-3.27-.8-6.62,.76-8.14,3.75l-14.13,27.81c-.88,1.72-.36,3.83,1.2,4.99l.92,.68c2.35,1.68,4.11,1.24,5.35-1.36l9.3-19.67c.16-.4,.6-.6,.96-.44,.4,.16,.6,.6,.48,.96l-5.23,22.07c-.68,2.91,1.12,5.83,4.03,6.54,2.23,.52,4.55-.4,5.79-2.31,4.03-6.11,8.58-11.77,13.57-16.92,2.83-2.91,3.27-2.55,1.36,1h0Zm-233.48,17.36c-.16,4.87-2.43,8.18-6.82,9.94-13.85,5.51-28.33-19.19-10.14-24.58,1.24-.36,2.47-.36,3.67,.08,3.47,1.24,6.15,.16,7.94-3.15,.72-1.36,.44-2.47-.8-3.39-3.99-2.91-8.42-3.39-13.25-1.36-38.59,16.32,8.82,67.72,28.53,24.7,.56-1.24,.48-2.39-.24-3.51l-6.98-11.01c-.68-1.12-2.15-1.44-3.23-.76-.08,.04-.16,.12-.24,.16l-10.3,8.02c-1.56,1.24-1.76,2.63-.6,4.23l.8,1.08c.96,1.32,2.79,1.6,4.11,.68,.04,0,.08-.08,.12-.12l3.47-2.91c2.75-2.23,4.07-1.6,3.95,1.92Zm317.27,181.24c0-110.37-89.46-199.84-199.84-199.84S70.14,158.62,70.14,268.99s89.46,199.84,199.84,199.84,199.84-89.46,199.84-199.84Zm-65.84-175.06c1-1.08,2.08-1.2,3.23-.28l12.61,9.7c1.6,1.24,3.87,.96,5.11-.64s.96-3.87-.64-5.11l-11.97-9.38c-1.64-1.28-1.92-2.83-.92-4.67l.52-.92c1.4-2.59,3.27-2.95,5.55-1.08l12.37,10.22c1.56,1.24,2.91,1.08,4.07-.52l1.04-1.4c.88-1.24,.68-2.95-.52-3.91l-16.84-13.49c-3.27-2.63-6.19-2.27-8.78,1.04l-17.16,22.03c-2.71,3.47-2.31,6.54,1.2,9.22l17.8,13.65c1.12,.84,2.67,.64,3.51-.48,.12-.16,.24-.32,.32-.52l.48-1.04c.88-2.04,.44-3.67-1.32-4.99l-13.33-10.02c-1.2-.92-1.28-1.96-.28-3.07l3.95-4.35h0ZM106.98,113.84c-.92,0-1.64-.76-1.64-1.64v-.32c1.24-6.26-.64-13.29-8.22-13.25-11.57,.08-20.15,17.96-3.83,21.35,1.48,.32,2.11,1.24,1.84,2.75-.92,5.07,.36,9.54,3.91,13.45,1.08,1.16,2.39,1.84,4.03,1.96,9.86,.68,16.12-3.91,18.75-13.69,.28-1.12,1-1.88,2.07-2.23l4.27-1.56c2.11-.8,3.19-3.15,2.43-5.27-.64-1.8-2.47-2.87-4.35-2.63l-2.87,.36c-1.32,.2-2.27-.36-2.79-1.6l-2.04-4.67c-.6-1.32-2.15-1.92-3.47-1.36-.72,.32-1.28,.96-1.48,1.72l-1.28,4.75c-.36,1.28-1.2,1.92-2.51,1.92h-2.87l.04-.04Zm332.96,3.83l-7.7,23.02c-.96,2.91,.6,6.07,3.51,7.02,1.88,.64,3.95,.2,5.43-1.12l25.02-21.99c1.44-1.28,1.52-2.63,.2-4.07l-1.6-1.68c-1.04-1.12-2.75-1.24-3.91-.24l-14.92,12.81c-1.4,1.16-1.92,.88-1.52-.92,1.4-6.42,3.35-12.65,5.95-18.67,2.27-5.23,1.64-9.18-1.88-11.89-1.16-.92-2.31-.92-3.47,.08l-27.01,23.46c-1.36,1.16-1.44,2.43-.28,3.79l1.72,1.96c1.32,1.52,2.75,1.6,4.27,.24l14.52-12.89c.44-.36,1.08-.32,1.48,.12,.24,.28,.32,.64,.2,.96h0Zm-355.1,31.96c.52-1.32,2-2,3.31-1.48,.8,.32,1.36,.96,1.56,1.8,.92,3.51,.48,6.78-1.4,9.86-8.98,14.8-35.87-5.71-20.23-16.84,1-.68,2.07-1.08,3.23-1.28,3.87-.6,6.07-2.91,6.66-6.94,.12-1.08-.6-2.04-1.64-2.19h-.12c-18.63-1.24-27.05,22.63-14.21,34.12,18.08,16.16,37.83,1.76,36.99-19.67-.04-1.36-.68-2.39-1.84-3.07l-10.14-6.03c-1.28-.76-2.91-.4-3.71,.88l-7.18,11.61c-.52,.84-.28,1.88,.52,2.43l3.79,2.43c.72,.48,1.72,.32,2.23-.4,.08-.12,.12-.24,.16-.36l2-4.87h0Zm389.18-3.91c.56,.72,.4,1.76-.32,2.27-.04,0-.12,.08-.16,.12l-25.78,15.2c-.72,.44-1,1.36-.64,2.11l2.51,5.31c.4,.8,1.36,1.16,2.19,.76,.08,0,.12-.08,.16-.08l26.02-16.04c.8-.48,1.8-.2,2.23,.56v.08l3.99,7.54c.44,.8,1.44,1.12,2.19,.68h.08l3.83-2.15c.8-.44,1.08-1.44,.64-2.23v-.04l-15-25.14c-.44-.72-1.36-1-2.11-.64l-4.51,2.11c-.8,.4-1.16,1.4-.76,2.19,.04,.08,.08,.16,.16,.24l5.27,7.18v-.04ZM52.19,248.88c-.68,.04-1.32-.4-1.52-1.08l-3.51-13.29c-.2-.8-1-1.28-1.8-1.08-.56,.12-.96,.56-1.08,1.08l-3.51,13.29c-.2,.68-.84,1.12-1.52,1.08l-13.69-.76c-.8-.08-1.52,.56-1.6,1.36-.04,.56,.2,1.08,.68,1.36l11.57,7.46c.56,.4,.8,1.12,.56,1.76l-4.95,12.81c-.28,.76,.08,1.6,.84,1.92,.48,.2,1.08,.12,1.48-.24l10.65-8.66c.52-.44,1.32-.44,1.84,0l10.65,8.66c.64,.52,1.56,.44,2.07-.2,.36-.4,.44-.96,.24-1.48l-4.95-12.81c-.24-.64,0-1.36,.56-1.76l11.57-7.46c.68-.44,.88-1.36,.44-2.04-.28-.44-.8-.72-1.36-.68l-13.69,.76h0Zm448.64-.2c-.6,0-1.12-.36-1.28-.92l-3.87-13.77c-.16-.68-.88-1.08-1.56-.92-.44,.12-.8,.48-.92,.92l-3.83,13.77c-.16,.6-.68,.96-1.28,.96l-14.25-.6c-.72-.04-1.32,.48-1.36,1.2,0,.48,.2,.92,.6,1.16l11.89,7.9c.48,.32,.68,.96,.48,1.52l-4.95,13.37c-.28,.64,0,1.4,.68,1.68,.44,.2,.96,.12,1.32-.2l11.21-8.9c.44-.36,1.12-.36,1.56,0l11.21,8.86c.56,.44,1.36,.4,1.8-.16,.32-.36,.4-.88,.2-1.32l-4.99-13.37c-.2-.56,0-1.2,.48-1.52l11.89-7.94c.56-.4,.72-1.2,.28-1.8-.24-.32-.64-.52-1.04-.52l-14.29,.6h0Zm-41.42,116.72c.24-.88,1.16-1.36,2.04-1.12,.08,0,.12,.04,.2,.08l27.17,12.41c.64,.32,1.44,.16,1.92-.4l3.71-4.23c.6-.68,.52-1.72-.16-2.31-.12-.12-.24-.2-.4-.24l-28.53-13.09c-.84-.36-1.2-1.32-.84-2.15,0-.04,.04-.12,.08-.16l3.99-6.9c.44-.76,.2-1.72-.52-2.19l-4.11-2.67c-.76-.48-1.76-.28-2.27,.48-.04,.08-.08,.16-.12,.24l-12.01,27.73c-.36,.84,0,1.8,.88,2.15,.04,0,.08,0,.12,.04l4.31,1.4c.88,.28,1.8-.2,2.08-1.04h0l2.47-7.98v-.04Zm-396,16.76c-8.1-2.07-11.37-10.93-6.38-17.84,6.74-9.34,23.38-10.1,23.78,5.07,0,1.24-.32,2.31-1,3.31-2.04,2.87-1.2,5.39,2.51,7.54,1.24,.72,2.35,.52,3.35-.56,4.71-5.27,5.19-11.49,1.4-18.63-17.76-33.6-64.05,9.62-26.62,30.45,1.28,.68,2.59,.72,3.91,.12l10.81-5.11c1.2-.56,1.72-2.04,1.16-3.23l-5.79-11.97c-.52-1.08-1.36-1.52-2.51-1.36l-2.87,.36c-1.72,.2-2.27,1.12-1.68,2.75l2.31,6.42c.4,1.04-.16,2.23-1.2,2.59-.36,.12-.8,.16-1.2,.08Zm382.04,25.3l24.86,2.71c2.83,.32,5.35-1.76,5.67-4.59,.2-1.76-.56-3.51-1.96-4.59l-27.45-21.19c-.96-.76-2.39-.6-3.15,.4l-2.11,2.63c-1,1.28-.88,2.39,.44,3.39l16.36,12.25c.52,.4,.6,1.12,.24,1.64-.24,.32-.68,.52-1.08,.44l-24.9-3.15c-2.87-.36-5.51,1.68-5.91,4.55-.24,1.84,.52,3.67,2,4.83l26.78,21.03c1.24,.96,2.31,.84,3.27-.36l2.71-3.27c.84-1,.76-1.88-.28-2.63l-16.2-12.21c-2.04-1.56-1.8-2.15,.72-1.88h0Zm-355.66-5.67c-20.99-7.62-23.06,18.95-5.19,26.42,1.24,.52,1.8,1.44,1.68,2.75l-.24,2.59c-.16,1.88,.68,2.87,2.55,2.99l4.07,.28c1.24,.08,2.31-.88,2.39-2.15v-.28l-.28-3.59c-.08-.88,.44-1.68,1.28-1.96l6.15-1.96c1.16-.36,1.8-1.6,1.44-2.75-.16-.56-.56-1-1.04-1.28l-5.11-2.87c-1.48-.84-1.88-2-1.28-3.55l.8-2.08c.56-1.36,2.04-2.08,3.43-1.64,5.95,1.84,9.94,.64,11.97-3.55,6.22-12.81-16.72-26.06-19.79-8.98-.2,1.16-1.32,1.92-2.47,1.72-.12,0-.24-.04-.36-.12h0Zm327.01,44.45c-.52-.68-.4-1.64,.24-2.19l13.13-11.57c.68-.6,.76-1.64,.16-2.31l-.16-.16-3.31-2.87c-.64-.56-1.6-.52-2.19,0l-12.85,11.85c-.64,.64-1.68,.6-2.31-.08,0,0-.04-.08-.08-.08l-3.35-4.23c-.56-.68-.44-1.72,.24-2.27l14.45-11.97c.68-.56,.76-1.56,.24-2.23l-2.71-3.55c-.56-.72-1.6-.84-2.31-.28l-.04,.04-20.75,17.8c-.68,.6-.8,1.6-.2,2.31h0l24.98,28.45c.6,.68,1.64,.76,2.31,.16h0l21.91-18.95c.68-.6,.76-1.64,.16-2.31l-.08-.08-3.23-3.15c-.64-.64-1.64-.64-2.27,0l-15.12,13.69c-.68,.6-1.72,.56-2.31-.12,0,0-.04-.08-.08-.08l-4.43-5.79h0Zm-286.83,14.49c-13.21-3.27-15-15.6-5.43-24.18,8.54-7.66,18.52-2.08,18.6,9.06,0,2.35,1.92,4.23,4.27,4.19,1.68,0,3.15-1,3.83-2.51,1.96-4.51,.72-9.1-3.71-13.77-24.94-26.06-54.75,16.8-25.42,32.72,10.73,5.87,18.04,2.87,21.87-8.98,.4-1.2,.12-2.19-.84-3.03l-8.9-7.7c-1.12-.96-2.75-.88-3.79,.16l-2.31,2.43c-.72,.76-.68,1.92,.08,2.67,.2,.2,.48,.36,.72,.44,3.47,1.08,4.79,3.31,4.03,6.66-.32,1.32-1.64,2.15-2.99,1.84h0Zm235.67,8.06l16.44,16.24c2.04,1.96,5.31,1.96,7.26-.08,1.32-1.32,1.8-3.27,1.24-5.07l-6.66-21.35c-1.28-4.19-.8-4.39,1.4-.6l11.93,20.47c.6,1,1.36,1.2,2.31,.6l4.19-2.51c.84-.52,1.12-1.6,.6-2.47l-19.75-32.92c-.36-.6-.8-.72-1.36-.36l-9.54,5.95c-.56,.36-.72,.88-.52,1.48l6.98,21.79c.92,2.83,.28,3.19-1.84,1.08l-15-14.8c-1.4-1.4-2.99-1.64-4.75-.64l-5.79,3.27c-1.64,.96-2.23,3.03-1.28,4.63,0,0,0,.08,.04,.12l18.67,30.33c.68,1.08,2.08,1.44,3.15,.84l3.03-1.72c1.32-.76,1.6-1.76,.8-3.07l-12.53-20.43c-1.8-2.87-1.48-3.11,.96-.76h0Zm-180.72,23.62c-1.32,6.19,1.12,9.82,7.3,10.97,1.4,.28,2.07-.32,2.07-1.72v-38.71c.04-3.39-2.71-6.15-6.11-6.15-1.68,0-3.31,.68-4.47,1.92l-26.3,27.69c-.76,.8-.72,2.11,.12,2.91,.16,.16,.36,.28,.56,.36l3.87,1.72c1.56,.68,2.91,.36,3.99-1l2.99-3.71c.92-1.16,2.07-1.48,3.47-1l10.85,3.79c1.2,.4,1.92,1.68,1.64,2.91Zm141.78,8.1c7.3-6.42,14.13-5.95,20.43,1.44,.68,.76,1.44,.96,2.35,.52l1.96-.92c2.35-1.12,2.75-2.71,1.16-4.79l-21.95-28.61c-2.08-2.71-5.99-3.19-8.66-1.12-1.36,1.04-2.23,2.59-2.39,4.31l-3.59,38.27c-.16,1.56,.52,2.19,2.08,2,5.47-.8,7.98-3.59,7.54-8.34-.12-1.12,.24-2.04,1.08-2.75h0Zm-86.95-6.26c11.81-3.19,10.85-18.44-.96-21.87-6.5-1.88-13.17-3.23-20.07-3.99-1.16-.12-1.88,.4-2.07,1.56l-6.94,35.91c-.24,1.12,.52,2.23,1.64,2.47h.12l4.31,.64c1.68,.24,2.63-.48,2.83-2.15l1.48-11.17c.24-1.96,2.04-3.31,3.99-3.07,1.16,.16,2.19,.88,2.71,1.96l8.42,16.92c.36,.72,1,1.28,1.8,1.56l6.07,2.15c1.88,.68,2.47,.08,1.72-1.8l-6.38-16.44c-.56-1.4-.12-2.27,1.36-2.67h0Zm52.27-5.35l.56,23.94c0,1.32,.72,2,2.08,1.96l3.79-.12c1.72-.04,2.51-.96,2.43-2.67l-1.64-36.15c-.08-1.72-.96-2.51-2.67-2.43l-7.66,.28c-1.88,.08-2.95,1.04-3.27,2.91l-3.39,20.15c-.08,.72-.72,1.2-1.4,1.16-.56-.04-1-.44-1.12-1l-6.11-20.47c-.52-1.76-1.68-2.55-3.47-2.43l-8.26,.6c-1.08,.08-1.92,1-1.88,2.08l1,36.35c.04,1.88,1.04,2.79,2.91,2.75h3.51c1.8-.08,2.59-.96,2.47-2.75l-1.56-22.19v-.64l1.08-.12c.28,0,.44,.08,.52,.36l6.19,21.91c.76,2.87,3.67,4.55,6.54,3.79,2.19-.6,3.75-2.47,3.95-4.71,.76-7.7,2.19-15.28,4.27-22.67,.68-2.39,1.04-2.35,1.08,.12h.04Z"/>
  <path class="cls-1" d="M270.98,38.07l-1.32,22.98c-.12,2-1.16,2.87-3.11,2.59l-3.83-.52c-1.28-.16-1.84-.88-1.72-2.15l2.83-33.84c.2-3.83,3.51-6.78,7.38-6.58,3.47,.2,6.26,2.87,6.54,6.34l2.23,18.99c.08,.84,.84,1.44,1.68,1.36,.6-.04,1.08-.48,1.24-1.04l6.3-18.75c1.2-3.67,5.11-5.71,8.78-4.51,3.07,1,5.11,3.99,4.83,7.22l-2.23,31.8c-.12,2.11-1.84,3.83-3.99,3.95l-1.48,.08c-1.6,.08-2.43-.68-2.51-2.27-.4-8.02,.24-15.92,1.96-23.7,.12-.44,0-.68-.36-.8h0c-.64-.2-1-.12-1.12,.24l-7.22,21.91c-.84,2.67-3.71,4.15-6.38,3.27-1.8-.56-3.11-2.07-3.43-3.91l-4.11-22.71c0-.28-.24-.48-.48-.48-.28,0-.48,.24-.48,.52h0Z"/>
  <path class="cls-1" d="M243.96,48.8l11.01,10.97c2.27,2.23,1.84,3.63-1.32,4.15l-1.8,.28c-2.67,.44-4.95-.28-6.9-2.15l-11.77-11.41c-1.44-1.36-3.71-1.32-5.07,.08-.8,.84-1.16,2.04-.92,3.19l2.31,11.25c.32,1.6-.32,2.59-1.88,2.95l-3.71,.92c-1.72,.44-2.75-.24-3.07-2l-6.26-36.15c-.28-1.6,.36-2.47,2-2.67l24.62-2.79c1.2-.12,2.39,.32,3.23,1.2,7.06,7.5,6.94,14.05-.32,19.63-1.04,.8-1.08,1.64-.16,2.55Zm-4.19-13.61c-.2-1.44-1.52-2.47-2.95-2.27h0l-10.3,1.32c-1.44,.2-2.47,1.52-2.27,2.95h0l.56,4.27c.2,1.44,1.52,2.47,2.95,2.27h0l10.3-1.32c1.44-.2,2.47-1.52,2.27-2.95h0l-.56-4.27Z"/>
  <path class="cls-1" d="M331.31,64.2c-9.86-4.51-15.24-4.31-16.16,.64-.52,2.67-2.08,3.63-4.67,2.87l-3.15-.96c-2.23-.64-2.67-1.92-1.28-3.83l21.51-29.81c1.92-2.63,5.59-3.23,8.26-1.32,1.36,.96,2.19,2.43,2.39,4.07l4.87,38.11c.2,1.64-.48,2.31-2.11,2.07-5.47-.76-8.06-3.63-7.74-8.66,.12-1.48-.52-2.55-1.92-3.19h0Zm-1.76-19.91l-5.83,7.58c-1.04,1.36-.72,2.23,.96,2.67l5.59,1.36c.88,.24,1.76-.32,2-1.2,.04-.16,.04-.36,.04-.52l-.88-9.38c-.16-1.76-.8-1.92-1.88-.52h0Z"/>
  <rect class="cls-2" x="224.45" y="33.52" width="15.64" height="9.58" rx="2.63" ry="2.63" transform="translate(-2.97 29.41) rotate(-7.2)"/>
  <path class="cls-1" d="M187.06,73.3c1.56,5.79-.52,9.26-6.19,10.34-1.4,.28-2.11-.32-2.11-1.76l.12-38.19c0-3.43,2.79-6.22,6.26-6.22,1.76,0,3.43,.76,4.59,2.04l25.1,27.45c.84,.92,.76,2.31-.16,3.15-.16,.16-.32,.28-.52,.36l-3.47,1.64c-1.48,.72-3.27,.24-4.23-1.12l-2.67-3.75c-.76-1.12-2.19-1.6-3.47-1.12l-11.77,4.31c-1.16,.44-1.8,1.68-1.48,2.87Zm7.34-15.76l-5.75-7.3c-1.32-1.64-1.92-1.44-1.84,.68l.24,9.38c.04,1.56,.84,2.23,2.39,2l3.27-.48c2.99-.44,3.55-1.88,1.68-4.27Z"/>
  <path class="cls-1" d="M384.66,69.39c-4.99,5.15-9.54,10.81-13.57,16.92-1.64,2.51-5.03,3.19-7.5,1.56-1.92-1.24-2.83-3.55-2.31-5.79l5.23-22.07c.16-.4-.08-.84-.48-.96-.4-.16-.84,.08-.96,.44h0l-9.3,19.67c-1.24,2.59-2.99,3.03-5.35,1.36l-.92-.68c-1.56-1.16-2.08-3.27-1.2-4.99l14.13-27.81c1.76-3.55,6.03-4.99,9.58-3.23,2.99,1.48,4.59,4.87,3.75,8.14l-4.51,18.87c-.16,.64,.24,1.24,.84,1.4,.44,.12,.88,0,1.16-.36l13.65-15.52c2.51-2.79,6.82-3.03,9.62-.52,2.27,2.07,2.91,5.39,1.56,8.14l-15.84,30.73c-.36,.72-1.24,1.04-2,.68-.04,0-.08-.04-.12-.08l-3.39-2.04c-1.2-.76-1.64-2.31-.96-3.55l10.26-19.31c1.92-3.55,1.48-3.91-1.36-1h0Z"/>
  <path class="cls-2" d="M323.73,51.87l5.83-7.58c1.08-1.4,1.72-1.24,1.88,.52l.88,9.38c.08,.92-.6,1.68-1.52,1.76-.16,0-.36,0-.52-.04l-5.59-1.36c-1.68-.44-2-1.32-.96-2.67Z"/>
  <path class="cls-2" d="M194.4,57.54c1.88,2.39,1.32,3.83-1.68,4.27l-3.27,.48c-1.56,.24-2.35-.44-2.39-2l-.24-9.38c-.08-2.11,.52-2.31,1.84-.68,0,0,5.75,7.3,5.75,7.3Z"/>
  <path class="cls-1" d="M148.6,85.83l-3.47,2.91c-1.24,1.04-3.07,.84-4.11-.44,0-.04-.08-.08-.12-.12l-.8-1.08c-1.16-1.6-.96-2.99,.6-4.23l10.3-8.02c1-.8,2.51-.64,3.31,.36,.04,.08,.12,.16,.16,.24l6.98,11.01c.72,1.12,.8,2.27,.24,3.51-19.71,43.02-67.12-8.38-28.53-24.7,4.83-2.04,9.26-1.56,13.25,1.36,1.24,.92,1.52,2.04,.8,3.39-1.8,3.31-4.47,4.39-7.94,3.15-1.2-.44-2.43-.44-3.67-.08-18.2,5.39-3.71,30.09,10.14,24.58,4.39-1.76,6.66-5.07,6.82-9.94,.12-3.51-1.2-4.15-3.95-1.92Z"/>
  <path class="cls-1" d="M469.82,268.99c0,110.37-89.46,199.84-199.84,199.84s-199.84-89.46-199.84-199.84S159.61,69.15,269.98,69.15s199.84,89.46,199.84,199.84Zm-321.42-2.71c-.64,2.11-1.92,2.67-3.87,1.6-19.23-10.53-27.77-7.54-34.32,13.29-3.07,9.78-6.94,19.39-11.53,28.85-.64,1.32-.44,2.91,.52,4.07l8.18,9.62c.88,1.04,1.44,2.23,1.68,3.59,6.03,34.12,25.42,58.62,58.14,73.42,25.14,11.37,45.65,19.87,61.49,25.46,10.93,3.87,23.02,12.73,36.23,26.58,.96,1,2.47,1.04,3.47,.16,12.09-10.65,25.22-19.83,39.31-27.49,15.16-8.22,35.31-13.25,52.83-20.95,30.21-13.29,62.73-42.38,62.73-78.13,0-1.44,.68-2.35,2.04-2.79,9.3-3.07,14.72-10.22,7.82-19.95-4.55-6.42-7.74-14.76-9.54-25.02-3.79-21.59-19.71-23.38-33.04-7.9-.72,.8-1.92,.88-2.71,.16-.28-.24-.48-.56-.56-.88-11.37-40.62-6.58-78.85,14.37-114.72,.84-1.48,.68-2.83-.48-4.07l-32.48-34.44c-.92-1-2.19-1.56-3.51-1.56H176.09c-1.24,0-2.27,.44-3.15,1.36l-32.44,33.76c-.88,.92-1.08,2.27-.56,3.39,17.36,36.35,20.15,73.9,8.46,112.61h0Z"/>
  <path class="cls-1" d="M400.31,101.36l13.33,10.02c1.76,1.32,2.19,2.95,1.32,4.99l-.48,1.04c-.56,1.28-2.04,1.88-3.31,1.32-.2-.08-.36-.2-.52-.32l-17.8-13.65c-3.51-2.67-3.91-5.75-1.2-9.22l17.16-22.03c2.59-3.31,5.51-3.67,8.78-1.04l16.84,13.49c1.2,.96,1.4,2.67,.52,3.91l-1.04,1.4c-1.16,1.6-2.51,1.76-4.07,.52l-12.37-10.22c-2.27-1.88-4.15-1.52-5.55,1.08l-.52,.92c-1,1.84-.72,3.39,.92,4.67l11.97,9.38c1.6,1.24,1.88,3.51,.64,5.11s-3.51,1.88-5.11,.64l-12.61-9.7c-1.16-.92-2.23-.8-3.23,.28l-3.95,4.35c-1,1.12-.92,2.15,.28,3.07h0Z"/>
  <path class="cls-1" d="M112.36,111.97l1.28-4.75c.4-1.4,1.84-2.23,3.23-1.84,.76,.2,1.4,.76,1.72,1.48l2.04,4.67c.52,1.24,1.48,1.8,2.79,1.6l2.87-.36c2.23-.32,4.27,1.28,4.55,3.51,.24,1.92-.88,3.71-2.63,4.39l-4.27,1.56c-1.08,.36-1.8,1.12-2.07,2.23-2.63,9.78-8.9,14.37-18.75,13.69-1.64-.12-2.95-.8-4.03-1.96-3.55-3.91-4.83-8.38-3.91-13.45,.28-1.52-.36-2.43-1.84-2.75-16.32-3.39-7.74-21.27,3.83-21.35,7.58-.04,9.46,6.98,8.22,13.25-.16,.88,.4,1.76,1.28,1.92h3.19c1.32,.04,2.15-.6,2.51-1.88v.04Zm-13.69-1.48c.84-1.64,.04-3.71-1.8-4.67-1.84-.96-4.03-.44-4.87,1.2s-.04,3.71,1.8,4.67c1.84,.96,4.03,.44,4.87-1.2Zm14.33,11.29l-9.14-.92c-.64-.08-1.24,.4-1.32,1.08h0l-.08,.84c-.4,3.87,1.68,7.26,4.59,7.54l.96,.12c2.91,.28,5.59-2.63,5.99-6.5h0l.08-.84c.08-.64-.4-1.24-1.08-1.32h0Z"/>
  <path class="cls-1" d="M438.26,116.64l-14.52,12.89c-1.52,1.36-2.95,1.28-4.27-.24l-1.72-1.96c-1.16-1.36-1.08-2.63,.28-3.79l27.01-23.46c1.16-1,2.31-1,3.47-.08,3.51,2.71,4.15,6.66,1.88,11.89-2.59,6.03-4.55,12.25-5.95,18.67-.4,1.8,.12,2.07,1.52,.92l14.92-12.81c1.16-1,2.87-.88,3.91,.24l1.6,1.68c1.32,1.44,1.24,2.79-.2,4.07l-25.02,21.99c-2.27,2.04-5.79,1.84-7.82-.48-1.32-1.48-1.72-3.55-1.12-5.43l7.7-23.02c.16-.56-.16-1.12-.72-1.28-.36-.12-.72,0-.96,.2h0Z"/>
  <ellipse class="cls-3" cx="95.34" cy="108.73" rx="3.31" ry="3.75" transform="translate(-45.18 142.85) rotate(-62.4)"/>
  <path class="cls-3" d="M148.4,266.28c11.69-38.71,8.9-76.26-8.46-112.61-.52-1.12-.32-2.47,.56-3.39l32.44-33.76c.88-.92,1.92-1.36,3.15-1.36h189.06c1.32,0,2.59,.56,3.51,1.56l32.48,34.44c1.16,1.24,1.32,2.59,.48,4.07-20.95,35.87-25.74,74.1-14.37,114.72,.32,1,1.36,1.6,2.39,1.28,.36-.12,.64-.32,.88-.56,13.33-15.48,29.25-13.69,33.04,7.9,1.8,10.26,4.99,18.6,9.54,25.02,6.9,9.74,1.48,16.88-7.82,19.95-1.36,.44-2.04,1.36-2.04,2.79,0,35.75-32.52,64.84-62.73,78.13-17.52,7.7-37.67,12.73-52.83,20.95-14.09,7.66-27.21,16.84-39.31,27.49-1,.88-2.51,.84-3.47-.16-13.21-13.85-25.3-22.71-36.23-26.58-15.84-5.59-36.35-14.09-61.49-25.46-32.72-14.8-52.11-39.31-58.14-73.42-.24-1.36-.8-2.55-1.68-3.59l-8.18-9.62c-.96-1.16-1.16-2.75-.52-4.07,4.59-9.46,8.46-19.07,11.53-28.85,6.54-20.83,15.08-23.82,34.32-13.29,1.96,1.08,3.23,.52,3.87-1.6h0Zm-10.26,3.11c-7.22-5.39-13.77-5.23-19.63,.4-2.04,1.96-2.83,4.07-2.35,6.38,.44,2.04,1.16,2.11,2.19,.32,4.35-7.78,10.93-10.18,19.79-7.1,6.62,8.02,9.86,14.68,9.74,20.03-1.04,38.71,27.73,64.36,59.1,75.66,23.42,8.42,42.9,18.63,58.46,30.73,1.08,.84,2.11,.8,3.11-.12,41.3-36.27,115.56-27.97,119.07-98.36,.36-6.82,1.28-11.85,2.79-15.16,4.23-9.18,12.41-17.64,23.18-12.21,1,.52,1.72,1.28,2.11,2.35,2.87,7.9,.96,14.88-5.75,20.99-1.28,1.2-3.27,1.08-4.47-.2-.52-.6-.84-1.36-.84-2.15,0-2.59-1.92-3.71-5.79-3.35,.44-3.39,1.76-5.39,3.99-5.99,1.48-.36,2.39,.16,2.79,1.6l1.24,4.59c.24,.96,1.2,1.56,2.15,1.32,.56-.12,1-.52,1.24-1.04l3.83-8.34c1.32-2.91,.04-6.34-2.83-7.66-1.08-.48-2.27-.64-3.47-.44-12.41,2.27-15.92,13.21-16.68,25.42-3.39,54.19-49.16,67.88-94.01,84.52-9.06,3.35-18.75,9.7-29.09,19.03-.96,.88-2.39,.88-3.35,0-14.56-12.65-25.26-20.11-32.12-22.35-45.49-14.64-89.18-36.59-88.87-91.06,.04-6.9-3.75-12.33-11.45-16.32-1.2-.64-2.39-.64-3.55,0-4.63,2.43-7.86,6.07-9.74,10.97-.44,1.16,.16,2.43,1.32,2.87,.88,.32,1.88,.08,2.47-.64l6.38-7.46c.8-.96,2.19-1.08,3.15-.28l.08,.08c4.87,4.63,4.95,10.81,1.12,16.52-6.5,9.66-13.05,19.43-19.63,29.29-.68,1.04-1,2.19-.88,3.47,5.11,53.87,52.03,71.63,95.29,88.15,21.07,8.06,40.46,19.27,58.14,33.68,1.08,.92,2.15,.88,3.23,0,20.19-17.76,40.1-29.61,59.78-35.51,40.26-12.09,90.82-39.38,90.34-86.39,0-1.44-.48-2.87-1.36-4.03l-22.11-29.93c-.36-.52-.48-1.16-.32-1.72,.4-1.56,1.36-2.31,2.91-2.35l21.75,31.4c1.04,1.52,3.11,1.88,4.63,.84,0,0,.08-.04,.08-.08l6.3-4.79c1.68-1.28,2.11-3.59,1.04-5.39-5.67-9.38-10.18-19.91-13.57-31.64-.08-.32-.28-2.07-.6-5.23-.28-2.59-1.72-4.75-4.35-6.42-11.13-6.98-19.03,5.11-26.26,10.97-1.16,.96-2,.72-2.43-.72-13.53-42.62-9.58-83.04,11.93-121.31,.84-1.4,.68-2.71-.48-3.91l-30.13-31.28c-.92-.96-2.19-1.52-3.51-1.52H178.08c-1.72,0-3.15,.64-4.31,1.88l-29.21,30.89c-.84,.92-1,1.92-.48,3.07,10.06,21.59,15.08,44.33,15.04,68.24,0,11.37-3.11,28.81-9.3,52.23-.32,1.16-.96,1.4-1.96,.76,0,0-9.74-6.19-9.74-6.19Zm-21.39,11.97l-.24-2.31c-.08-.56-.6-.96-1.16-.88-.36,.04-.68,.32-.84,.64l-11.45,31.8c-.52,1.4-.24,2.67,.76,3.75l4.47,4.87c1.28,1.4,2.43,1.28,3.47-.28l14.56-21.59c1.12-1.64,.76-2.83-1.12-3.59-3.91-1.56-6.46-4.47-7.7-8.74-.44-1.52-.68-2.75-.76-3.67Zm8.74,7.7c.08,1.52,1.4,2.67,2.91,2.59,.8-.04,1.52-.44,2-1.04,1.6-2.04,2.27-4.31,2-6.82-.2-1.92-1.12-2.39-2.79-1.4-2.91,1.72-4.27,3.91-4.11,6.66Z"/>
  <path class="cls-1" d="M398.87,287.58c3.87-.36,5.79,.76,5.79,3.35,0,1.76,1.44,3.19,3.19,3.19,.8,0,1.56-.28,2.11-.84,6.7-6.11,8.62-13.09,5.75-20.99-.4-1.08-1.12-1.84-2.11-2.35-10.77-5.43-18.95,3.03-23.18,12.21-1.52,3.31-2.43,8.34-2.79,15.16-3.51,70.39-77.77,62.09-119.07,98.36-1,.92-2.04,.96-3.11,.12-15.56-12.09-35.04-22.31-58.46-30.73-31.36-11.29-60.13-36.95-59.1-75.66,.12-5.35-3.11-12.01-9.74-20.03l9.74,6.19c1,.64,1.64,.4,1.96-.76,6.19-23.42,9.26-40.86,9.3-52.23,0-23.9-4.99-46.65-15.04-68.24-.52-1.16-.36-2.15,.48-3.07l29.21-30.89c1.16-1.24,2.59-1.88,4.31-1.88h185.19c1.32,0,2.59,.56,3.51,1.52l30.13,31.28c1.16,1.2,1.32,2.51,.48,3.91-21.51,38.27-25.46,78.69-11.93,121.31,.44,1.44,1.28,1.68,2.43,.72,7.22-5.87,15.12-17.96,26.26-10.97,2.63,1.68,4.07,3.83,4.35,6.42,.32,3.15,.52,4.91,.6,5.23,3.39,11.73,7.9,22.27,13.57,31.64,1.08,1.8,.64,4.11-1.04,5.39l-6.3,4.79c-1.48,1.12-3.55,.8-4.63-.68,0,0-.04-.08-.08-.08l-21.75-31.4h0Zm-89.78-88.83c-5.11-13.29-12.41-25.74-21.91-37.35-10.02-12.25-8.26-16.52,3.35-25.38,.52-.4,.6-1.16,.2-1.68-.12-.12-.24-.24-.36-.32-13.85-7.86-24.34-4.79-31.4,9.22-.68,1.28-1.64,2.23-2.91,2.91-7.74,3.95-12.17,10.3-13.29,19.03-.16,1.32-.68,2.47-1.6,3.43-7.66,8.46-9.94,18.36-6.86,29.65,.24,1-.32,2-1.32,2.23-.56,.16-1.2,0-1.64-.36l-25.42-21.91c-1.04-.92-1.36-2-.92-3.31,5.71-17.88-18.4-32.6-30.01-37.47-2.47-1.04-3.07-.4-1.76,1.96l3.15,5.59c1,1.76,2.71,2.99,4.71,3.39,7.74,1.52,25.54,12.57,20.27,23.22-.68,1.44-1.68,1.68-2.99,.76-5.03-3.51-9.34-7.7-12.93-12.57-2.27-3.07-5.19-4.27-8.62-5.07-1.84-.44-2.43,.24-1.76,2,4.15,10.73,13.57,9.42,19.55,18.16,1.28,1.92,.8,4.47-1.12,5.75-1.12,.76-2.51,.92-3.75,.48-9.3-3.47-15.84-9.86-19.63-19.11-.6-1.48-1.64-2.43-3.11-2.95l-7.14-2.55c-1.8-.68-2.23-.16-1.24,1.52,2.91,4.91,9.94,12.17,21.03,21.75,7.3,6.34,14.13,7.1,20.43,2.27,1.08-.84,2.15-.84,3.23,.08l25.06,21.79c1,.88,1.4,1.96,1.2,3.27-2.91,18.71,3.83,31.88,20.31,39.54,1.8,.84,1.92,1.88,.4,3.15l-82,69.63c-1.28,1.08-1.56,2.39-.84,3.87l.6,1.32c.56,1.16,1.32,1.32,2.27,.48l84.52-72.23c3.47-2.99,4.71-2.23,3.79,2.23l-1.48,7.22c-.28,1.32-1.04,2.15-2.31,2.51-27.89,8.18-43.1,38.63-33.72,64.84,20.35,56.9,102.75,40.66,99.12-19.91-1.32-22.15-13.85-37.43-37.51-45.85-1.24-.44-1.96-1.36-2.11-2.67l-.6-4.99c-.24-2.04,1.24-3.87,3.27-4.11,1.04-.12,2.08,.2,2.87,.88l79.85,68.51c.64,.56,1.56,.48,2.11-.12l1.12-1.2c1.24-1.32,1.2-2.59-.2-3.75l-77.25-65.32c-.68-.56-.76-1.52-.2-2.19,.12-.12,.24-.24,.36-.32,15.16-9.94,21.71-24.1,19.59-42.42-.16-1.28,.36-2.55,1.36-3.39l23.86-19.99c1.08-.88,2.11-.88,3.15,0,14.05,11.93,35.71-14.48,41.38-24.14,.36-.64,.16-1.44-.44-1.8-.36-.24-.84-.24-1.24-.08l-6.34,2.91c-2.15,1-3.67,2.59-4.59,4.79-4.07,10.1-11.45,15.88-22.11,17.36-1.72,.24-3.31-.96-3.55-2.67-.12-.84,.12-1.72,.64-2.39,4.27-5.43,9.5-9.38,15.72-11.85,1.2-.48,2.11-1.32,2.75-2.47l2.87-5.19c.44-.8,.2-1.24-.68-1.36-5.35-.68-9.02,1.28-11.01,5.87-.56,1.28-1.36,2.35-2.43,3.23l-8.82,7.26c-1.44,1.2-3.51,1-4.71-.4-.76-.92-1-2.19-.6-3.31,4.03-11.25,11.93-18,23.74-20.27,.88-.16,1.56-.64,2-1.4l5.27-9.02c.2-.32,.08-.68-.24-.88-.2-.08-.4-.12-.6-.04-12.65,5.15-41.06,21.51-31.68,39.34,.36,.68,.24,1.24-.32,1.68l-24.78,20.95c-.48,.44-.84,.32-1.08-.28h0Zm-101.55,30.53c-.36-.12-.64-.4-.76-.76l-8.02-23.94c-.2-.64-.88-.96-1.52-.76-.36,.12-.64,.4-.76,.76l-7.94,23.98c-.12,.36-.4,.64-.76,.76l-23.94,8.02c-.64,.2-.96,.88-.76,1.52,.12,.36,.4,.64,.76,.76l23.98,7.94c.36,.12,.64,.4,.76,.76l8.02,23.94c.2,.64,.88,.96,1.52,.76,.36-.12,.64-.4,.76-.76l7.94-23.98c.12-.36,.4-.64,.76-.76l23.94-8.02c.64-.2,.96-.88,.76-1.52-.12-.36-.4-.64-.76-.76l-23.98-7.94Zm144.25,.08c-.36-.12-.64-.44-.76-.8l-7.94-23.74c-.2-.64-.92-1-1.56-.8-.36,.12-.68,.4-.8,.8l-7.82,23.78c-.12,.36-.44,.64-.8,.76l-23.74,7.94c-.64,.2-1,.92-.8,1.56,.12,.36,.4,.68,.8,.8l23.78,7.82c.36,.12,.64,.44,.76,.8l7.94,23.74c.2,.64,.92,1,1.56,.8,.36-.12,.68-.4,.8-.8l7.82-23.78c.12-.36,.44-.64,.8-.76l23.74-7.94c.64-.2,1-.92,.8-1.56-.12-.36-.4-.68-.8-.8l-23.78-7.82Z"/>
  <path class="cls-3" d="M113,121.79c.64,.08,1.16,.64,1.08,1.32h0l-.08,.84c-.4,3.87-3.07,6.78-5.99,6.5h0l-.96-.12c-2.91-.28-4.99-3.67-4.59-7.54l.08-.84c.08-.64,.64-1.16,1.32-1.08h0s9.14,.92,9.14,.92Z"/>
  <path class="cls-3" d="M309.09,198.76c.24,.6,.6,.72,1.08,.28l24.78-20.95c.56-.44,.68-1,.32-1.68-9.38-17.84,19.03-34.2,31.68-39.34,.36-.12,.76,0,.88,.36,.08,.2,.08,.4-.04,.56l-5.27,9.02c-.44,.76-1.12,1.24-2,1.4-11.81,2.27-19.71,9.02-23.74,20.27-.64,1.76,.28,3.67,2,4.31,1.12,.4,2.39,.2,3.31-.6l8.82-7.26c1.08-.88,1.88-1.96,2.43-3.23,2-4.59,5.67-6.54,11.01-5.87,.88,.12,1.12,.56,.68,1.36l-2.87,5.19c-.64,1.16-1.56,2-2.75,2.47-6.22,2.47-11.45,6.42-15.72,11.85-1.08,1.36-.84,3.35,.52,4.43,.68,.52,1.52,.76,2.39,.64,10.65-1.48,18.04-7.26,22.11-17.36,.92-2.19,2.43-3.79,4.59-4.79l6.34-2.91c.68-.32,1.44,0,1.76,.64,.2,.4,.16,.84-.08,1.24-5.67,9.66-27.33,36.07-41.38,24.14-1.04-.88-2.08-.88-3.15,0l-23.86,19.99c-1,.84-1.52,2.11-1.36,3.39,2.11,18.32-4.43,32.48-19.59,42.42-.72,.48-.96,1.44-.48,2.15,.08,.12,.2,.28,.32,.36l77.25,65.32c1.4,1.16,1.44,2.43,.2,3.75l-1.12,1.2c-.56,.6-1.48,.68-2.11,.12l-79.85-68.51c-1.6-1.32-3.95-1.16-5.27,.4-.68,.8-1,1.8-.88,2.83l.6,4.99c.16,1.32,.88,2.23,2.11,2.67,23.66,8.42,36.19,23.7,37.51,45.85,3.63,60.57-78.77,76.81-99.12,19.91-9.38-26.22,5.83-56.66,33.72-64.84,1.28-.36,2.04-1.2,2.31-2.51l1.48-7.22c.92-4.47-.32-5.23-3.79-2.23l-84.52,72.23c-.96,.84-1.72,.68-2.27-.48l-.6-1.32c-.72-1.48-.44-2.79,.84-3.87l82-69.63c1.52-1.28,1.4-2.31-.4-3.15-16.48-7.66-23.22-20.83-20.31-39.54,.2-1.32-.2-2.39-1.2-3.27l-25.06-21.79c-1.08-.92-2.15-.92-3.23-.08-6.3,4.83-13.13,4.07-20.43-2.27-11.09-9.58-18.12-16.84-21.03-21.75-1-1.68-.56-2.19,1.24-1.52l7.14,2.55c1.48,.52,2.51,1.48,3.11,2.95,3.79,9.26,10.34,15.64,19.63,19.11,2.15,.8,4.55-.32,5.35-2.47,.48-1.24,.28-2.67-.48-3.75-5.99-8.74-15.4-7.42-19.55-18.16-.68-1.76-.08-2.43,1.76-2,3.43,.8,6.34,2,8.62,5.07,3.59,4.87,7.9,9.06,12.93,12.57,1.32,.92,2.31,.68,2.99-.76,5.27-10.65-12.53-21.71-20.27-23.22-2-.4-3.71-1.64-4.71-3.39l-3.15-5.59c-1.32-2.35-.72-2.99,1.76-1.96,11.61,4.87,35.71,19.59,30.01,37.47-.44,1.32-.12,2.39,.92,3.31l25.42,21.91c.76,.64,1.92,.56,2.59-.24,.4-.44,.52-1.08,.36-1.64-3.07-11.29-.8-21.19,6.86-29.65,.92-.96,1.44-2.11,1.6-3.43,1.12-8.74,5.55-15.08,13.29-19.03,1.28-.68,2.23-1.64,2.91-2.91,7.06-14.01,17.56-17.08,31.4-9.22,.6,.32,.8,1.04,.48,1.64-.08,.16-.2,.28-.32,.36-11.61,8.86-13.37,13.13-3.35,25.38,9.5,11.61,16.8,24.06,21.91,37.35Zm-28.45-63.61c-20.75-2.47-22.23,20.55-13.57,33.52,17.48,26.3,32.2,48.32,16.04,77.49-.76,1.4-.4,1.76,1.04,1.16,42.34-18.48,17.6-62.01-2.23-84.95-7.06-8.22-7.26-16.72-.52-25.46,.76-1,.52-1.6-.76-1.76Zm-22.19,19.83c.08-.76,.08-1.56-.04-2.39-.28-1.88-1.2-2.23-2.71-1.08-18.63,14.17-1.28,36.51,7.26,50.64,8.66,14.25,11.77,29.37,9.34,45.29-.16,.8,.4,1.52,1.2,1.64,.52,.08,1.04-.12,1.36-.48,23.5-26.54,5.15-52.71-12.37-78.81-1.56-2.27-2.91-6.42-4.07-12.37-.08-.52-.08-1.32,.04-2.43Zm-17.6,21.31c-5.15,9.1-3.95,24.46,2.35,31.84,8.54,10.02,16.36,20.75,23.5,32.2,1.08,1.72,1.68,1.56,1.84-.48,1.76-21.23-13.41-43.38-25.38-63.61-.8-1.32-1.56-1.32-2.31,.04Zm20.99,71.43c1.04,.6,2.39,.24,2.99-.8,.44-.76,.4-1.68-.12-2.39l-27.13-37.71c-1.48-2.07-2.59-1.88-3.27,.6-2.67,9.54-1.16,18.08,4.47,25.58,5.27,6.94,15.04,10.1,23.06,14.72Zm4.23,10.97c-.92-.28-1.84-.32-2.71-.12-.56,.16-.92,.76-.76,1.32,.12,.48,.56,.8,1.04,.8l11.57-.52c.48,0,.8-.44,.8-.88,0-.36-.24-.64-.6-.76-2.11-.68-4.23-.64-6.34,.08-1,.32-2,.36-2.99,.08Zm51,55.07c0-26.18-21.23-47.41-47.41-47.41h0c-26.18,0-47.41,21.23-47.41,47.41s21.23,47.41,47.41,47.41,47.41-21.23,47.41-47.41h0Z"/>
  <path class="cls-1" d="M84.83,149.68l-2,4.87c-.32,.84-1.24,1.24-2.04,.92-.12-.04-.24-.12-.36-.16l-3.79-2.43c-.8-.56-1.04-1.6-.52-2.43l7.18-11.61c.8-1.28,2.43-1.64,3.71-.88l10.14,6.03c1.16,.68,1.8,1.72,1.84,3.07,.84,21.43-18.91,35.83-36.99,19.67-12.85-11.49-4.43-35.35,14.21-34.12,1.04,.08,1.84,1,1.76,2.07v.12c-.6,4.03-2.79,6.34-6.66,6.94-1.16,.2-2.23,.6-3.23,1.28-15.64,11.13,11.25,31.64,20.23,16.84,1.88-3.07,2.31-6.34,1.4-9.86-.32-1.36-1.72-2.23-3.07-1.88-.84,.2-1.48,.8-1.8,1.56h0Z"/>
  <path class="cls-1" d="M474.01,145.77l-5.27-7.18c-.52-.72-.36-1.76,.36-2.27,.08-.04,.16-.12,.24-.16l4.51-2.11c.76-.36,1.68-.08,2.11,.64l15,25.14c.48,.76,.24,1.8-.56,2.23h-.04l-3.83,2.15c-.8,.48-1.8,.2-2.23-.56v-.08l-3.99-7.54c-.44-.8-1.44-1.12-2.19-.68h-.08l-26.02,16.04c-.76,.48-1.76,.24-2.27-.52,0-.04-.08-.12-.08-.16l-2.51-5.31c-.36-.76-.08-1.68,.64-2.11l25.78-15.2c.8-.44,1.04-1.48,.6-2.23,0-.04-.08-.12-.12-.16l-.04,.08Z"/>
  <path class="cls-3" d="M207.53,229.29l23.98,7.94c.64,.2,.96,.88,.76,1.52-.12,.36-.4,.64-.76,.76l-23.94,8.02c-.36,.12-.64,.4-.76,.76l-7.94,23.98c-.2,.64-.88,.96-1.52,.76-.36-.12-.64-.4-.76-.76l-8.02-23.94c-.12-.36-.4-.64-.76-.76l-23.98-7.94c-.64-.2-.96-.88-.76-1.52,.12-.36,.4-.64,.76-.76l23.94-8.02c.36-.12,.64-.4,.76-.76l7.94-23.98c.2-.64,.88-.96,1.52-.76,.36,.12,.64,.4,.76,.76l8.02,23.94c.12,.36,.4,.64,.76,.76Zm-10.57,6.22c-.16,.52-.2,1-.16,1.44,.12,1.08,.72,1.6,1.8,1.64l21.95,.44c.76,.08,1.4-.44,1.48-1.2,.08-.68-.4-1.32-1.04-1.48l-13.37-4.31c-1.4-.44-2.67-.2-3.79,.8-1.88,1.68-4.19,2.55-6.86,2.67l1.04-20.55c.12-2.27-.36-2.39-1.44-.44-3.11,5.71-5.03,11.05-5.75,16.08-.44,2.79,1.64,4.43,6.15,4.91Zm-10.45,9.38c2.59,1.16,4.87,.6,6.74-1.68,.24-.28,.64-.72,1.16-1.24,.36-.32,.68-.72,1-1.2,1.16-1.68,.72-2.51-1.32-2.47h-19.11c-.68,0-1.24,.48-1.24,1.16,0,.56,.36,1.08,.88,1.2,4.39,1.44,7.58,2.31,11.89,4.23Zm10.97-3.39l-.16,19.63c-.08,.64,.4,1.2,1.04,1.28,.56,.08,1.12-.32,1.24-.88l4.75-13.69c.48-1.28,.12-2.75-.84-3.71l-3.67-3.63c-.56-.52-1.44-.52-1.96,.04-.24,.24-.36,.6-.4,.96Z"/>
  <path class="cls-3" d="M351.78,229.37l23.78,7.82c.64,.2,1,.92,.8,1.56-.12,.36-.4,.68-.8,.8l-23.74,7.94c-.36,.12-.68,.4-.8,.76l-7.82,23.78c-.2,.64-.92,1-1.56,.8-.36-.12-.68-.4-.8-.8l-7.94-23.74c-.12-.36-.4-.68-.76-.8l-23.78-7.82c-.64-.2-1-.92-.8-1.56,.12-.36,.4-.68,.8-.8l23.74-7.94c.36-.12,.68-.4,.8-.76l7.82-23.78c.2-.64,.92-1,1.56-.8,.36,.12,.68,.4,.8,.8l7.94,23.74c.12,.36,.4,.68,.76,.8Zm-9.34,4.11v-18.63c0-.6-.52-1.04-1.12-1.04-.44,0-.8,.28-.96,.68l-4.99,13.53c-1.44,3.91,.56,8.18,4.43,9.62,.72,.24,1.44,.4,2.19,.44l22.47,1.16c2.47,.12,2.75-.6,.8-2.11-6.82-5.31-13.89-6.15-21.23-2.59-1.08,.52-1.6,.16-1.6-1.04Zm-15.36,9.7c4.75,3.47,8.98,2.79,12.65-2.04,.6-.8,.44-1.92-.36-2.51-.32-.24-.68-.36-1.04-.36l-19.39-.12c-.72,0-1.28,.6-1.24,1.32,0,.56,.4,1.08,.96,1.2l5.47,1.2c1.08,.24,2.08,.68,2.95,1.32h0Zm18.79,13.85c3.83-6.26,3.43-11.85-1.24-16.68-.68-.72-1.8-.72-2.47-.08-.36,.32-.56,.8-.56,1.28l-.2,20.03c0,2,.64,2.27,2.04,.8,.44-.48,.8-1.04,1.04-1.72,.64-1.84,1.2-3.27,1.4-3.63Z"/>
  <path class="cls-1" d="M196.96,235.51c-4.51-.48-6.58-2.11-6.15-4.91,.72-5.03,2.63-10.37,5.75-16.08,1.08-1.96,1.56-1.84,1.44,.44l-1.04,20.55Z"/>
  <path class="cls-1" d="M344.04,234.51c7.34-3.55,14.41-2.71,21.23,2.59,1.96,1.52,1.68,2.23-.8,2.11l-22.47-1.16c-4.11-.2-7.26-3.71-7.06-7.86,0-.76,.2-1.48,.44-2.19l4.99-13.53c.24-.56,.84-.8,1.4-.6,.4,.16,.64,.52,.68,.96v18.63c0,1.2,.52,1.56,1.6,1.04Z"/>
  <path class="cls-1" d="M196.96,235.51c2.67-.12,4.99-1,6.86-2.67,1.12-1,2.39-1.24,3.79-.8l13.37,4.31c.72,.16,1.2,.88,1.04,1.64-.16,.68-.8,1.12-1.48,1.04l-21.95-.44c-1.08,0-1.68-.56-1.8-1.64-.04-.44,0-.92,.16-1.44Z"/>
  <path class="cls-1" d="M52.19,248.92l13.69-.76c.8-.08,1.52,.56,1.6,1.36,.04,.56-.2,1.08-.68,1.36l-11.57,7.46c-.56,.4-.8,1.12-.56,1.76l4.95,12.81c.28,.76-.08,1.6-.84,1.92-.48,.2-1.08,.12-1.48-.24l-10.65-8.66c-.52-.44-1.32-.44-1.84,0l-10.65,8.66c-.64,.52-1.56,.44-2.07-.2-.36-.4-.44-.96-.24-1.48l4.95-12.81c.24-.64,0-1.36-.56-1.76l-11.57-7.46c-.68-.44-.88-1.36-.44-2.04,.28-.44,.8-.72,1.36-.68l13.69,.76c.68,.04,1.32-.4,1.52-1.08l3.51-13.29c.2-.8,1-1.28,1.8-1.08,.56,.12,.96,.56,1.08,1.08l3.51,13.29c.2,.68,.84,1.12,1.52,1.08h0Z"/>
  <path class="cls-1" d="M500.82,248.72l14.29-.6c.72,0,1.28,.56,1.28,1.28,0,.4-.2,.8-.52,1.04l-11.89,7.94c-.48,.32-.68,.96-.48,1.52l4.99,13.37c.28,.64,0,1.4-.68,1.68-.44,.2-.96,.12-1.32-.2l-11.21-8.86c-.44-.36-1.12-.36-1.56,0l-11.21,8.9c-.56,.44-1.36,.4-1.8-.16-.32-.36-.4-.88-.2-1.32l4.95-13.37c.2-.56,0-1.2-.48-1.52l-11.89-7.9c-.6-.36-.76-1.16-.4-1.76,.24-.4,.68-.64,1.16-.6l14.25,.6c.6,0,1.12-.36,1.28-.96l3.83-13.77c.16-.68,.88-1.08,1.56-.92,.44,.12,.8,.48,.92,.92l3.87,13.77c.16,.56,.68,.96,1.28,.92h0Z"/>
  <path class="cls-1" d="M324.13,241.86l-5.47-1.2c-.68-.16-1.08-.88-.92-1.56,.16-.56,.64-.96,1.2-.96l19.39,.12c1,0,1.8,.84,1.76,1.84,0,.36-.12,.72-.36,1.04-3.67,4.83-7.9,5.51-12.65,2.04-.88-.64-1.88-1.08-2.95-1.32h0Z"/>
  <path class="cls-1" d="M186.5,244.89c-4.31-1.92-7.5-2.79-11.89-4.23-.64-.16-1.04-.84-.84-1.48,.16-.56,.64-.92,1.2-.88h19.11c2.04,0,2.47,.8,1.32,2.47-.32,.48-.64,.88-1,1.2-.52,.52-.92,.96-1.16,1.24-1.88,2.27-4.15,2.83-6.74,1.68Z"/>
  <path class="cls-1" d="M344.48,260.65c-.24,.68-.6,1.24-1.04,1.72-1.4,1.48-2.08,1.2-2.04-.8l.2-20.03c0-.96,.8-1.76,1.76-1.76,.48,0,.96,.2,1.28,.56,4.67,4.83,5.07,10.41,1.24,16.68-.2,.36-.76,1.8-1.4,3.63h0Z"/>
  <path class="cls-1" d="M197.48,241.5c0-.76,.64-1.4,1.4-1.4,.36,0,.68,.16,.96,.4l3.67,3.63c.96,.96,1.32,2.43,.84,3.71l-4.75,13.69c-.16,.64-.8,1-1.4,.84-.56-.12-.92-.68-.88-1.24,0,0,.16-19.63,.16-19.63Z"/>
  <path class="cls-1" d="M138.14,269.39c-8.86-3.07-15.44-.68-19.79,7.1-1.04,1.8-1.76,1.72-2.19-.32-.48-2.31,.32-4.43,2.35-6.38,5.87-5.63,12.41-5.79,19.63-.4Z"/>
  <path class="cls-1" d="M317.07,313.76c0,26.18-21.23,47.41-47.41,47.41h0c-26.18,0-47.41-21.23-47.41-47.41s21.23-47.41,47.41-47.41,47.41,21.23,47.41,47.41h0Zm-64.24-24.18l-.36,10.81c-.04,1.6,.72,2.39,2.27,2.43l6.98,.16c1.48,.04,2.23-.68,2.23-2.15v-27.37c0-1.72-.8-2.39-2.51-2.04-46.81,9.82-46.65,70.59-1.6,84.91,2.79,.88,4.19-.16,4.23-3.07l.32-39.03c0-2.51-1.28-3.79-3.79-3.75l-14.05,.16c-1.24,0-1.88,.6-1.92,1.84l-.4,7.74c-.08,1.68,.72,2.47,2.39,2.35l4.95-.32c1.4-.12,2.08,.52,2.08,1.92v7.62c.08,9.82-2.75,10.69-8.38,2.67-11.77-16.88-10.02-32.16,5.35-45.89,1.56-1.4,2.27-1.04,2.19,1h0Zm33.12-2.27c5.79,3.75,10.06,8.82,12.89,15.16,.2,.48,.6,.72,1.12,.72l9.82,.24c.56,0,1.04-.4,1.04-.96,0-.12,0-.24-.04-.36-5.47-17.76-17.4-28.13-35.75-31.04-1.64-.28-2.47,.44-2.47,2.11l-.08,82.04c0,1.32,.64,1.88,1.96,1.64,23.62-4.67,36.39-19.11,38.31-43.3,.2-2.11-.8-3.15-2.91-3.15l-16.16-.08c-2,0-3.03,1-3.07,2.99l-.2,6.82c-.04,1.12,.84,2.07,2,2.11h5.19c1.84,0,2.39,.84,1.64,2.55-2.87,6.5-7.18,11.77-12.93,15.76-1.48,1-2.23,.64-2.19-1.16l.12-51.16c0-1.4,.6-1.72,1.76-.96Z"/>
  <path class="cls-1" d="M398.87,287.58c-1.56,0-2.51,.8-2.91,2.35-.16,.56-.04,1.2,.32,1.72l22.11,29.93c.88,1.16,1.36,2.59,1.36,4.03,.48,47.01-50.08,74.3-90.34,86.39-19.67,5.91-39.58,17.76-59.78,35.51-1.08,.92-2.15,.96-3.23,0-17.68-14.41-37.07-25.62-58.14-33.68-43.26-16.52-90.18-34.28-95.29-88.15-.12-1.28,.2-2.43,.88-3.47,6.58-9.86,13.13-19.63,19.63-29.29,3.83-5.71,3.75-11.89-1.12-16.52-.92-.84-2.31-.8-3.15,.12l-.08,.08-6.38,7.46c-.8,.92-2.19,1.04-3.15,.24-.72-.6-.96-1.6-.64-2.47,1.88-4.91,5.11-8.54,9.74-10.97,1.16-.64,2.35-.64,3.55,0,7.7,3.99,11.49,9.42,11.45,16.32-.32,54.47,43.38,76.42,88.87,91.06,6.86,2.23,17.56,9.7,32.12,22.35,.96,.84,2.39,.84,3.35,0,10.34-9.34,20.03-15.68,29.09-19.03,44.85-16.64,90.62-30.33,94.01-84.52,.76-12.21,4.27-23.14,16.68-25.42,3.15-.56,6.15,1.52,6.74,4.63,.2,1.16,.08,2.35-.44,3.47l-3.83,8.34c-.4,.92-1.44,1.32-2.35,.96-.52-.24-.88-.68-1.04-1.24l-1.24-4.59c-.4-1.44-1.32-1.96-2.79-1.6-2.23,.6-3.55,2.59-3.99,5.99h0Zm-29.89,81.04l-2.63,7.18c-.84,2.31-.28,2.75,1.72,1.28l6.66-4.91c1.04-.76,2.43-.64,3.35,.24l5.15,4.95c.44,.4,1.16,.4,1.6-.08,.28-.28,.36-.68,.24-1.04l-2.51-7.7c-.36-1.08-.08-1.92,.84-2.59l6.19-4.35c.56-.44,.72-1.24,.28-1.84-.32-.48-.96-.64-1.48-.44-6.86,2.55-10.53,.24-10.97-6.98,0-.88-.76-1.52-1.64-1.48-.72,0-1.32,.52-1.44,1.2l-1.48,6.15c-.36,1.56-1.36,2.23-2.95,2.07l-6.66-.64c-.64-.08-1.24,.4-1.32,1.04-.08,.44,.16,.88,.52,1.12l5.51,3.63c1.04,.68,1.48,2,1.04,3.19h0Zm-204.43-5.79c-.68,.04-1.32-.4-1.48-1.08l-1.88-7.94c-.2-.76-.96-1.2-1.68-1.04-.52,.12-.92,.52-1.04,1.04l-1.92,7.9c-.16,.68-.8,1.12-1.48,1.08l-8.14-.68c-.76-.08-1.44,.48-1.52,1.28-.04,.52,.2,1.04,.68,1.32l6.94,4.27c.6,.36,.84,1.12,.56,1.76l-3.15,7.5c-.32,.68,0,1.52,.68,1.88,.52,.24,1.12,.16,1.52-.24l6.22-5.31c.52-.44,1.28-.44,1.8,0l6.19,5.35c.6,.48,1.48,.44,1.96-.16,.32-.4,.44-.96,.24-1.44l-3.07-7.54c-.24-.64,0-1.36,.56-1.72l6.98-4.27c.64-.44,.8-1.32,.36-1.96-.28-.4-.72-.64-1.2-.6l-8.14,.6h0Zm50.28,24.46c-.68,0-1.28-.4-1.44-1.08l-1.88-7.74c-.2-.76-.96-1.2-1.68-1.04-.52,.12-.92,.52-1.04,1.04l-1.92,7.74c-.16,.68-.8,1.12-1.48,1.04l-7.94-.56c-.76,0-1.44,.56-1.44,1.36,0,.48,.2,.96,.6,1.2l6.74,4.23c.6,.36,.8,1.08,.56,1.72l-3.03,7.38c-.28,.72,.04,1.52,.76,1.84,.48,.2,1.04,.12,1.44-.24l6.11-5.15c.52-.44,1.28-.44,1.8,0l6.11,5.15c.6,.48,1.48,.44,1.96-.16,.32-.4,.44-.96,.24-1.44l-2.99-7.38c-.24-.64,0-1.36,.56-1.72l6.78-4.19c.64-.44,.8-1.32,.36-1.96-.28-.4-.72-.64-1.2-.6l-7.98,.56h0Zm115.92,.04c-.68,0-1.28-.4-1.44-1.08l-1.84-7.78c-.2-.76-.96-1.2-1.68-1.04-.52,.12-.92,.52-1.04,1.04l-1.92,7.74c-.16,.68-.8,1.12-1.48,1.08l-7.98-.68c-.76-.08-1.44,.48-1.52,1.28-.04,.52,.2,1.04,.68,1.32l6.78,4.23c.6,.36,.8,1.08,.56,1.72l-3.07,7.38c-.28,.72,.12,1.52,.84,1.8,.44,.16,.96,.08,1.32-.2l6.11-5.15c.52-.44,1.32-.44,1.84,0l6.07,5.23c.6,.48,1.48,.44,1.96-.16,.32-.4,.44-.96,.24-1.44l-2.99-7.38c-.24-.64,0-1.36,.56-1.72l6.82-4.15c.68-.4,.88-1.24,.48-1.92-.28-.48-.8-.72-1.32-.68l-7.98,.56h0Zm-58.3,29.33c-.56,0-1.04-.36-1.2-.88l-2.23-8.1c-.16-.64-.84-1.04-1.48-.84-.4,.12-.76,.44-.84,.84l-2.31,8.1c-.16,.52-.64,.92-1.2,.88l-8.42-.36c-.68,0-1.24,.48-1.24,1.12,0,.44,.2,.84,.52,1.08l7.02,4.67c.44,.32,.64,.88,.44,1.4l-2.91,7.9c-.2,.64,.12,1.32,.76,1.52,.36,.12,.76,.08,1.08-.16l6.62-5.19c.44-.36,1.04-.36,1.48,0l6.62,5.23c.52,.4,1.28,.28,1.68-.28,.24-.32,.28-.72,.16-1.08l-2.91-7.9c-.2-.52,0-1.08,.48-1.4l7.02-4.67c.56-.36,.72-1.12,.36-1.68-.24-.36-.64-.56-1.08-.52l-8.42,.32h0Z"/>
  <path class="cls-3" d="M250.63,288.58c-15.36,13.73-17.12,29.01-5.35,45.89,5.63,8.02,8.46,7.14,8.42-2.67v-7.62c0-1.4-.72-2.04-2.11-1.92l-4.95,.32c-1.68,.12-2.47-.68-2.39-2.35l.4-7.74c.04-1.24,.68-1.84,1.92-1.84l14.05-.16c2.51,0,3.79,1.24,3.79,3.75l-.32,39.03c0,2.91-1.44,3.95-4.23,3.07-45.05-14.33-45.21-75.1,1.6-84.91,1.72-.36,2.55,.32,2.55,2.04v27.37c0,1.48-.8,2.19-2.27,2.15l-6.98-.16c-1.56,0-2.31-.84-2.27-2.43l.36-10.81c.08-2.04-.64-2.39-2.19-1h0Z"/>
  <path class="cls-3" d="M284.19,288.26l-.12,51.16c0,1.8,.72,2.15,2.19,1.16,5.75-3.99,10.06-9.26,12.93-15.76,.76-1.72,.2-2.55-1.64-2.55h-5.11c-1.16,0-2.08-.92-2.08-2.04v-.08l.2-6.82c.04-2,1.08-2.99,3.07-2.99l16.16,.08c2.11,0,3.11,1.04,2.91,3.15-1.92,24.18-14.68,38.63-38.31,43.3-1.32,.24-1.96-.32-1.96-1.64l.08-82.04c0-1.68,.84-2.39,2.47-2.11,18.36,2.91,30.29,13.29,35.75,31.04,.16,.52-.12,1.08-.64,1.28-.12,.04-.24,.04-.36,.04l-9.82-.24c-.52,0-.92-.24-1.12-.72-2.83-6.34-7.1-11.41-12.89-15.16-1.16-.76-1.76-.44-1.76,.96Z"/>
  <path class="cls-1" d="M117.51,285.03c1.24,4.27,3.79,7.18,7.7,8.74,1.88,.76,2.23,1.96,1.12,3.59l-14.56,21.59c-1.04,1.56-2.19,1.68-3.47,.28l-4.47-4.87c-1-1.08-1.28-2.35-.76-3.75l11.45-31.8c.2-.52,.8-.8,1.36-.6,.36,.12,.6,.44,.64,.84l.24,2.31c.08,.92,.32,2.15,.76,3.67Z"/>
  <path class="cls-1" d="M125.49,289.06c-.16-2.75,1.2-4.95,4.11-6.66,1.68-1,2.59-.52,2.79,1.4,.28,2.51-.4,4.79-2,6.82-.96,1.2-2.67,1.4-3.87,.44-.6-.48-1-1.24-1.04-2Z"/>
  <path class="cls-1" d="M459.4,365.44l-2.47,7.98c-.28,.88-1.2,1.36-2.04,1.08h0l-4.31-1.4c-.88-.28-1.32-1.2-1.04-2.07,0-.04,0-.08,.04-.12l12.01-27.73c.36-.84,1.32-1.2,2.15-.84,.08,0,.16,.08,.24,.12l4.11,2.67c.72,.48,.96,1.44,.52,2.19l-3.99,6.9c-.44,.8-.2,1.8,.6,2.23,.04,0,.12,.04,.16,.08l28.53,13.09c.84,.36,1.2,1.36,.8,2.15-.08,.12-.16,.28-.24,.4l-3.71,4.23c-.48,.56-1.28,.72-1.92,.4l-27.17-12.41c-.84-.36-1.8,0-2.15,.84,0,.08-.04,.12-.08,.2h-.04Z"/>
  <path class="cls-1" d="M65.8,379.52l-2.31-6.42c-.6-1.64,0-2.55,1.68-2.75l2.87-.36c1.16-.16,2,.28,2.51,1.36l5.79,11.97c.56,1.2,.04,2.67-1.16,3.23l-10.81,5.11c-1.32,.6-2.63,.56-3.91-.12-37.43-20.83,8.86-64.05,26.62-30.45,3.79,7.14,3.31,13.37-1.4,18.63-1,1.08-2.11,1.28-3.35,.56-3.71-2.15-4.55-4.67-2.51-7.54,.68-1,1.04-2.07,1-3.31-.4-15.16-17.04-14.41-23.78-5.07-4.99,6.9-1.72,15.76,6.38,17.84,1.08,.28,2.19-.4,2.47-1.48,.08-.4,.08-.8-.08-1.2Z"/>
  <path class="cls-3" d="M367.94,365.44l-5.51-3.63c-.56-.32-.72-1.04-.36-1.6,.24-.4,.72-.6,1.16-.56l6.66,.64c1.6,.16,2.59-.52,2.95-2.07l1.48-6.15c.2-.84,1.04-1.36,1.88-1.16,.68,.16,1.2,.76,1.2,1.44,.44,7.22,4.11,9.54,10.97,6.98,.68-.28,1.4,.08,1.64,.76,.2,.56,0,1.2-.44,1.52l-6.19,4.35c-.92,.68-1.2,1.52-.84,2.59l2.51,7.7c.16,.6-.2,1.2-.8,1.36-.36,.12-.76,0-1.04-.24l-5.15-4.95c-.92-.88-2.31-1-3.35-.24l-6.66,4.91c-2,1.48-2.55,1.04-1.72-1.28l2.63-7.18c.44-1.2,0-2.51-1.04-3.19h0Z"/>
  <path class="cls-3" d="M164.56,362.84l8.14-.6c.76,0,1.44,.56,1.44,1.36,0,.48-.2,.96-.6,1.2l-6.98,4.27c-.6,.36-.8,1.08-.56,1.72l3.07,7.54c.28,.72-.04,1.52-.76,1.84-.48,.2-1.04,.12-1.44-.24l-6.19-5.35c-.52-.44-1.28-.44-1.8,0l-6.22,5.31c-.56,.52-1.48,.48-1.96-.12-.36-.4-.48-1.04-.24-1.52l3.15-7.5c.28-.64,.04-1.4-.56-1.76l-6.94-4.27c-.68-.4-.88-1.24-.48-1.92,.28-.48,.8-.72,1.32-.68l8.14,.68c.68,.04,1.32-.4,1.48-1.08l1.92-7.9c.2-.76,.96-1.2,1.68-1.04,.52,.12,.92,.52,1.04,1.04l1.88,7.94c.16,.68,.8,1.12,1.48,1.08h0Z"/>
  <path class="cls-3" d="M214.84,387.3l7.98-.56c.76,0,1.44,.56,1.44,1.36,0,.48-.2,.96-.6,1.2l-6.78,4.19c-.6,.36-.8,1.08-.56,1.72l2.99,7.38c.28,.72-.04,1.52-.76,1.84-.48,.2-1.04,.12-1.44-.24l-6.11-5.15c-.52-.44-1.28-.44-1.8,0l-6.11,5.15c-.6,.48-1.48,.44-1.96-.16-.32-.4-.44-.96-.24-1.44l3.03-7.38c.24-.64,0-1.36-.56-1.72l-6.74-4.23c-.64-.44-.8-1.32-.36-1.96,.28-.4,.72-.64,1.2-.6l7.94,.56c.68,.08,1.32-.36,1.48-1.04l1.92-7.74c.2-.76,.96-1.2,1.68-1.04,.52,.12,.92,.52,1.04,1.04l1.88,7.74c.16,.68,.76,1.12,1.44,1.08h0Z"/>
  <path class="cls-3" d="M330.75,387.34l7.98-.56c.76-.08,1.44,.48,1.52,1.28,.04,.52-.2,1.04-.68,1.32l-6.82,4.15c-.6,.36-.8,1.08-.56,1.72l2.99,7.38c.28,.72-.04,1.52-.76,1.84-.48,.2-1.04,.12-1.44-.24l-6.07-5.23c-.52-.44-1.32-.44-1.84,0l-6.11,5.15c-.6,.48-1.48,.36-1.96-.28-.28-.4-.36-.88-.2-1.32l3.07-7.38c.24-.64,0-1.36-.56-1.72l-6.78-4.23c-.68-.4-.88-1.24-.48-1.92,.28-.48,.8-.72,1.32-.68l7.98,.68c.68,.04,1.32-.4,1.48-1.08l1.92-7.74c.2-.76,.96-1.2,1.68-1.04,.52,.12,.92,.52,1.04,1.04l1.84,7.78c.16,.68,.76,1.12,1.44,1.08h0Z"/>
  <path class="cls-1" d="M444.72,409.37l16.2,12.21c1.04,.76,1.12,1.64,.28,2.63l-2.71,3.27c-.96,1.2-2.04,1.32-3.27,.36l-26.78-21.03c-2.27-1.8-2.71-5.11-.92-7.38,1.16-1.48,2.99-2.23,4.83-2l24.9,3.15c.64,.08,1.2-.36,1.28-1,.04-.4-.12-.84-.44-1.08l-16.36-12.25c-1.32-1-1.44-2.11-.44-3.39l2.11-2.63c.76-1,2.19-1.16,3.15-.4l27.45,21.19c2.23,1.76,2.63,4.99,.88,7.22-1.08,1.4-2.83,2.15-4.59,1.96l-24.86-2.71c-2.51-.28-2.75,.32-.72,1.88h0Z"/>
  <path class="cls-1" d="M92.61,400.23c3.07-17.08,26.02-3.83,19.79,8.98-2.04,4.19-6.03,5.39-11.97,3.55-1.4-.44-2.87,.28-3.43,1.64l-.8,2.08c-.6,1.56-.2,2.71,1.28,3.55l5.11,2.87c1.08,.56,1.48,1.92,.88,2.99-.28,.52-.72,.88-1.28,1.04l-6.15,1.96c-.84,.28-1.36,1.08-1.28,1.96l.28,3.59c.08,1.24-.84,2.35-2.11,2.43h-.28l-4.07-.28c-1.88-.12-2.71-1.12-2.55-2.99l.24-2.59c.12-1.32-.44-2.23-1.68-2.75-17.88-7.46-15.8-34.04,5.19-26.42,1.08,.4,2.31-.12,2.71-1.24,.04-.12,.08-.24,.12-.36h0Zm7.78,.28c-1.8,3.63-.44,6.07,4.03,7.34,1.48,.48,3.07-.32,3.59-1.84,.36-1.16,0-2.39-1-3.11l-3.75-3.03c-.8-.64-2-.52-2.67,.32-.08,.12-.16,.2-.2,.32Zm-12.57,19.79l2.04-9.86c.44-2.08-.4-2.91-2.47-2.47l-5.27,1.12c-2.23,.44-3.71,2.63-3.23,4.91,.2,.92,.68,1.72,1.36,2.31l5.47,4.71c.56,.48,1.4,.4,1.84-.16,.16-.16,.24-.36,.28-.56Z"/>
  <path class="cls-2" d="M100.39,400.51c.48-.96,1.64-1.32,2.55-.84,.12,.04,.24,.12,.32,.2l3.75,3.03c1.24,.96,1.48,2.71,.52,3.95-.72,.96-2,1.36-3.11,1-4.47-1.28-5.83-3.71-4.03-7.34Z"/>
  <path class="cls-3" d="M272.46,416.67l8.42-.32c.68,0,1.24,.48,1.24,1.12,0,.44-.2,.84-.52,1.08l-7.02,4.67c-.48,.32-.68,.88-.48,1.4l2.91,7.9c.2,.64-.12,1.32-.76,1.52-.36,.12-.76,.08-1.08-.16l-6.62-5.23c-.44-.36-1.04-.36-1.48,0l-6.62,5.19c-.52,.4-1.28,.28-1.68-.28-.24-.32-.28-.72-.16-1.08l2.91-7.9c.2-.52,0-1.08-.44-1.4l-7.02-4.67c-.56-.36-.72-1.12-.36-1.68,.24-.36,.64-.56,1.08-.52l8.42,.36c.56,0,1.04-.36,1.2-.88l2.31-8.1c.16-.64,.84-1.04,1.48-.84,.4,.12,.76,.44,.84,.84l2.23,8.1c.16,.52,.64,.92,1.2,.88h0Z"/>
  <path class="cls-2" d="M87.82,420.3c-.12,.68-.8,1.16-1.52,1-.2-.04-.44-.16-.6-.28l-5.47-4.71c-1.76-1.48-1.96-4.11-.44-5.87,.6-.72,1.44-1.2,2.31-1.36l5.27-1.12c2.07-.44,2.91,.4,2.47,2.47l-2.04,9.86Z"/>
  <path class="cls-1" d="M416.79,446.28l4.43,5.79c.56,.72,1.6,.84,2.31,.28,0,0,.08-.04,.08-.08l15.12-13.69c.64-.6,1.64-.6,2.27,0l3.23,3.15c.64,.64,.64,1.68,0,2.31l-.08,.08-21.91,18.95c-.68,.6-1.72,.52-2.31-.16h0l-24.98-28.45c-.6-.68-.52-1.72,.2-2.31h0l20.75-17.8c.68-.6,1.72-.52,2.31,.2l.04,.04,2.71,3.55c.52,.68,.44,1.68-.24,2.23l-14.45,11.97c-.68,.56-.8,1.6-.24,2.27l3.35,4.23c.56,.72,1.6,.8,2.31,.24,0,0,.08-.04,.08-.08l12.85-11.85c.6-.56,1.56-.6,2.19,0l3.31,2.87c.68,.6,.76,1.64,.16,2.31l-.16,.16-13.13,11.57c-.64,.56-.76,1.52-.24,2.19h0Z"/>
  <path class="cls-1" d="M132.95,458.93c.76-3.35-.56-5.59-4.03-6.66-1-.32-1.56-1.4-1.24-2.39,.08-.28,.24-.52,.44-.72l2.31-2.43c1.04-1.04,2.67-1.12,3.79-.16l8.9,7.7c.96,.84,1.24,1.84,.84,3.03-3.83,11.85-11.13,14.84-21.87,8.98-29.33-15.92,.48-58.78,25.42-32.72,4.43,4.67,5.67,9.26,3.71,13.77-.96,2.15-3.43,3.11-5.59,2.15-1.52-.68-2.51-2.19-2.51-3.83-.08-11.13-10.06-16.72-18.6-9.06-9.58,8.58-7.78,20.91,5.43,24.18,1.32,.32,2.67-.48,2.99-1.84h0Z"/>
  <path class="cls-1" d="M364.67,469.59l12.53,20.43c.8,1.32,.52,2.31-.8,3.07l-3.03,1.72c-1.08,.6-2.47,.24-3.15-.84l-18.67-30.33c-1-1.6-.48-3.71,1.12-4.67,0,0,.08-.04,.12-.08l5.79-3.27c1.76-1,3.35-.76,4.75,.64l15,14.8c2.11,2.11,2.75,1.76,1.84-1.08l-6.98-21.79c-.2-.6,0-1.12,.52-1.48l9.54-5.95c.56-.36,1-.24,1.36,.36l19.75,32.92c.52,.88,.24,1.96-.6,2.47l-4.19,2.51c-.96,.6-1.72,.4-2.31-.6l-11.93-20.47c-2.19-3.79-2.67-3.59-1.4,.6l6.66,21.35c.84,2.71-.68,5.55-3.39,6.38-1.8,.56-3.75,.08-5.11-1.24l-16.44-16.24c-2.43-2.35-2.75-2.11-.96,.76h0Z"/>
  <path class="cls-1" d="M183.27,489.54l-10.85-3.79c-1.4-.48-2.55-.16-3.47,1l-2.99,3.71c-1.08,1.36-2.43,1.68-3.99,1l-3.87-1.72c-1.04-.48-1.52-1.68-1.04-2.71,.08-.2,.2-.4,.36-.56l26.3-27.69c2.31-2.47,6.22-2.59,8.7-.24,1.24,1.16,1.92,2.79,1.92,4.47v38.71c0,1.4-.72,2-2.11,1.72-6.19-1.16-8.62-4.79-7.3-10.97,.28-1.24-.44-2.51-1.64-2.91Zm-6.22-11.01c-.88,1.08-.64,1.76,.72,2.08l5.07,1.12c1.48,.32,2.23-.28,2.35-1.76l.68-9.1c.2-2.43-.48-2.71-2-.8,0,0-6.82,8.46-6.82,8.46Z"/>
  <path class="cls-1" d="M325.61,503.3c.44,4.75-2.08,7.54-7.54,8.34-1.56,.2-2.23-.44-2.08-2l3.59-38.27c.32-3.39,3.35-5.91,6.74-5.59,1.72,.16,3.27,1.04,4.31,2.39l21.95,28.61c1.6,2.08,1.2,3.67-1.16,4.79l-1.96,.92c-.92,.44-1.68,.24-2.35-.52-6.3-7.38-13.13-7.86-20.43-1.44-.84,.72-1.2,1.64-1.08,2.75Zm6.19-13.25l1.68-.28c1.88-.36,2.27-1.28,1.12-2.83l-5.51-7.66c-.44-.6-1.32-.72-1.92-.24-.32,.24-.52,.6-.52,1l-.2,9.14c0,1.44,.68,2.08,2.11,1.96,.68-.08,1.36-.28,2-.64,.36-.24,.8-.4,1.24-.44h0Z"/>
  <path class="cls-1" d="M238.38,496.96l6.38,16.44c.76,1.88,.16,2.47-1.72,1.8l-6.07-2.15c-.8-.28-1.44-.84-1.8-1.56l-8.42-16.92c-.88-1.76-2.99-2.47-4.75-1.6-1.08,.52-1.8,1.56-1.96,2.71l-1.48,11.17c-.2,1.68-1.16,2.39-2.83,2.15l-4.31-.64c-1.16-.16-1.96-1.24-1.76-2.39v-.08l6.94-35.91c.2-1.16,.92-1.68,2.07-1.56,6.9,.76,13.57,2.11,20.07,3.99,11.81,3.43,12.77,18.67,.96,21.87-1.48,.4-1.92,1.28-1.36,2.67h0Zm.36-14.25c.32-1.36-.52-2.75-1.88-3.07l-10.18-2.47c-1.36-.32-2.75,.52-3.07,1.88l-1.04,4.35c-.32,1.36,.52,2.75,1.88,3.07l10.18,2.47c1.36,.32,2.75-.52,3.07-1.88l1.04-4.35Z"/>
  <path class="cls-2" d="M177.05,478.52l6.82-8.46c1.52-1.92,2.19-1.64,2,.8l-.68,9.1c-.12,1.48-.88,2.08-2.35,1.76l-5.07-1.12c-1.36-.32-1.6-1-.72-2.08Z"/>
  <path class="cls-1" d="M290.93,488.82c-2.08,7.38-3.51,14.96-4.27,22.67-.24,2.95-2.83,5.11-5.79,4.87-2.23-.2-4.11-1.76-4.71-3.95l-6.19-21.91c-.08-.28-.24-.4-.52-.36l-1.08,.12s-.08,.2,0,.64l1.56,22.19c.12,1.8-.68,2.67-2.47,2.71h-3.51c-1.88,.08-2.87-.84-2.91-2.71l-1-36.35c0-1.08,.8-2,1.88-2.08l8.26-.6c1.8-.12,2.95,.68,3.47,2.43l6.11,20.47c.16,.68,.84,1.12,1.52,.96,.52-.12,.92-.56,1-1.12l3.39-20.15c.32-1.88,1.4-2.83,3.27-2.91l7.66-.28c1.72-.08,2.59,.72,2.67,2.43l1.64,36.15c.08,1.72-.72,2.63-2.43,2.67l-3.79,.12c-1.36,0-2.04-.64-2.08-1.96l-.56-23.94c-.04-2.47-.4-2.51-1.08-.12h-.04Z"/>
  <rect class="cls-2" x="225.84" y="475.28" width="9.58" height="15.56" rx="2.55" ry="2.55" transform="translate(-293.12 593.63) rotate(-76.4)"/>
  <path class="cls-2" d="M330.56,490.49c-.64,.36-1.32,.56-2,.64-1.44,.12-2.15-.52-2.11-1.96l.2-9.14c0-.76,.68-1.32,1.44-1.28,.4,0,.76,.2,1,.52l5.51,7.66c1.16,1.56,.76,2.47-1.12,2.83l-1.68,.28c-.44,.04-.88,.2-1.24,.44h0Z"/>
</svg>