<?xml version="1.0" encoding="UTF-8"?>
<svg id="Capa_3" data-name="Capa 3" xmlns="http://www.w3.org/2000/svg" viewBox="0 0 538.93 537.9">
  <defs>
    <style>
      .cls-1 {
        fill: #151414;
      }
    </style>
  </defs>
  <path class="cls-1" d="M35.26,228.98c124.07-102.11,326.8-105.71,453.87-7.03,11.07,8.6,18.43,16.23,22.09,22.87,10.86,19.78,6.42,45.08-11.23,60.3-66.36,57.22-152.77,81.81-240.54,80.74-76.72-.94-156.83-24.76-217.07-73.04-18.59-14.92-28.59-29.27-25.02-52.79,1.89-12.43,7.85-22.77,17.91-31.04Zm232.41-25.06c-.37,.4-.73,.4-1.1,0-41.6-43.74-112.27-41.11-147.37,8.94-41.43,59.04-5.21,142.85,67.83,149.85,30.5,2.92,56.96-7.06,79.38-29.99,.44-.45,.87-.45,1.31,0,21.46,22.05,46.9,32.14,76.33,30.27,45.34-2.89,81.16-37.35,87.52-82,6.49-45.62-22.17-90.64-66.29-103.89-35.62-10.7-72.05-.38-97.61,26.81v.02Z"/>
  <path class="cls-1" d="M195.46,302.02c10.23-21.6,20.36-43.23,30.41-64.9,3.64-7.83,5.44-12.82,15.51-13.06,5.25-.14,10.44-.17,15.56-.09,.65,0,.96,.33,.91,.98l-5.65,71.38c-.02,.33,.12,.45,.45,.4l.54-.09c.12-.02,.19-.09,.21-.19,3.17-12.94,8.85-34.28,17.02-63.99,1.63-5.91,4.32-8.24,10.74-8.38,9.93-.23,28.01-2.05,35.92,2.89,5.84,3.65,8.18,9.85,7.05,18.57-1.43,10.93-6.03,19.67-13.78,26.25-.47,.4-.61,.91-.42,1.5,1.14,3.45,2.45,6.02,1.59,9.78-2.05,9.2-7.12,22.63,.87,29.55,1.92,1.68,1.61,2.52-.94,2.5h-18.54c-2.69-.03-4.93-1.03-6.72-3.04-5.54-6.28,1.14-23.26,3.34-30.69,.58-1.98-.16-2.99-2.22-3.04l-3.11-.07c-1.73-.03-2.82,.79-3.25,2.45l-8.99,33.35c-.17,.63-.73,1.07-1.38,1.07h-41.81c-.73,0-1.33-.59-1.33-1.33v-.12l1.14-10.68c.07-.66-.23-1-.89-1.01l-15.58-.16c-.49,0-.94,.28-1.15,.73l-5.39,11.75c-.23,.51-.75,.84-1.31,.84l-10.84,.05c-.93,0-1.68-.75-1.68-1.68,0-.21,.03-.44,.12-.63l1.47-3.69c.07-.3-.1-.61-.4-.68-.23-.05-.47,.03-.61,.24l-2.69,5.65c-.21,.44-.56,.66-1.07,.66l-20.83,.07c-.59,0-1.08-.49-1.07-1.1,0-.1,0-.19,.03-.28l9.57-33.28c.1-.26-.02-.56-.28-.66s-.56,.02-.66,.28l-17.92,34.1c-.31,.58-.8,.87-1.47,.87h-9.51c-.75,0-1.14-.37-1.14-1.14l.14-33.75c0-.26-.23-.49-.49-.49-.21,0-.4,.16-.47,.37l-9.22,34.89c-.05,.19-.17,.3-.37,.28l-15.16-.21c-.23,0-.31-.12-.24-.35,7.36-27.44,14.76-54.86,22.23-82.24,1.56-5.74,4.56-8.08,10.72-8.31,6-.23,11.98-.3,17.94-.21,.72,0,1.08,.37,1.08,1.08l-.09,31.93c0,.33,.24,.59,.58,.61,.24,0,.45-.12,.56-.35,4-8.2,7.9-16.02,11.73-23.43,3.67-7.12,6.72-9.65,15.25-9.78,5.12-.07,10.27-.12,15.42-.14,.87,0,1.21,.42,.98,1.28l-20.86,76.72c-.02,.14,.07,.26,.21,.28,.1,0,.19-.03,.24-.12h0Zm90.1-35.53c10.35,2.2,16.91-16.19,17.96-24.08,.49-3.62-.98-6.07-4.41-7.33l-1.33-.49c-2.01-.73-4.25,.3-4.98,2.31-.03,.1-.07,.23-.1,.33l-7.66,28.42c-.12,.47,.05,.75,.52,.84Zm-68.17,22.79c-.12,.28,0,.59,.26,.72,.07,.03,.14,.05,.21,.05l10.86,.37c.28,0,.52-.21,.56-.49l2.64-29.66c.03-.3-.19-.56-.49-.59-.23-.02-.45,.1-.54,.31l-13.5,29.29h0Z"/>
  <path class="cls-1" d="M339.49,295.38c-.51,1.91,.63,3.88,2.54,4.39,.3,.09,.59,.12,.91,.12h.8c3.01,0,4.91-1.43,5.7-4.35l17.56-64.77c.86-3.1,2.85-5.02,5.98-5.74l7.4-1.68c3.2-.72,4.37,.49,3.51,3.65-10.06,37.07-16.33,60.4-18.83,69.97-2.19,8.39-7.15,14.18-14.9,17.38-11.12,4.6-32.44,4.58-36.01-9.9-.7-2.82-.37-6.77,1.01-11.86,5.07-18.66,10.09-37.34,15.04-55.99,2.1-7.94,3.18-12.42,12.87-12.59,4.93-.09,9.74-.12,14.43-.14,.51,0,.93,.42,.93,.91,0,.09,0,.16-.03,.24l-18.9,70.35h0Z"/>
  <path class="cls-1" d="M415.5,224.61l-24.19,89.4c-.19,.72-.66,1.07-1.4,1.08l-22.94,.07c-.72,0-1-.35-.8-1.03,7.55-27.56,15.02-55.12,22.4-82.7,2.75-10.23,18.29-7.54,26.37-7.55,.51,0,.7,.24,.56,.73Z"/>
</svg>