<?xml version="1.0" encoding="UTF-8"?>
<svg id="Capa_5" data-name="Capa 5" xmlns="http://www.w3.org/2000/svg" viewBox="0 0 538.93 537.9">
  <defs>
    <style>
      .cls-1 {
        fill: #151414;
      }

      .cls-2 {
        fill: none;
      }
    </style>
  </defs>
  <g>
    <path class="cls-2" d="M180.46,193.17c0-3.11-2.51-5.62-5.62-5.62H24.76c-3.11,0-5.62,2.51-5.62,5.62v149.66c0,3.11,2.51,5.62,5.62,5.62H174.84c3.11,0,5.62-2.51,5.62-5.62h0V193.17" vector-effect="non-scaling-stroke"/>
    <path class="cls-2" d="M523.81,202.76c0-8.38-6.8-15.17-15.17-15.17s-15.17,6.8-15.17,15.17h0c0,8.38,6.8,15.17,15.17,15.17h0c8.38,0,15.17-6.8,15.17-15.17" vector-effect="non-scaling-stroke"/>
    <path class="cls-2" d="M220.84,237.48c-2.27,11.56-18.73,6.6-25.61,2.61-1.77-1.01-4.04-.42-5.06,1.35-.13,.21-.23,.43-.31,.68l-.14,.4c-.97,2.85-.13,5.01,2.53,6.44,11.03,5.99,31.92,7.63,37.37-7.04,1.42-3.83,1.24-7.43-.52-10.76-5.59-10.61-21.08-7.41-28.9-14.88-.37-.37-.6-.81-.68-1.32-1.82-12.53,16.17-8.41,22.1-4.83,1.34,.79,3.06,.35,3.85-.98,.06-.11,.13-.23,.18-.34l.42-1.01c1.03-2.5,.37-4.4-1.98-5.73-7.49-4.24-15.06-5.17-22.69-2.79-13.66,4.25-16.15,21.99-1.58,27.17,4.35,1.55,17.51,3.41,20.81,9.66,.24,.43,.31,.89,.21,1.37" vector-effect="non-scaling-stroke"/>
    <path class="cls-2" d="M374.74,238.9c-15.22,14.01-37.19-2.59-27.96-21.5,3.74-7.68,10.58-10.52,20.54-8.52,3.14,.63,5.11,2.82,7.57,4.48,1.92,1.29,4.53,.77,5.81-1.14,.05-.06,.1-.14,.13-.21,1.4-2.4,.76-4.85-1.42-6.65-11.21-9.25-29.22-8.21-38.2,3.5-10.03,13.08-6.3,36.92,10.84,41.96,8.44,2.48,18.97,2.16,26.64-2.85,3.98-2.59,5.73-6.62,.55-9.57-1.45-.82-3.27-.61-4.49,.52" vector-effect="non-scaling-stroke"/>
    <path class="cls-2" d="M402.18,218.36c8.46,9.78,16.65,19.76,24.61,29.96,3.27,4.19,10.79,4.91,10.82-.79,.1-14.16,.06-28.25-.08-42.25-.03-2.64-2.06-4.82-4.69-5.06l-1.21-.11c-2.05-.18-3.85,1.34-4.03,3.37v29.57c0,.29-.23,.5-.52,.5-.14,0-.27-.06-.37-.18-8.58-10.45-17.22-20.71-25.9-30.76-1.43-1.63-3.12-2.35-5.07-2.17-2.06,.19-3.64,1.92-3.64,3.99v43.36c0,2.09,1.63,3.85,3.74,3.98l.98,.06c3.3,.21,4.96-1.34,4.94-4.65l-.11-28.62c0-.53,.18-.6,.53-.19" vector-effect="non-scaling-stroke"/>
    <path class="cls-2" d="M250.49,236.97c9.87-.31,20.57,1.64,27.27-7.17,6.65-8.73,4.46-22.48-5.83-27.64-7.18-3.58-19.22-2.22-27.83-2.21-2.25,0-4.09,1.84-4.09,4.09v43.39c0,3.12,1.56,4.61,4.67,4.45l1.18-.06c2.03-.1,3.62-1.77,3.66-3.8l.16-10.21c0-.53,.27-.82,.82-.84" vector-effect="non-scaling-stroke"/>
    <path class="cls-2" d="M457.95,243.1h27.64c.6,0,1.03,.26,1.3,.79l3.11,6.1c1,1.93,3.38,2.71,5.32,1.71h0l1.32-.68c2.37-1.24,2.95-3.04,1.72-5.41-7.2-14-14.5-28.04-21.89-42.17-1.63-3.09-6.67-5.12-8.63-1.37-7.49,14.21-15.03,28.46-22.63,42.78-1.11,2.11-.58,4.72,1.27,6.22l.68,.55c1.79,1.47,4.43,1.19,5.9-.61,.19-.23,.35-.48,.48-.74l3.27-6.46c.24-.47,.61-.69,1.13-.69" vector-effect="non-scaling-stroke"/>
    <path class="cls-2" d="M300.34,209.68h22.19c2.95,0,4.48-1.48,4.56-4.45v-1c.06-1.92-1.43-3.53-3.35-3.58h-.1l-29.67-.05c-2.06,0-3.74,1.68-3.74,3.75h0v43.13c0,2.45,1.98,4.43,4.43,4.43h29.59c2.43,0,4.4-1.97,4.4-4.4v-.16l-.05-1.13c-.06-2.03-1.74-3.64-3.79-3.64h-24.14c-.4,0-.74-.35-.74-.76h0v-10.42c0-.55,.27-.82,.81-.82h20.1c1.98,0,3.59-1.59,3.64-3.58v-1.03c.08-2.88-1.32-4.32-4.2-4.32h-19.97c-.24,0-.35-.11-.35-.35v-11.24c0-.27,.11-.4,.39-.4" vector-effect="non-scaling-stroke"/>
    <path class="cls-2" d="M478.14,280.31c4.16,1.74,9.97,5.67,13.06-.48,2.14-4.25-1.87-7.97-5.44-9.57-11.74-5.23-23.19-5.72-34.39-1.43-8.75,3.35-15,9.92-14.66,19.44,.27,7.81,4.3,13.35,12.08,16.65,3.67,1.56,12.27,4.2,25.8,7.96,10.74,2.96,10.03,15.46,.1,17.73-9.52,2.19-18.91,.37-28.14-5.46-2.79-1.76-5.43-1.69-7.96,.21-9.26,6.99,3.69,14.16,9.18,15.78,15.45,4.61,46.48,4.72,49.22-17.54,3.04-24.79-29.17-21.2-41.97-29.93-7.76-5.32-3.56-13.3,3.95-15.03,6.51-1.5,12.9-.93,19.17,1.66" vector-effect="non-scaling-stroke"/>
    <path class="cls-2" d="M363.32,296.82c0-.31,.24-.56,.55-.58,.18,0,.35,.08,.47,.23,5.2,6.89,10.42,13.67,15.66,20.33,5.19,6.62,9.78,4.99,14.82-.84,5.61-6.46,11.19-12.93,16.75-19.42,.27-.34,.77-.39,1.11-.11,.19,.16,.29,.39,.29,.63v39.43c-.03,2.8,2.24,5.09,5.06,5.09h.26l1.79-.1c4.4-.21,6.6-2.51,6.62-6.91,.08-18.75,.11-36.93,.1-54.57,0-3.69-.34-6.23-1-7.6-2.17-4.56-8.84-5.11-12.18-.98-8.46,10.47-16.94,20.95-25.43,31.44-.27,.35-.79,.4-1.13,.13-.05-.03-.08-.08-.13-.13-8.36-10.42-16.85-20.89-25.48-31.42-3.16-3.85-6.59-4.36-10.28-1.53-2.88,2.21-2.79,4.45-2.79,7.84-.08,18.51-.05,37.95,.1,58.32,.02,3.14,2.58,5.69,5.73,5.7h1.61c4.19,.03,7.57-3.35,7.59-7.52v-.03l-.08-37.38" vector-effect="non-scaling-stroke"/>
    <path class="cls-2" d="M209.29,328.66h40.91c.56,0,1.08,.31,1.35,.81l5.54,10.1c1.5,2.75,4.94,3.77,7.68,2.27h.02l1.4-.77c4.03-2.22,4.94-5.36,2.74-9.41-10.23-18.7-20.71-37.82-31.47-57.36-1.3-2.37-2.77-3.95-4.38-4.74-6.22-3.03-9.37,1.88-12.27,7.14-9.87,17.8-20.12,36.22-30.76,55.26-2.11,3.79-1.27,6.72,2.54,8.76l1.24,.68c3.37,1.8,7.55,.56,9.36-2.79h0l4.99-9.26c.24-.43,.61-.66,1.11-.66" vector-effect="non-scaling-stroke"/>
    <path class="cls-2" d="M323.83,313.46c13.35-5.78,18.39-19.71,11.13-32.31-4.22-7.3-11.34-11.16-21.34-11.58-10.68-.43-21.16-.58-31.46-.42-3.77,.06-6.78,3.12-6.78,6.89v58.13c0,4.78,2.38,7.28,7.17,7.51l1.59,.06c3.04,.13,5.62-2.22,5.77-5.27v-19.73c0-.56,.27-.84,.82-.84h17.23c.47,0,.85,.18,1.14,.55l16.88,22.15c2.46,3.22,6.94,4.09,10.42,2.01l1.69-1.01c2.34-1.4,3.09-4.43,1.69-6.76-.16-.26-.34-.5-.53-.72l-15.64-17.72c-.37-.4-.29-.72,.21-.93" vector-effect="non-scaling-stroke"/>
    <path class="cls-2" d="M171.49,197.21c0-.45-.37-.82-.82-.82H28.83c-.45,0-.82,.37-.82,.82v141.51c0,.45,.37,.82,.82,.82H170.67c.45,0,.82-.37,.82-.82V197.21" vector-effect="non-scaling-stroke"/>
    <path class="cls-2" d="M520.67,202.77c0-6.65-5.38-12.03-12.03-12.03h0c-6.65,0-12.03,5.38-12.03,12.03h0c0,6.65,5.38,12.03,12.03,12.03h0c6.65,0,12.03-5.38,12.03-12.03h0" vector-effect="non-scaling-stroke"/>
    <path class="cls-2" d="M513.29,204.25c.97-1.11,1.74-1.87,1.97-3.33,1.01-6.65-6.62-6.65-11.61-5.91-.63,.08-.93,.45-.93,1.08v13.5c0,.61,.48,1.1,1.1,1.1,.06,0,.14,0,.21-.02l1.26-.23c.74-.14,1.26-.79,1.24-1.53l-.05-2.5c0-.82,.64-1.5,1.45-1.51,.48,0,.95,.23,1.22,.63l3.35,4.69c.52,.77,1.58,.98,2.35,.47,.63-.42,.9-1.21,.66-1.93-.37-1.24-1.05-2.22-2.05-2.98-.6-.45-.64-.95-.16-1.51" vector-effect="non-scaling-stroke"/>
    <path class="cls-2" d="M506.43,198.89l.03,2.64c0,.43,.37,.79,.81,.77h0l2.16-.03c1.27-.02,2.29-.9,2.27-1.95h0v-.39c-.02-1.06-1.06-1.88-2.34-1.87l-2.16,.03c-.43,0-.79,.37-.77,.81h0" vector-effect="non-scaling-stroke"/>
    <path class="cls-2" d="M84.53,309.08l-28.25-.03c-.5,0-.76-.26-.76-.76v-25.8c.03-1.87-1.43-3.41-3.3-3.5l-1.03-.05c-3.04-.14-4.56,1.29-4.56,4.33v29.88c0,1.77,1.47,3.21,3.24,3.21h40.65c2.19,0,3.96-1.77,3.96-3.96h0v-44.76c0-2.42-1.95-4.36-4.35-4.36H56.39c-.47,0-.71-.23-.71-.69-.18-12.97,2.53-27.8,14.4-35.13,.48-.31,.95-.27,1.39,.08,8.2,6.67,12.71,15.3,13.53,25.92,.13,1.74,1.66,3.06,3.41,2.92,.1,0,.19-.02,.27-.03l1.35-.23c2.88-.48,4.11-2.17,3.7-5.06-1.92-13.56-8.52-23.95-19.78-31.17-1.69-1.08-3.3-1.3-4.83-.66-18.75,7.91-23.05,29.19-22.47,47.43,.06,2.16,1.84,3.87,3.99,3.87h33.86c.53,0,.79,.24,.79,.77v37.03c0,.5-.27,.76-.77,.76" vector-effect="non-scaling-stroke"/>
    <path class="cls-2" d="M115.33,270.56h28.03c.42,0,.76,.35,.76,.77h0v37.37c0,.52-.26,.77-.77,.79l-7.67,.13c-1.74,.03-3.14,1.4-3.24,3.12-.32,6.23,12.68,4.53,16.46,4.38,2.27-.1,4.07-1.97,4.07-4.25,0-16.03-.02-32.44-.1-49.24-.06-16.36-4.59-33.39-18.73-43.18-8.87-6.14-21.53,10.32-24.55,17.89-3.14,7.86-4.67,17.51-4.57,28.93,.13,15.24,.24,30.25,.32,45.02,.02,3.3,1.66,4.69,4.91,4.16l.82-.13c1.93-.32,3.35-1.98,3.35-3.93v-40.91c0-.61,.31-.92,.9-.92" vector-effect="non-scaling-stroke"/>
    <path class="cls-2" d="M249.64,209.31l-.06,18.26c0,.31,.26,.56,.56,.56h0l11.6,.03c5.73,.02,10.4-4.14,10.42-9.31h0v-.71c0-5.15-4.62-9.36-10.36-9.37l-11.6-.03c-.31,0-.56,.26-.56,.56" vector-effect="non-scaling-stroke"/>
    <path class="cls-2" d="M462.26,232.5c-.14,.27-.05,.6,.23,.74,.08,.05,.16,.06,.26,.06h17.4c.31,.02,.55-.23,.55-.53,0-.08-.02-.18-.05-.24l-8.31-17.64c-.13-.27-.45-.39-.72-.26-.11,.05-.19,.14-.26,.24l-9.08,17.62" vector-effect="non-scaling-stroke"/>
    <path class="cls-2" d="M144,262.51c-.03-12.51-3.37-26.87-13.8-34.95-.4-.32-.97-.34-1.4-.06-11.68,7.59-14.45,21.76-14.29,34.79,0,.66,.34,.98,1,.98h27.75c.5,0,.76-.26,.74-.76" vector-effect="non-scaling-stroke"/>
    <path class="cls-2" d="M215.67,314.68c-.16,.29-.06,.64,.23,.81,.08,.05,.18,.08,.29,.08h26.09c.32,0,.6-.27,.6-.6,0-.08-.02-.18-.06-.26l-12.4-25.19c-.14-.29-.5-.42-.79-.27-.11,.05-.21,.14-.27,.26l-13.67,25.17" vector-effect="non-scaling-stroke"/>
    <path class="cls-2" d="M289.87,282.4l.06,20.75c0,.56,.47,1.03,1.03,1.03l21.89-.08c6.43-.02,11.63-5.07,11.61-11.29h0v-.29c-.03-6.22-5.25-11.23-11.68-11.21l-21.89,.08c-.56,0-1.03,.47-1.03,1.03" vector-effect="non-scaling-stroke"/>
  </g>
  <path class="cls-1" d="M179.09,342.83c0,3.11-2.51,5.62-5.62,5.62H23.39c-3.11,0-5.62-2.51-5.62-5.62h0V193.17c0-3.11,2.51-5.62,5.62-5.62H173.47c3.11,0,5.62,2.51,5.62,5.62v149.66Zm-8.97-145.62c0-.45-.37-.82-.82-.82H27.46c-.45,0-.82,.37-.82,.82v141.51c0,.45,.37,.82,.82,.82H169.3c.45,0,.82-.37,.82-.82V197.21Z"/>
  <path class="cls-1" d="M522.44,202.76c0,8.38-6.8,15.17-15.17,15.17s-15.17-6.8-15.17-15.17h0c0-8.38,6.8-15.17,15.17-15.17h0c8.38,0,15.17,6.8,15.17,15.17Zm-3.14,0c0-6.65-5.38-12.03-12.03-12.03h0c-6.65,0-12.03,5.38-12.03,12.03h0c0,6.65,5.38,12.03,12.03,12.03h0c6.65,0,12.03-5.38,12.03-12.03h0Z"/>
  <path class="cls-1" d="M512.08,205.77c1,.76,1.68,1.74,2.05,2.98,.29,.89-.19,1.84-1.08,2.13-.72,.23-1.5-.03-1.93-.66l-3.35-4.69c-.47-.66-1.39-.82-2.05-.35-.4,.29-.63,.74-.63,1.24l.05,2.5c.02,.74-.5,1.39-1.24,1.53l-1.26,.23c-.6,.11-1.18-.27-1.29-.87,0-.06-.02-.14-.02-.21v-13.5c0-.63,.31-1,.93-1.08,4.99-.74,12.63-.74,11.61,5.91-.23,1.47-1,2.22-1.97,3.33-.48,.56-.43,1.06,.16,1.51h0Zm-7.02-6.88l.03,2.64c0,.43,.37,.79,.81,.77h0l2.16-.03c1.27-.02,2.29-.9,2.27-1.95h0v-.39c-.02-1.06-1.06-1.88-2.34-1.87l-2.16,.03c-.43,0-.79,.37-.77,.81h0v-.02Z"/>
  <path class="cls-1" d="M219.26,236.11c-3.3-6.25-16.46-8.12-20.81-9.66-14.58-5.19-12.08-22.92,1.58-27.17,7.63-2.38,15.2-1.45,22.69,2.79,2.35,1.34,3.01,3.24,1.98,5.73l-.42,1.01c-.6,1.43-2.24,2.09-3.69,1.5-.11-.05-.24-.11-.34-.18-5.93-3.58-23.92-7.7-22.1,4.83,.08,.52,.31,.95,.68,1.32,7.81,7.47,23.31,4.27,28.9,14.88,1.76,3.33,1.93,6.93,.52,10.76-5.44,14.67-26.33,13.03-37.37,7.04-2.66-1.43-3.5-3.59-2.53-6.44l.14-.4c.64-1.93,2.75-2.98,4.69-2.34,.24,.08,.45,.18,.68,.31,6.88,3.99,23.34,8.96,25.61-2.61,.1-.48,.03-.93-.21-1.37h0Z"/>
  <path class="cls-1" d="M345.41,217.4c-9.23,18.91,12.74,35.52,27.96,21.5,1.22-1.13,3.04-1.34,4.49-.52,5.19,2.95,3.43,6.97-.55,9.57-7.67,5.01-18.2,5.33-26.64,2.85-17.14-5.04-20.87-28.88-10.84-41.96,8.99-11.71,26.99-12.74,38.2-3.5,2.17,1.8,2.82,4.25,1.42,6.65-1.18,2-3.74,2.66-5.73,1.48-.06-.05-.14-.08-.21-.13-2.46-1.66-4.43-3.85-7.57-4.48-9.95-2-16.8,.84-20.54,8.52h0Z"/>
  <path class="cls-1" d="M400.28,218.56l.11,28.62c0,3.32-1.64,4.86-4.94,4.65l-.98-.06c-2.11-.13-3.74-1.88-3.74-3.98v-43.36c0-2.08,1.58-3.8,3.64-3.99,1.95-.18,3.64,.55,5.07,2.17,8.68,10.05,17.31,20.31,25.9,30.76,.19,.21,.52,.24,.72,.05,.11-.1,.18-.23,.18-.37v-29.25c0-2.05,1.64-3.7,3.7-3.7h.32l1.21,.11c2.63,.24,4.65,2.42,4.69,5.06,.14,14,.18,28.09,.08,42.25-.03,5.7-7.55,4.98-10.82,.79-7.96-10.2-16.15-20.18-24.61-29.96-.35-.4-.53-.34-.53,.19v.02Z"/>
  <path class="cls-1" d="M248.3,237.8l-.16,10.21c-.03,2.03-1.63,3.7-3.66,3.8l-1.18,.06c-3.11,.16-4.67-1.32-4.67-4.45v-43.39c0-2.25,1.84-4.07,4.09-4.09,8.62,0,20.65-1.37,27.83,2.21,10.29,5.15,12.48,18.91,5.83,27.64-6.7,8.81-17.4,6.86-27.27,7.17-.55,.02-.82,.31-.82,.84h0Zm-.03-28.49l-.06,18.26c0,.31,.26,.56,.56,.56h0l11.6,.03c5.73,.02,10.4-4.14,10.42-9.31h0v-.71c0-5.15-4.62-9.36-10.36-9.37l-11.6-.03c-.31,0-.56,.26-.56,.56h0Z"/>
  <path class="cls-1" d="M455.45,243.8l-3.27,6.46c-1.05,2.06-3.56,2.88-5.64,1.84-.27-.13-.52-.31-.74-.48l-.68-.55c-1.85-1.5-2.38-4.11-1.27-6.22,7.6-14.32,15.14-28.57,22.63-42.78,1.97-3.75,7.01-1.72,8.63,1.37,7.39,14.13,14.69,28.17,21.89,42.17,1.22,2.37,.64,4.17-1.72,5.41l-1.32,.68c-1.93,1.01-4.32,.26-5.32-1.68h0l-3.11-6.1c-.27-.53-.71-.79-1.3-.79h-27.64c-.52,0-.89,.23-1.13,.69l-.02-.02Zm5.44-11.29c-.14,.27-.05,.6,.23,.74,.08,.05,.16,.06,.26,.06h17.4c.31,.02,.55-.23,.55-.53,0-.08-.02-.18-.05-.24l-8.31-17.64c-.13-.27-.45-.39-.72-.26-.11,.05-.19,.14-.26,.24l-9.08,17.62h0Z"/>
  <path class="cls-1" d="M298.97,209.68c-.27,0-.4,.13-.4,.4v11.24c0,.24,.13,.35,.37,.35h19.97c2.88,0,4.28,1.43,4.22,4.32v1.03c-.06,1.98-1.68,3.56-3.66,3.58h-20.1c-.53,0-.81,.27-.81,.82v10.42c0,.4,.34,.74,.74,.74h24.14c2.05,0,3.72,1.63,3.79,3.66l.05,1.13c.1,2.43-1.8,4.46-4.24,4.56h-29.75c-2.45,0-4.43-1.98-4.43-4.43v-43.13c0-2.08,1.68-3.75,3.74-3.75h0l29.67,.05c1.92,0,3.46,1.56,3.46,3.48v1.1c-.1,2.96-1.63,4.45-4.57,4.45h-22.19Z"/>
  <path class="cls-1" d="M83.93,308.32v-37.03c0-.53-.26-.79-.79-.79H49.29c-2.16,.02-3.93-1.69-3.99-3.85-.58-18.25,3.72-39.53,22.47-47.43,1.53-.64,3.14-.42,4.83,.66,11.26,7.22,17.86,17.6,19.78,31.17,.4,2.88-.82,4.57-3.7,5.06l-1.35,.23c-1.72,.29-3.37-.87-3.66-2.61,0-.1-.03-.19-.03-.27-.82-10.61-5.33-19.25-13.53-25.92-.43-.35-.9-.39-1.39-.08-11.87,7.33-14.58,22.16-14.4,35.13,0,.47,.24,.69,.71,.69h33.73c2.4,0,4.35,1.93,4.36,4.35v44.78c0,2.19-1.77,3.96-3.96,3.96H48.5c-1.77,0-3.22-1.43-3.22-3.21h0l-.02-29.88c0-3.04,1.51-4.48,4.56-4.33l1.03,.05c1.87,.08,3.33,1.63,3.32,3.5v25.8c-.02,.5,.24,.76,.74,.76l28.25,.03c.5,0,.76-.26,.77-.76Z"/>
  <path class="cls-1" d="M113.05,271.48v40.91c0,1.95-1.42,3.61-3.35,3.93l-.82,.13c-3.25,.53-4.9-.85-4.91-4.16-.08-14.77-.19-29.78-.32-45.02-.1-11.42,1.43-21.07,4.57-28.93,3.01-7.57,15.67-24.03,24.55-17.89,14.14,9.79,18.67,26.82,18.73,43.18,.08,16.8,.11,33.21,.1,49.24,0,2.29-1.8,4.16-4.07,4.25-3.79,.14-16.78,1.85-16.46-4.38,.1-1.72,1.5-3.09,3.24-3.12l7.67-.13c.52,0,.77-.27,.77-.79v-37.37c0-.42-.34-.76-.76-.76h-28.03c-.6,0-.9,.29-.9,.9Zm29.57-8.97c-.03-12.51-3.37-26.87-13.8-34.95-.4-.32-.97-.34-1.4-.06-11.68,7.59-14.45,21.76-14.29,34.79,0,.66,.34,.98,1,.98h27.75c.5,0,.76-.26,.74-.76Z"/>
  <path class="cls-1" d="M476.77,280.31c-6.27-2.59-12.66-3.16-19.17-1.66-7.51,1.72-11.71,9.71-3.95,15.03,12.8,8.73,45.02,5.14,41.97,29.93-2.74,22.26-33.78,22.15-49.22,17.54-5.49-1.63-18.44-8.79-9.18-15.78,2.53-1.9,5.17-1.97,7.96-.21,9.23,5.83,18.62,7.65,28.14,5.46,9.94-2.27,10.65-14.77-.1-17.73-13.53-3.75-22.13-6.39-25.8-7.96-7.78-3.3-11.81-8.84-12.08-16.65-.34-9.52,5.91-16.09,14.66-19.44,11.19-4.28,22.65-3.8,34.39,1.43,3.58,1.59,7.59,5.32,5.44,9.57-3.09,6.15-8.91,2.22-13.06,.48h0Z"/>
  <path class="cls-1" d="M361.95,296.82l.08,37.38c0,4.17-3.37,7.55-7.55,7.57h-1.64c-3.16-.03-5.72-2.58-5.73-5.72-.14-20.37-.18-39.82-.1-58.32,0-3.4-.1-5.64,2.79-7.84,3.69-2.83,7.12-2.32,10.28,1.53,8.63,10.53,17.12,21,25.48,31.42,.27,.35,.79,.4,1.13,.13,.05-.03,.08-.08,.13-.13,8.49-10.49,16.98-20.97,25.43-31.44,3.33-4.12,10-3.58,12.18,.98,.66,1.37,.98,3.91,1,7.6,0,17.64-.02,35.82-.1,54.57-.02,4.4-2.22,6.7-6.62,6.91l-1.79,.1c-2.8,.13-5.19-2.03-5.33-4.83v-39.69c.03-.43-.32-.79-.76-.81-.24,0-.48,.1-.63,.29-5.56,6.49-11.15,12.97-16.75,19.42-5.04,5.83-9.63,7.46-14.82,.84-5.23-6.65-10.45-13.43-15.66-20.33-.19-.24-.55-.31-.79-.11-.14,.11-.23,.29-.23,.47h0Z"/>
  <path class="cls-1" d="M206.81,329.32l-4.99,9.26c-1.8,3.35-5.99,4.61-9.34,2.8h0l-1.24-.68c-3.82-2.05-4.65-4.98-2.54-8.76,10.65-19.04,20.89-37.46,30.76-55.26,2.9-5.25,6.06-10.16,12.27-7.14,1.61,.79,3.08,2.37,4.38,4.74,10.76,19.54,21.24,38.66,31.47,57.36,2.21,4.04,1.29,7.18-2.74,9.41l-1.4,.77c-2.74,1.51-6.17,.5-7.68-2.24v-.02l-5.54-10.1c-.27-.5-.79-.81-1.35-.81h-40.91c-.5,0-.87,.23-1.11,.66h-.03Zm7.49-14.64c-.16,.29-.06,.64,.23,.81,.08,.05,.18,.08,.29,.08h26.09c.32,0,.6-.27,.6-.6,0-.08-.02-.18-.06-.26l-12.4-25.19c-.14-.29-.5-.42-.79-.27-.11,.05-.21,.14-.27,.26,0,0-13.67,25.17-13.67,25.17Z"/>
  <path class="cls-1" d="M322.25,314.39l15.64,17.72c1.8,2.05,1.61,5.15-.43,6.96-.23,.19-.47,.37-.72,.53l-1.69,1.01c-3.48,2.08-7.96,1.21-10.42-2.01l-16.88-22.15c-.29-.37-.68-.56-1.14-.56h-17.23c-.55,0-.82,.29-.82,.85v19.49c0,3.04-2.46,5.51-5.52,5.51h-.24l-1.59-.06c-4.78-.23-7.17-2.72-7.17-7.51v-58.13c0-3.77,3.01-6.83,6.78-6.89,10.29-.16,20.78-.02,31.46,.42,10,.42,17.12,4.28,21.34,11.58,7.26,12.6,2.22,26.53-11.13,32.31-.5,.21-.58,.53-.21,.93h0Zm-33.74-31.99l.06,20.75c0,.56,.47,1.03,1.03,1.03l21.89-.08c6.43-.02,11.63-5.07,11.61-11.29h0v-.29c-.03-6.22-5.25-11.23-11.68-11.21l-21.89,.08c-.56,0-1.03,.47-1.03,1.03v-.02Z"/>
</svg>