<?xml version="1.0" encoding="UTF-8"?>
<svg id="Capa_1" data-name="Capa 1" xmlns="http://www.w3.org/2000/svg" viewBox="0 0 288.73 263.87">
  <defs>
    <style>
      .cls-1 {
        fill: #fff;
      }
    </style>
  </defs>
  <path class="cls-1" d="M99.36,178.59l2.09,8.3c.33,1.3,1.5,2.21,2.85,2.21,55.83,0,111.56,0,167.18,.01,2.73,0,4.77,.44,6.13,1.33,5.93,3.9,3.06,13.23-4.02,13.23-58.79,0-117.59,0-176.38,0-4.05,0-6.92-1.33-7.92-5.27-15.36-60.48-30.73-120.94-46.12-181.39-.36-1.43-1.66-2.43-3.14-2.43-9.89,.02-19.91,.02-30.07,0-4.12,0-7.66-.37-9.42-4.52C-1.14,6.13,1.19,.23,6.2,.17,18.62,.03,31.04-.02,43.45,0c7.51,.02,10.43-.33,12.3,7.21,3.06,12.33,6.17,24.63,9.34,36.89,.12,.47,.54,.79,1.02,.79,72.06,0,144.09,0,216.09-.01,5.79,0,7.1,4.61,6.32,9.65-1.05,6.78-2.19,13.55-3.44,20.3-5.86,31.9-11.42,63.85-17.16,95.77-.92,5.14-3.08,7.42-8.28,7.42-53.29,0-106.57,0-159.85,.01-.38,0-.52,.18-.43,.55Zm154.73-17.17c-.53-3.88,1.55-4.72,2.09-7.76,5.4-30.15,10.76-60.17,16.08-90.06,.35-1.96-.95-3.83-2.91-4.18-.21-.04-.42-.06-.64-.06H72.45c-2.29,0-3.15,1.11-2.59,3.33,7.79,30.81,15.59,61.81,23.39,93,.55,2.2,1.27,4.41,2.16,6.62,.29,.72,.83,1.08,1.61,1.09,50.38,0,100.69,0,150.93-.02,2.28,0,4.16-.35,5.65-1.05,.35-.16,.54-.53,.49-.91Z"/>
  <path class="cls-1" d="M142.05,237.75c0,14.43-11.69,26.12-26.12,26.12h0c-14.43,0-26.12-11.69-26.12-26.12s11.69-26.12,26.12-26.12,26.12,11.69,26.12,26.12h0Zm-17.99-3.75l1.17,.27c.53,.13,1.05-.2,1.18-.73,.04-.18,.03-.38-.03-.56-5.43-15.3-27.14-5.47-22.06,8.7,1.91,5.34,6.1,8.31,11.78,7.89,.35-.03,.68-.14,.97-.34l5.48-3.71c.09-.05,.15-.13,.2-.23,1.32-2.86,1.96-5.9,1.91-9.13,0-.39-.16-.7-.47-.94l-.52-.39c-.2-.16-.24-.45-.08-.66,.11-.14,.3-.21,.47-.17Z"/>
  <path class="cls-1" d="M272.76,237.74c0,14.43-11.7,26.13-26.13,26.13h0c-14.43,0-26.13-11.7-26.13-26.13h0c0-14.43,11.7-26.13,26.13-26.13s26.13,11.7,26.13,26.13Zm-13.82,0c0-6.82-5.52-12.34-12.34-12.34s-12.34,5.52-12.34,12.34,5.52,12.34,12.34,12.34,12.34-5.52,12.34-12.34Z"/>
</svg>