<?xml version="1.0" encoding="UTF-8"?>
<svg id="Capa_1" data-name="Capa 1" xmlns="http://www.w3.org/2000/svg" viewBox="0 0 277.43 241.37">
  <defs>
    <style>
      .cls-1 {
        fill: #fff;
      }
    </style>
  </defs>
  <path class="cls-1" d="M126.39,231.1c-.62,.13-1.05-.08-1.3-.61-.14-.32-.35-.59-.62-.8-22.93-18.33-45.25-37.36-66.98-57.09-11.25-10.21-21.47-20.9-30.66-32.07-7.74-9.41-14.31-19.77-19.71-31.08-.83-1.73-1.2-4.31-2.25-6.38-1.1-2.18-1.18-4.8-1.99-7.14-.44-1.27-.7-2.67-.79-4.2-.08-1.35-.3-2.87-.65-4.56-1.91-9.13-1.92-17.75-.01-25.84,.51-2.14,.73-3.79,.68-4.96-.01-.33,.05-.63,.2-.92,.99-1.89,1.6-3.9,1.83-6.01,.16-1.52,1.04-1.96,1.51-3.29C13.04,25.29,35.83,6,57.27,2.01c2.54-.47,4.9-1.55,7.43-1.65,5.64-.23,11.28-.25,16.92-.07,4.17,.13,7.97,1.45,12.05,2.41,17.76,4.17,33.1,16.95,44.88,30.35,.2,.23,.55,.25,.78,.04,.02-.01,.03-.03,.04-.04,12.8-14.25,26.36-25.35,45.01-30.57,4.63-1.3,9.77-2.08,15.4-2.35,6.03-.29,11.25-.12,15.66,.51,2.48,.35,5.94,1.23,10.39,2.63,21.43,6.78,37.99,22.22,46.31,42.7,5.32,13.1,6.33,26.68,4.36,40.7-.99,7.1-2.65,13.79-4.98,20.07-1.97,5.31-5.03,11.22-9.17,17.73-13.12,20.64-30.4,37.58-49.03,54.3-18.63,16.73-37.66,33.01-57.08,48.83-.25,.21-3.01,2.53-8.26,6.97-2.77,2.34-5.64,4.56-8.6,6.66-.26,.18-.52,.18-.77,0-3.31-2.37-6.57-4.9-9.77-7.57-.79-.66-1.86-.56-1.89-2.11,0-.26-.22-.47-.47-.46-.03,0-.06,0-.09,.01Zm14.32-11.94c.53,.14,.95,.03,1.26-.34,.5-.61,.78-.93,.84-.98,29.13-23.09,55.56-46.02,79.29-68.79,10.55-10.13,20.05-21.88,28.49-35.27,1.78-2.83,3.32-5.73,4.61-8.71,1.88-4.31,3-7.41,3.36-9.32,.86-4.64,2.25-9.14,2.45-13.76,.4-9.33,.32-15.62-.25-18.86-1.85-10.62-6.59-20.22-14.23-28.79-10.29-11.53-21.89-17.18-37.47-18.17-10.91-.7-22.97,.41-32.64,5.69-9.37,5.12-17.65,12-24.84,20.65-3.29,3.97-6.77,7.92-10.44,11.86-1.44,1.55-2.89,1.56-4.34,.03-2.69-2.82-5.15-5.63-7.38-8.42-7.7-9.63-16.87-17.56-27.5-23.79-11.58-6.78-27.94-7.46-40.77-5.07-20.51,3.82-37.01,20.18-42.62,39.87-1.07,3.77-1.7,8.43-1.87,13.98-.19,6.17-.07,10.89,.34,14.18,.78,6.17,2.63,12.6,5.54,19.3,2.31,5.32,5.65,11.05,10.04,17.19,8.17,11.45,17.38,22.04,27.63,31.77,9.82,9.32,17.58,15.84,25.61,23.12,8.12,7.37,16.65,14.31,25.08,21.34,.93,.78,1.38,2.03,2.82,2.46,.31,.09,.59,.26,.82,.49,.71,.73,2.08,1.95,4.09,3.65,5.47,4.61,11.01,9.13,16.62,13.56,.06,.05,.29,.32,.7,.81,.27,.33,.65,.47,1.14,.42,.29-.04,.57,.15,.65,.43l.25,.85c.15,.53,.71,.83,1.24,.68,.36-.1,.63-.4,.7-.76l.19-.94c.07-.33,.26-.45,.59-.36Z"/>
</svg>