<?xml version="1.0" encoding="UTF-8"?>
<svg id="Capa_1" data-name="Capa 1" xmlns="http://www.w3.org/2000/svg" viewBox="0 0 377.64 377.64">
  <defs>
    <style>
      .cls-1 {
        fill: #fff;
      }
    </style>
  </defs>
  <path class="cls-1" d="M377.64,188.82c0,104.28-84.54,188.82-188.82,188.82S0,293.1,0,188.82C0,84.54,84.54,0,188.82,0c104.28,0,188.82,84.54,188.82,188.82Zm-208.23,34.3c13.05,4.98,26.09,4.94,39.1-.13,.41-.16,.61-.02,.6,.42-.11,6.16-5.1,12.5-10.22,15.42-.49,.28-.78,.82-.74,1.39l2.2,34.91c.02,.34,.31,.61,.65,.59,.19,0,.37-.11,.48-.27,12.25-17.01,23.59-34.76,34.02-53.27,3.21-5.69,5.77-11.67,7.69-17.92,.13-.44,.56-.72,1.01-.67,18.84,1.92,36.95,11.01,50.51,23.57,16.84,15.59,26.73,36.49,28.41,59.54,.02,.25,.25,.44,.5,.42,.13-.01,.25-.08,.33-.19,24.45-34.26,35.88-76.06,30.67-118.03-7.96-64.2-52.79-118.99-113.74-138.73-20.95-6.78-41.28-9.54-60.99-8.29-41.08,2.62-76.49,18.07-106.24,46.35-26.21,24.92-44.56,59.3-49.69,95.22-6.41,44.95,3.47,86.03,29.65,123.26,.11,.15,.32,.17,.46,.07,.07-.05,.12-.13,.13-.22,2.83-22.74,11.52-41.65,26.07-56.73,13.46-13.97,30.13-22.19,49.39-25.73,1.75-.32,3.19-.44,4.33-.36,.4,.03,.65,.23,.75,.62,1.15,4.52,2.28,7.83,3.39,9.94,11.35,21.45,24.07,41.88,38.18,61.3,.18,.26,.55,.33,.81,.14,.15-.1,.24-.27,.25-.45l2.24-35.49c.01-.22-.09-.43-.28-.55-4.81-2.91-10.97-9.53-10.6-15.69,.03-.45,.26-.6,.68-.44Z"/>
  <path class="cls-1" d="M169.57,208.18c-27.39-12.21-41.83-44.33-45.82-72.1-1.09-7.58-2.28-16.58-1.87-24.03,.87-15.93,6.4-30.21,16.61-42.83,12.94-16.01,29.82-24.16,50.64-24.46,23.46-.34,45.48,14.09,56.88,34.05,6.93,12.13,10.23,25.47,9.9,40.02-.05,2.5-.68,8.08-1.87,16.75-2.15,15.69-7.26,30.33-15.31,43.92-14.25,24.05-40.68,41.36-69.16,28.68Z"/>
</svg>